<svg viewBox="0 0 100 100" xmlns="http://www.w3.org/2000/svg" fill-rule="evenodd" clip-rule="evenodd" stroke-linejoin="round" stroke-miterlimit="1.414"><path fill="none" d="M0-.006h100.003v99.992H0z"/><path fill="#fff" d="M46.772 69.372h3.652v11.667h-3.652z"/><path d="M48.788 79.215a7.375 7.375 0 0 1 3.153.796 7.345 7.345 0 0 1 3.56 3.99c.276.744.426 1.533.446 2.327a7.229 7.229 0 0 1-.977 3.83 7.393 7.393 0 0 1-4.018 3.278 7.365 7.365 0 0 1-2.354.383 7.354 7.354 0 0 1-2.351-.383 7.404 7.404 0 0 1-4.02-3.277 7.288 7.288 0 0 1-.977-3.83c.02-.795.171-1.584.447-2.329a7.3 7.3 0 0 1 1.349-2.27 7.375 7.375 0 0 1 4.438-2.433 8.26 8.26 0 0 1 .926-.082c.19-.002.188-.002.378 0zm-.287 3.651a3.8 3.8 0 0 0-1.59.4 3.682 3.682 0 0 0-1.79 2.001 3.653 3.653 0 0 0-.084 2.244 3.707 3.707 0 0 0 3.561 2.657 3.7 3.7 0 0 0 3.56-2.657 3.597 3.597 0 0 0-.082-2.244 3.652 3.652 0 0 0-.675-1.134 3.76 3.76 0 0 0-1.114-.867 3.801 3.801 0 0 0-1.592-.4c-.097-.002-.097-.002-.194 0z" fill="#fff" fill-rule="nonzero"/><path fill="#fff" d="M20.972 84.69h22.101v3.652H20.972zm33.153 0h22.101v3.652H54.125z"/><path d="M42.615 6.183a29.671 29.671 0 0 1 6.573.816 29.444 29.444 0 0 1 9.93 4.467 30.037 30.037 0 0 1 4.244 3.583l-2.584 2.578c-.237-.238-.237-.238-.478-.473-.24-.227-.238-.227-.479-.451a27.952 27.952 0 0 0-2.264-1.864 25.959 25.959 0 0 0-5.285-2.998c-4.568-1.92-9.673-2.472-14.552-1.618a25.754 25.754 0 0 0-11.818 5.41 28.732 28.732 0 0 0-2.195 1.994l-2.583-2.578a31.386 31.386 0 0 1 3.941-3.37 29.491 29.491 0 0 1 9.878-4.593 29.782 29.782 0 0 1 4.334-.76 33.322 33.322 0 0 1 2.219-.136c.374-.007.747-.01 1.12-.007z" fill="#fff" fill-rule="nonzero"/><path d="M42.5 15.587c1.528.028 3.045.205 4.532.563a20.323 20.323 0 0 1 6.852 3.082c1.05.73 2.021 1.56 2.923 2.466l-2.585 2.578a36.71 36.71 0 0 0-.466-.456 26.137 26.137 0 0 0-.471-.427 16.763 16.763 0 0 0-4.753-2.938 16.867 16.867 0 0 0-9.415-.928 16.574 16.574 0 0 0-3.918 1.257 16.899 16.899 0 0 0-4.935 3.492l-2.586-2.578a21.306 21.306 0 0 1 2.923-2.466 20.323 20.323 0 0 1 6.853-3.082 20.927 20.927 0 0 1 4.531-.563c.26-.002.258-.002.515 0zm-.48 10.49a16.28 16.28 0 0 1 4.374.671c3.177.953 6.011 2.909 8.06 5.514a16.831 16.831 0 0 1 2.181 3.678l.024.056c.148-.108.298-.214.45-.318.154-.102.311-.202.468-.3a12.117 12.117 0 0 1 4.028-1.556c1.38-.267 2.81-.293 4.198-.075.798.124 1.58.332 2.335.617 2.441.924 4.546 2.644 5.985 4.814a12.728 12.728 0 0 1 1.745 3.979 12.07 12.07 0 0 1 .225 4.648c.164.086.327.178.487.269a12.683 12.683 0 0 1 3.975 3.646 12.703 12.703 0 0 1 1.965 4.353c.321 1.347.414 2.744.3 4.124a12.508 12.508 0 0 1-.804 3.517 11.403 11.403 0 0 1-1.273 2.382 11.417 11.417 0 0 1-2.93 2.889 12.375 12.375 0 0 1-3.084 1.511c-1.344.446-2.746.661-4.16.698-13.709.214-27.424.214-41.134 0a14.772 14.772 0 0 1-3.427-.478c-2.118-.566-4.092-1.667-5.618-3.25a11.293 11.293 0 0 1-2.102-3.053 12.334 12.334 0 0 1-1.103-4.216 13.231 13.231 0 0 1 .06-2.819 12.72 12.72 0 0 1 1.109-3.785 12.846 12.846 0 0 1 3.273-4.263c1.311-1.121 2.863-1.94 4.512-2.44l.07-.02c-.054-.187-.101-.376-.148-.564-.055-.233-.053-.231-.105-.465a16.347 16.347 0 0 1 .071-7.102 16.407 16.407 0 0 1 1.757-4.434c1.915-3.317 4.985-5.939 8.585-7.263a15.776 15.776 0 0 1 4.893-.96c.252-.005.504-.01.758-.005zm-.334 3.65c-1.287.018-2.562.23-3.782.646-3.202 1.091-5.89 3.503-7.372 6.54a12.624 12.624 0 0 0-1.123 3.545 12.811 12.811 0 0 0 .758 6.74l.07.17 1.036 2.453c-.927.095-1.857.172-2.78.29a9 9 0 0 0-1.804.44 8.953 8.953 0 0 0-4.147 3.113 9.095 9.095 0 0 0-1.453 3.044 9.444 9.444 0 0 0-.289 2.826c.04.831.181 1.66.446 2.45a7.75 7.75 0 0 0 1.5 2.652c1.05 1.207 2.464 2.046 3.992 2.492.902.265 1.835.39 2.773.414 13.66.214 27.323.214 40.982 0 .902-.023 1.799-.14 2.668-.383 1.535-.431 2.963-1.253 4.031-2.448a7.782 7.782 0 0 0 1.567-2.726c.264-.791.405-1.62.445-2.45a9.352 9.352 0 0 0-.28-2.785 9.015 9.015 0 0 0-3.893-5.344 9.269 9.269 0 0 0-1.5-.761l-1.709-.652c.168-.636.345-1.271.502-1.91.035-.153.068-.309.1-.464a9.54 9.54 0 0 0 .14-1.267 8.35 8.35 0 0 0-.241-2.32 9.076 9.076 0 0 0-1.246-2.836c-.987-1.495-2.42-2.695-4.09-3.361a8.174 8.174 0 0 0-1.45-.428 8.532 8.532 0 0 0-5.49.77 8.884 8.884 0 0 0-2.568 1.993l-.086.098-.084.1-2.474 3.012c-.301-1.359-.577-2.723-.907-4.074a12.965 12.965 0 0 0-1.725-3.927c-1.56-2.364-3.906-4.18-6.603-5.054a12.53 12.53 0 0 0-3.49-.595c-.143-.004-.284-.004-.424-.004z" fill="#fff" fill-rule="nonzero"/></svg>