<svg viewBox="0 0 100 100" xmlns="http://www.w3.org/2000/svg" fill-rule="evenodd" clip-rule="evenodd" stroke-linejoin="round" stroke-miterlimit="1.414"><path fill="none" d="M0-.006h100.003v99.992H0z"/><path d="M40.313 49.266a31.69 31.69 0 0 0 7.36-.862 18.074 18.074 0 0 1-1.9-2.622 29.13 29.13 0 0 1-5.46.516c-1.827 0-3.72-.19-5.63-.567l-.573-.113-10.352 6.418 3.17-9.076-1.008-.628c-5.753-3.58-9.054-8.938-9.054-14.7 0-10.292 10.519-18.665 23.447-18.665 9.435 0 17.58 4.462 21.297 10.873a26.896 26.896 0 0 1 3.185-.314C60.869 11.603 51.378 6 40.313 6c-14.564 0-26.414 9.705-26.414 21.633 0 6.46 3.429 12.442 9.454 16.567L18.19 58.98l16.498-10.23c1.903.343 3.793.516 5.625.516z" fill="#fff" fill-rule="nonzero"/><path d="M71.593 52.944L85.66 59.11l-5.755-10.595a16.224 16.224 0 0 0 1.7-1.844c1.989-2.495 3.07-5.406 3.07-8.474 0-8.546-8.444-15.499-18.823-15.499-10.38 0-18.823 6.953-18.823 15.5 0 3.17 1.166 6.117 3.158 8.574 3.377 4.169 9.136 6.923 15.666 6.923 1.931 0 3.861-.252 5.741-.75zM49.994 38.195c0-6.91 7.113-12.531 15.856-12.531 8.743 0 15.857 5.622 15.857 12.531 0 3.315-1.635 6.444-4.605 8.813l-.972.775 2.787 5.132-7.108-3.116-.517.15a19.489 19.489 0 0 1-5.441.779c-8.744-.001-15.857-5.623-15.857-12.533z" fill="#fff" fill-rule="nonzero"/><circle cx="56.982" cy="38.48" r="2.371" fill="#fff" transform="translate(1.11 1.11) scale(.9778)"/><circle cx="66.21" cy="38.48" r="2.371" fill="#fff" transform="translate(1.11 1.11) scale(.9778)"/><circle cx="75.438" cy="38.48" r="2.371" fill="#fff" transform="translate(1.11 1.11) scale(.9778)"/><path d="M26.167 75.586a7.962 7.962 0 0 0-3.432-9.104 7.923 7.923 0 0 0-4.194-1.201 7.974 7.974 0 1 0 7.626 10.305zm-13.621-2.331a6.003 6.003 0 0 1 5.995-5.996 6.003 6.003 0 0 1 5.996 5.996 6.003 6.003 0 0 1-5.996 5.996 6.003 6.003 0 0 1-5.995-5.996zM30.928 94c0-5.125-4.17-9.295-9.296-9.295H15.45c-5.126 0-9.296 4.17-9.296 9.296h1.978c0-4.036 3.283-7.318 7.318-7.318h6.182c4.035 0 7.318 3.282 7.318 7.318h1.978zm11.446-18.414A7.977 7.977 0 0 0 50 81.229a7.977 7.977 0 0 0 7.974-7.974c0-3.629-2.426-6.685-5.743-7.651A7.967 7.967 0 0 0 50 65.28c-.775 0-1.522.116-2.231.323-3.317.966-5.743 4.022-5.743 7.65 0 .812.123 1.594.348 2.332zM62.387 94c0-5.125-4.17-9.295-9.295-9.295h-6.183c-5.125 0-9.295 4.17-9.295 9.296h24.773zm11.098-20.745a7.977 7.977 0 0 0 7.974 7.974 7.974 7.974 0 1 0 0-15.948 7.923 7.923 0 0 0-4.194 1.2 7.96 7.96 0 0 0-3.78 6.774zm13.97 0a6.003 6.003 0 0 1-5.997 5.996 6.003 6.003 0 0 1-5.995-5.996 6.003 6.003 0 0 1 5.995-5.996 6.003 6.003 0 0 1 5.996 5.996zM93.845 94c0-5.125-4.17-9.295-9.296-9.295h-6.182c-5.126 0-9.296 4.17-9.296 9.296h1.978c0-4.036 3.283-7.318 7.318-7.318h6.182c4.035 0 7.318 3.282 7.318 7.318h1.978z" fill="#fff" fill-rule="nonzero"/></svg>