<svg viewBox="0 0 100 100" xmlns="http://www.w3.org/2000/svg" fill-rule="evenodd" clip-rule="evenodd" stroke-linejoin="round" stroke-miterlimit="1.414"><path fill="none" d="M0-.006h100.003v99.992H0z"/><path d="M64.974 13.79c-8.975-4.023-19.187-4.333-28.471-.62-6.19 2.477-11.76 6.5-15.783 11.76l-1.548-5.57c-.31-1.857-1.857-2.785-3.713-2.476-1.548.62-2.476 2.167-2.167 3.714l3.095 12.688c.31 1.548 1.547 2.476 3.095 2.476h.619l12.688-3.094c1.547-.31 2.785-2.167 2.166-3.714 0-1.857-1.856-2.785-3.404-2.166l-5.26 1.237c3.403-4.023 7.426-7.117 12.378-8.974 7.737-3.095 16.092-2.785 23.83.619 7.427 3.404 13.307 9.284 16.401 17.02 3.095 7.737 2.785 16.093-.619 23.83-3.404 7.737-9.284 13.307-17.02 16.402-10.832 4.023-22.901 2.166-31.567-5.57-3.713-3.405-6.808-7.428-8.665-12.07-.619-1.547-2.476-2.476-4.023-1.857-1.547.62-2.476 2.476-1.857 4.023 2.166 5.57 5.88 10.832 10.213 14.546 6.808 5.88 15.473 8.974 24.448 8.974 4.642 0 8.975-.928 13.307-2.476C72.401 78.78 79.52 71.97 83.542 62.996c4.023-8.975 4.333-19.187.62-28.472-3.714-9.284-9.904-16.711-19.188-20.734z" fill="#fff" fill-rule="nonzero"/><path d="M50.12 29.263c-1.857 0-3.095 1.238-3.095 3.095v18.568c0 .929.31 1.857 1.238 2.476l12.378 9.284c.62.31 1.238.62 1.857.62.929 0 1.857-.31 2.476-1.239.928-1.238.619-3.404-.619-4.332l-11.14-8.356v-17.02c0-1.858-1.239-3.096-3.096-3.096z" fill="#fff" fill-rule="nonzero"/></svg>