<svg viewBox="0 0 100 100" xmlns="http://www.w3.org/2000/svg" fill-rule="evenodd" clip-rule="evenodd" stroke-linejoin="round" stroke-miterlimit="1.414"><path fill="none" d="M0-.006h100.003v99.992H0z"/><path d="M9 6C7.373 6 6 7.371 6 9v6c0 1.626 1.373 2.998 3 2.998h1v47c0 1.63 1.373 3 3 3h23.563l-7.469 23.37c-.319 1 .283 2.21 1.281 2.53.998.32 2.024-.13 2.531-1.31l3.375-10.59h27.438l3.375 10.59c.347 1.12 1.533 1.63 2.531 1.31.998-.32 1.6-1.53 1.281-2.53l-7.468-23.37H87c1.627 0 3-1.37 3-3v-47h1c1.627 0 3-1.372 3-2.999V9c0-1.627-1.373-3-3-3H9zm1 4h80v4H10v-4zm4 7.998h72v46H14v-46zm46 5c-3.29 0-6 2.71-6 6 0 .296.021.59.062.874l-10.031 6.72c-1.07-.982-2.482-1.595-4.031-1.595-3.29 0-6 2.71-6 6s2.71 6 6 6c1.534 0 2.933-.6 4-1.563l10.062 6.713c-.039.28-.062.56-.062.85 0 3.29 2.71 6 6 6s6-2.71 6-6-2.71-6-6-6c-1.55 0-2.96.613-4.03 1.59l-10.032-6.715a6.028 6.028 0 0 0 0-1.719L56 33.435c1.066.962 2.466 1.562 4 1.562 3.29 0 6-2.71 6-5.999 0-3.29-2.71-6-6-6zm0 4c1.128 0 2 .871 2 2a1.97 1.97 0 0 1-2 2c-1.128 0-2-.872-2-2 0-1.129.872-2 2-2zm-20 12c1.128 0 2 .87 2 2 0 1.127-.872 2-2 2-1.128 0-2-.873-2-2 0-1.13.872-2 2-2zm20 12c1.128 0 2 .87 2 2s-.872 2-2 2c-1.128 0-2-.87-2-2s.872-2 2-2zm-19.219 17h18.438l3.22 10H37.562l3.218-10z" fill-rule="nonzero"/></svg>