<svg viewBox="0 0 100 100" xmlns="http://www.w3.org/2000/svg" fill-rule="evenodd" clip-rule="evenodd" stroke-linejoin="round" stroke-miterlimit="1.414"><path fill="none" d="M0-.006h100.003v99.992H0z"/><path d="M49.995 73.558c-12.987 0-23.554-10.565-23.554-23.555 0-5.73 2.09-11.26 5.888-15.567a23.543 23.543 0 0 1 17.666-7.987c6.753 0 13.19 2.904 17.666 7.969a23.543 23.543 0 0 1 5.888 15.585c0 12.99-10.565 23.555-23.554 23.555zm0-43.485a19.915 19.915 0 0 0-14.946 6.76 19.9 19.9 0 0 0-4.985 13.17c0 10.991 8.942 19.931 19.931 19.931 10.99 0 19.93-8.94 19.93-19.93a19.92 19.92 0 0 0-4.982-13.19 19.96 19.96 0 0 0-14.948-6.741z" fill="#fff" fill-rule="nonzero"/><path d="M31.876 40.437v-15.8c0-9.99 8.128-18.119 18.12-18.119 4.851 0 9.4 1.888 12.807 5.318a17.986 17.986 0 0 1 5.31 12.801v15.767l-3.168-3.587a19.962 19.962 0 0 0-14.95-6.744 19.915 19.915 0 0 0-14.946 6.76l-3.173 3.604zm18.12-30.295c-7.993 0-14.496 6.503-14.496 14.495v6.81a23.532 23.532 0 0 1 14.495-4.998 23.589 23.589 0 0 1 14.495 4.986v-6.798c0-3.863-1.51-7.5-4.252-10.242a14.334 14.334 0 0 0-10.243-4.253zm-.001 83.339c-3.995 0-7.247-3.252-7.247-7.247 0-3.997 3.252-7.248 7.247-7.248a7.255 7.255 0 0 1 7.248 7.248c0 3.995-3.25 7.247-7.248 7.247zm0-10.871a3.627 3.627 0 0 0-3.624 3.624 3.627 3.627 0 0 0 3.624 3.623 3.627 3.627 0 0 0 3.624-3.623 3.627 3.627 0 0 0-3.624-3.624z" fill="#fff" fill-rule="nonzero"/><path d="M78.99 88.045H55.436a1.813 1.813 0 0 1 0-3.623H78.99a1.813 1.813 0 0 1 0 3.623zm-34.425 0H21.01a1.813 1.813 0 0 1 0-3.623h23.554a1.813 1.813 0 0 1 0 3.623zm5.43-5.435c-1 0-1.812-.812-1.812-1.812v-9.052a1.813 1.813 0 0 1 3.624 0v9.052c0 1-.812 1.812-1.812 1.812zm0-24.274c-3.995 0-7.247-3.252-7.247-7.247 0-3.997 3.252-7.248 7.247-7.248a7.255 7.255 0 0 1 7.248 7.248c0 3.995-3.25 7.247-7.248 7.247zm0-10.871a3.627 3.627 0 0 0-3.624 3.624 3.627 3.627 0 0 0 3.624 3.623 3.627 3.627 0 0 0 3.624-3.623 3.627 3.627 0 0 0-3.624-3.624z" fill="#fff" fill-rule="nonzero"/><path d="M49.995 66.303c-1 0-1.812-.812-1.812-1.812v-7.967a1.813 1.813 0 0 1 3.624 0v7.967c0 1-.812 1.812-1.812 1.812z" fill="#fff" fill-rule="nonzero"/></svg>