<svg viewBox="0 0 100 100" xmlns="http://www.w3.org/2000/svg" fill-rule="evenodd" clip-rule="evenodd" stroke-linejoin="round" stroke-miterlimit="1.414"><path fill="none" d="M0-.006h100.003v99.992H0z"/><path d="M84.96 52.374a2.506 2.506 0 0 0-2.5 2.499v33.485h-1.999l-22.74-23.24-.125-.125c-.124 0-.124-.125-.25-.125-.124 0-.124-.125-.25-.125-.124 0-.124-.125-.25-.125-.124 0-.124 0-.25-.125h-1.249c-.124 0-.124 0-.25.125-.124 0-.124 0-.25.125-.124 0-.124.125-.25.125-.124 0-.124.125-.25.125-.124 0-.124.125-.249.125s-.125.125-.25.125l-5.123 5.373-18.242-17.743s-.125-.124-.25-.124c-.124 0-.124-.125-.25-.125-.124 0-.124-.125-.25-.125-.124 0-.124-.125-.25-.125-.124 0-.124 0-.249-.125h-1c-.125 0-.25 0-.25.125h-.124c-.25 0-.375.125-.375.125s-.125 0-.125.125c-.125 0-.125.125-.25.125l-.125.124-15.618 16.368V18.014h41.357a2.506 2.506 0 0 0 2.499-2.5 2.506 2.506 0 0 0-2.5-2.498H8.869a2.506 2.506 0 0 0-2.499 2.499v75.467a2.506 2.506 0 0 0 2.499 2.499h76.216a2.506 2.506 0 0 0 2.5-2.5V54.874c-.126-1.375-1.125-2.5-2.625-2.5zM30.857 88.483h-19.49V76.488l17.367-18.242 16.368 15.868-13.869 13.87c-.125.124-.25.374-.375.499zm6.997 0L55.847 70.49 73.59 88.483H37.855z" fill="#fff" fill-rule="nonzero"/><path d="M16.49 34.631c0 5.623 4.623 10.246 10.245 10.246 5.623 0 10.246-4.623 10.246-10.246 0-5.622-4.623-10.245-10.246-10.245A10.212 10.212 0 0 0 16.49 34.631zm15.618 0c0 2.874-2.374 5.248-5.248 5.248s-5.248-2.374-5.248-5.248c0-2.873 2.374-5.247 5.248-5.247s5.248 2.374 5.248 5.247zM71.84 7.268c-1-1-2.499-1-3.498 0-.5.5-.75 1.25-.75 2v10.87c-11.62 1.374-30.611 11.62-30.611 33.485v.5l.25.5c0 .125.124.125.124.25s.125.125.125.25l.125.124c0 .125.125.125.25.25l.125.125c.125 0 .125.125.25.125s.125.125.25.125.125.125.25.125.125 0 .25.125h1.124c.125 0 .375-.125.5-.125s.25-.125.375-.25l.125-.125.25-.25C53.598 42.378 61.47 41.004 67.592 40.88v10.87l.25.5c0 .125.125.125.125.25 0 0 0 .125.125.125.125.125.25.25.25.374.125.125.25.125.375.25.125 0 .125.125.25.125.124 0 .124.125.25.125.124 0 .124 0 .25.125h1.249c.125 0 .125 0 .25-.125.125 0 .125 0 .25-.125.124 0 .124-.125.25-.125.124 0 .124 0 .25-.125l.374-.374 20.99-21.116c1-1 1-2.5 0-3.499L71.84 7.268zm.75 37.984v-6.997a2.506 2.506 0 0 0-2.499-2.499h-.375c-6.372 0-14.618 0-26.988 10.995 3.623-14.493 18.492-21.865 27.363-21.865a2.506 2.506 0 0 0 2.499-2.5v-7.37l14.993 15.117L72.59 45.252z" fill="#fff" fill-rule="nonzero"/></svg>