<svg viewBox="0 0 100 100" xmlns="http://www.w3.org/2000/svg" fill-rule="evenodd" clip-rule="evenodd" stroke-linejoin="round" stroke-miterlimit="1.414"><path fill="none" d="M0-.006h100.003v99.992H0z"/><path d="M71.159 87.784c12.523 0 22.67-10.151 22.67-22.672 0-7.408-3.572-13.971-9.068-18.106V12.213H6.168V72.67h43.637c3.117 8.799 11.484 15.114 21.354 15.114zm19.648-22.672c0 10.852-8.797 19.649-19.648 19.649-10.852 0-19.649-8.797-19.649-19.649 0-10.851 8.797-19.648 19.649-19.648 10.851 0 19.648 8.797 19.648 19.648zm-19.648-22.67a22.57 22.57 0 0 0-12.65 3.853l-3.93-2.617 27.16-19.918v21.308a22.55 22.55 0 0 0-10.58-2.627zM9.19 15.235h72.547v4.776l-36.273 26.6-36.274-26.6v-4.776zm0 8.524l27.157 19.918L9.19 61.78V23.76zm0 45.887V65.42l29.757-19.839 6.517 4.78 6.517-4.78 4.035 2.69c-4.612 4.15-7.53 10.148-7.53 16.84 0 1.554.16 3.069.454 4.535H9.19z" fill="#fff" fill-rule="nonzero"/><path d="M74.387 60.578l-3.228-9.718-3.235 9.718H57.556l8.367 6.285-3.177 9.87 8.413-6.07 8.397 6.07-3.168-9.87 8.373-6.285H74.387z" fill="#fff" fill-rule="nonzero"/></svg>