<svg viewBox="0 0 100 100" xmlns="http://www.w3.org/2000/svg" fill-rule="evenodd" clip-rule="evenodd" stroke-linejoin="round" stroke-miterlimit="1.414"><path fill="none" d="M0-.006h100.003v99.992H0z"/><g fill-rule="nonzero"><path d="M69.557 12.82a4.028 4.028 0 0 1 1.366.277 4.019 4.019 0 0 1 2.327 2.444c.14.412.206.841.211 1.276v18.986c-.01.167-.005.21-.047.373a1.506 1.506 0 0 1-1.359 1.124 1.509 1.509 0 0 1-1.582-1.309c-.008-.062-.008-.125-.012-.188 0-6.343.24-12.69 0-19.03a1.032 1.032 0 0 0-.069-.315 1.024 1.024 0 0 0-.569-.57 1.076 1.076 0 0 0-.316-.068 752.521 752.521 0 0 0-57.125 0 1.039 1.039 0 0 0-.316.068 1.026 1.026 0 0 0-.569.57c-.04.1-.061.206-.068.315a459.881 459.881 0 0 0 0 34.877 1.014 1.014 0 0 0 .66.894c.115.042.234.06.355.061h43.191c.167.01.21.005.373.047a1.506 1.506 0 0 1 1.1 1.172 1.494 1.494 0 0 1-1.285 1.769c-.062.008-.125.008-.188.012H12.426a4.097 4.097 0 0 1-1.276-.21A4.01 4.01 0 0 1 8.429 51.7c-.147-11.627-.001-23.256-.001-34.883.006-.435.071-.864.211-1.276a4.01 4.01 0 0 1 3.693-2.72 2264.75 2264.75 0 0 1 57.225 0z"/><path d="M36.498 53.447c.087.01.109.011.194.03a1.5 1.5 0 0 1 .368.133 1.494 1.494 0 0 1 .748 1.75c-.024.084-.034.104-.067.184l-3.448 7.85h11.833l-3.066-7.91c-.028-.083-.038-.103-.058-.188a1.494 1.494 0 0 1 .352-1.37 1.51 1.51 0 0 1 1.885-.266 1.497 1.497 0 0 1 .619.74l3.857 9.951c.028.081.037.101.058.185a1.512 1.512 0 0 1-.889 1.745c-.12.05-.246.083-.374.1-.086.011-.108.01-.194.012H31.995c-.085-.003-.107 0-.192-.012a1.51 1.51 0 0 1-1.307-1.437c-.006-.16.015-.32.06-.474.024-.082.034-.1.066-.18l4.373-9.952a1.507 1.507 0 0 1 1.307-.896c.098 0 .098 0 .196.005zm18.569-8.473c.054.01.108.014.16.026a1.518 1.518 0 0 1 .92.623c.308.455.341 1.06.083 1.545a1.503 1.503 0 0 1-1.003.762c-.14.031-.178.027-.322.035H9.928c-.144-.008-.181-.004-.322-.035a1.503 1.503 0 0 1-1.003-.762 1.508 1.508 0 0 1 .182-1.674 1.487 1.487 0 0 1 .981-.52c.054-.006.108-.006.162-.009h44.977l.162.01zm-14.366-27.24a7.314 7.314 0 0 1 3.018.688 7.432 7.432 0 0 1 3.487 3.404c.309.622.53 1.288.652 1.972a7.44 7.44 0 0 1 .044 2.331 7.4 7.4 0 0 1-.656 2.165 7.418 7.418 0 0 1-3.856 3.628 7.383 7.383 0 0 1-5.568 0 7.393 7.393 0 0 1-3.856-3.628 7.4 7.4 0 0 1-.656-2.165 7.34 7.34 0 0 1 .696-4.303 7.432 7.432 0 0 1 3.487-3.404 7.314 7.314 0 0 1 3.018-.688h.19zm-.165 2a5.43 5.43 0 0 0-2.196.5 5.416 5.416 0 0 0-2.453 2.31 5.347 5.347 0 0 0-.596 3.307 5.344 5.344 0 0 0 1.567 3.088 5.372 5.372 0 0 0 1.66 1.106 5.366 5.366 0 0 0 6.897-2.562c.235-.472.399-.978.485-1.499a5.407 5.407 0 0 0 0-1.768 5.305 5.305 0 0 0-.485-1.499 5.412 5.412 0 0 0-2.368-2.397 5.41 5.41 0 0 0-2.511-.587z"/><path d="M40.656 32.5c.119.01.233.033.343.08a1.01 1.01 0 0 1 .605.868c.055 2.163.001 4.327.001 6.49a1 1 0 0 1-1.999.051c-.055-2.163-.001-4.327-.001-6.49a1.08 1.08 0 0 1 .062-.347 1.008 1.008 0 0 1 .887-.652h.102z"/><path d="M48.269 32.491c.077.014.097.015.172.038.143.045.263.122.377.218.113.104.112.103.223.208a12.183 12.183 0 0 1 3.677 10.338l-.015.09a1.004 1.004 0 0 1-.978.793H29.487a1.008 1.008 0 0 1-.887-.538 1.13 1.13 0 0 1-.106-.347c-.022-.184-.022-.184-.04-.368a12.33 12.33 0 0 1 .104-3.115 12.214 12.214 0 0 1 2.179-5.214 12.663 12.663 0 0 1 1.656-1.845l.069-.058c.066-.046.081-.06.153-.096.161-.083.345-.12.525-.108.093.007.178.03.265.056l3.159 1.125c.029.012.058.022.086.035a.99.99 0 0 1 .462.437 1.008 1.008 0 0 1-.413 1.353 1.01 1.01 0 0 1-.627.105c-.081-.013-.1-.022-.178-.046l-2.576-.917a10.22 10.22 0 0 0-2.685 4.962 10.236 10.236 0 0 0-.228 2.503l.003.075h20.396a10.533 10.533 0 0 0-.255-2.711 10.18 10.18 0 0 0-2.613-4.788l-.015-.015-2.538 1.07-.086.031c-.08.021-.099.03-.181.04a1.014 1.014 0 0 1-.773-.235.997.997 0 0 1 .18-1.64c.027-.014.056-.026.084-.039l3.146-1.326c.073-.028.09-.037.167-.054.087-.02.173-.024.262-.024l.087.007z"/><path d="M40.709 32.5a10.052 10.052 0 0 1 3.01.487c.693.223 1.355.523 1.991.878l.051.03a1.006 1.006 0 0 1 .28 1.418c-1.504 2.011-3.126 3.932-4.691 5.898a1.09 1.09 0 0 1-.27.236 1.007 1.007 0 0 1-.978.026 1.107 1.107 0 0 1-.283-.222c-1.598-1.918-3.081-3.93-4.62-5.895a1.064 1.064 0 0 1-.167-.318 1.008 1.008 0 0 1 .241-1 1.42 1.42 0 0 1 .323-.23 7.27 7.27 0 0 1 .369-.2 10.544 10.544 0 0 1 4.744-1.109zm-.185 2a8.542 8.542 0 0 0-2.919.568l-.07.027 3.039 3.88 3.089-3.883a8.276 8.276 0 0 0-1.618-.468 8.298 8.298 0 0 0-1.521-.124zm.536-26.874a3.404 3.404 0 0 1 1.48.377 3.435 3.435 0 0 1 1.838 3.593 3.435 3.435 0 0 1-1.029 1.971 3.468 3.468 0 0 1-1.036.681 3.456 3.456 0 0 1-2.684 0 3.468 3.468 0 0 1-1.765-1.682 3.435 3.435 0 0 1-.3-2.018 3.435 3.435 0 0 1 1.838-2.545 3.404 3.404 0 0 1 1.48-.377h.178zm-.152 1a2.493 2.493 0 0 0-1.05.267 2.467 2.467 0 0 0-1.284 1.686 2.472 2.472 0 0 0 .166 1.5 2.465 2.465 0 0 0 1.225 1.224 2.445 2.445 0 0 0 3.433-2.543 2.469 2.469 0 0 0-1.21-1.81 2.488 2.488 0 0 0-1.28-.324z"/><path d="M41.049 9.554c.228.017.445.072.647.182a1.534 1.534 0 0 1 .703.813 1.506 1.506 0 0 1 .044.903 1.524 1.524 0 0 1-2.064 1.02 1.534 1.534 0 0 1-.88-1.02 1.506 1.506 0 0 1 .299-1.347c.124-.15.277-.276.448-.369.202-.11.419-.165.647-.182.079-.002.078-.002.156 0zm-.105 1a.525.525 0 0 0-.442.744c.026.052.06.1.102.141a.503.503 0 0 0 .367.153.521.521 0 0 0 .469-.295.525.525 0 0 0-.442-.744h-.054zm27.737 23.963a14.45 14.45 0 0 1 5.951 1.358 14.57 14.57 0 0 1 6.877 6.713 14.441 14.441 0 0 1 1.285 3.886c.271 1.515.3 3.074.086 4.598a14.47 14.47 0 0 1-1.293 4.268 14.606 14.606 0 0 1-7.603 7.155 14.535 14.535 0 0 1-5.49 1.075 14.54 14.54 0 0 1-5.49-1.075 14.584 14.584 0 0 1-7.603-7.155 14.47 14.47 0 0 1-1.293-4.268 14.624 14.624 0 0 1 .086-4.598 14.44 14.44 0 0 1 1.285-3.886 14.573 14.573 0 0 1 6.877-6.713 14.45 14.45 0 0 1 5.951-1.358h.374zm-.336 3a11.463 11.463 0 0 0-4.719 1.076 11.59 11.59 0 0 0-5.398 5.206 11.49 11.49 0 0 0-1.149 6.857 11.446 11.446 0 0 0 1.025 3.381 11.59 11.59 0 0 0 6.036 5.681c1.38.564 2.864.852 4.354.852 1.49 0 2.975-.288 4.354-.852a11.59 11.59 0 0 0 6.036-5.681c.514-1.065.861-2.21 1.025-3.38a11.49 11.49 0 0 0-3.464-9.955 11.573 11.573 0 0 0-3.083-2.109 11.428 11.428 0 0 0-4.719-1.076h-.298zM84.07 64.706c.138.023.174.023.308.067.151.05.294.123.422.217.042.032.081.067.122.101a25.618 25.618 0 0 1 1.648 1.647 24.361 24.361 0 0 1 6.334 17.393 25.687 25.687 0 0 1-.126 1.71l-.022.187c-.013.107-.025.23-.049.335a1.504 1.504 0 0 1-1.307 1.158c-.05.005-.103.005-.155.008H45.742c-.052-.003-.104-.003-.155-.008a1.51 1.51 0 0 1-1.308-1.16c-.011-.05-.017-.102-.026-.153a25.68 25.68 0 0 1-.186-2.651 24.392 24.392 0 0 1 7.768-18.255l.114-.106a2.15 2.15 0 0 1 .373-.293 1.51 1.51 0 0 1 .94-.19c.142.018.176.034.314.075l6.464 2.302.102.04c.131.064.26.13.392.192 1.127.518 2.323.888 3.535 1.151 2.64.572 5.39.596 8.036.052a19.702 19.702 0 0 0 2.993-.868c.496-.187.982-.396 1.463-.617l.08-.033.08-.029 6.721-2.205c.136-.037.17-.052.31-.067.053-.005.106-.005.16-.008l.157.008zm-6.333 5.096c-.196.09-.196.09-.394.177-.238.104-.237.103-.476.204a22.621 22.621 0 0 1-4.381 1.325 22.514 22.514 0 0 1-11.683-.846 15.614 15.614 0 0 1-1.938-.817l.065.034-5.493-1.956a21.886 21.886 0 0 0-2.969 3.654 21.37 21.37 0 0 0-3.361 12.94v.012H89.88a21.826 21.826 0 0 0 .024-2.239 21.361 21.361 0 0 0-6.309-14.323l-.066-.065-5.792 1.9zM14.357 48.92a.508.508 0 0 1 .48.48c.014.696.04 1.396-.002 2.092a.52.52 0 0 1-.065.21.515.515 0 0 1-.294.23.504.504 0 0 1-.639-.46c-.014-.697-.04-1.397.002-2.093a.505.505 0 0 1 .458-.458c.02-.002.04-.002.06-.002zm7.865 0a.508.508 0 0 1 .48.48c.014.696.04 1.396-.002 2.092a.52.52 0 0 1-.065.21.515.515 0 0 1-.294.23.504.504 0 0 1-.639-.46c-.014-.697-.04-1.397.002-2.093a.505.505 0 0 1 .458-.458c.02-.002.04-.002.06-.002zm-3.932 0a.508.508 0 0 1 .48.48c.014.696.04 1.396-.002 2.092a.52.52 0 0 1-.065.21.515.515 0 0 1-.294.23.504.504 0 0 1-.639-.46c-.014-.697-.04-1.397.002-2.093a.505.505 0 0 1 .458-.458c.02-.002.04-.002.06-.002z"/></g></svg>