<svg viewBox="0 0 100 100" xmlns="http://www.w3.org/2000/svg" fill-rule="evenodd" clip-rule="evenodd" stroke-linejoin="round" stroke-miterlimit="1.414"><path fill="none" d="M0-.006h100.003v99.992H0z"/><g fill-rule="nonzero"><path d="M72.197 20.031c.054.01.108.014.16.026a1.518 1.518 0 0 1 .92.623 1.512 1.512 0 0 1-.21 1.931 1.503 1.503 0 0 1-.71.376c-.14.031-.178.027-.322.035H26.887c-.144-.008-.181-.004-.322-.035a1.503 1.503 0 0 1-1.158-1.222 1.505 1.505 0 0 1 1.318-1.734c.054-.006.108-.006.162-.009h45.148l.162.01zm0 54.867c.142.023.18.023.317.07a1.495 1.495 0 0 1 .914.866 1.51 1.51 0 0 1-.25 1.526 1.487 1.487 0 0 1-.98.52c-.055.006-.109.006-.163.01H26.887c-.144-.009-.181-.005-.322-.036a1.503 1.503 0 0 1-1.003-.762 1.508 1.508 0 0 1 .182-1.674 1.487 1.487 0 0 1 .981-.52c.054-.006.108-.006.162-.009h45.148l.162.01z"/><path d="M25.388 13.21a4.852 4.852 0 0 1 1.343-3.232 4.84 4.84 0 0 1 3.396-1.507c12.85-.162 25.702 0 38.552 0a4.834 4.834 0 0 1 1.551.256 4.865 4.865 0 0 1 3.304 4.483c.31 24.486.001 48.976.001 73.465a4.856 4.856 0 0 1-3.081 4.517 4.84 4.84 0 0 1-1.659.337c-12.85.163-25.702.001-38.553.001a4.847 4.847 0 0 1-3.261-1.264 4.84 4.84 0 0 1-1.593-3.476c-.31-24.525-.31-49.055 0-73.58zm3 73.504c.007.202.042.401.112.592.182.496.577.901 1.069 1.095.203.08.416.12.634.128 12.838.163 25.678.163 38.516 0a1.92 1.92 0 0 0 .635-.128 1.883 1.883 0 0 0 1.068-1.095c.07-.19.105-.39.112-.592.311-24.474.311-48.954 0-73.428a1.904 1.904 0 0 0-.112-.592 1.883 1.883 0 0 0-1.068-1.095 1.92 1.92 0 0 0-.635-.128 1516.912 1516.912 0 0 0-38.516 0 1.904 1.904 0 0 0-.592.112 1.885 1.885 0 0 0-1.095 1.07 1.91 1.91 0 0 0-.128.633c-.31 24.474-.31 48.954 0 73.428z"/><path d="M57.147 13.813a1.509 1.509 0 0 1 1.377.966 1.49 1.49 0 0 1 .052.902 1.51 1.51 0 0 1-1.429 1.132c-.386.003-.774.02-1.16-.003a1.51 1.51 0 0 1-1.399-1.571 1.509 1.509 0 0 1 .394-.942 1.51 1.51 0 0 1 1.08-.484c.361-.003.723-.003 1.085 0zm-5 .001c.226.014.444.068.644.175a1.514 1.514 0 0 1 .706.814 1.514 1.514 0 0 1-.652 1.804c-.214.125-.45.19-.698.205-2.159.044-4.319.044-6.478 0a1.555 1.555 0 0 1-.644-.175 1.514 1.514 0 0 1-.706-.814 1.514 1.514 0 0 1 .652-1.804c.214-.125.451-.19.698-.205 2.159-.044 4.32-.044 6.478 0zm-2.921 64.922a4.401 4.401 0 0 1 1.897.483 4.45 4.45 0 0 1 1.967 2.015 4.415 4.415 0 0 1-5.695 5.98 4.437 4.437 0 0 1-2.259-2.152A4.415 4.415 0 0 1 49 78.736h.226zm-.15 3a1.433 1.433 0 0 0-.605.153 1.434 1.434 0 0 0-.727.905 1.44 1.44 0 0 0 .08.934c.071.156.17.298.29.42a1.393 1.393 0 0 0 .962.413 1.4 1.4 0 0 0 .986-.367 1.433 1.433 0 0 0 .442-.795 1.46 1.46 0 0 0 0-.502 1.429 1.429 0 0 0-.66-.958 1.436 1.436 0 0 0-.768-.203zm.498-39.912a8.692 8.692 0 0 1 3.586.818 8.835 8.835 0 0 1 4.144 4.045c.367.74.63 1.53.774 2.342a8.749 8.749 0 0 1-.727 5.343 8.782 8.782 0 0 1-4.582 4.311 8.743 8.743 0 0 1-3.308.648 8.743 8.743 0 0 1-6.039-2.418 8.749 8.749 0 0 1-1.804-10.226 8.835 8.835 0 0 1 4.144-4.045 8.692 8.692 0 0 1 3.586-.818h.226zm-.2 2a6.685 6.685 0 0 0-2.765.63 6.822 6.822 0 0 0-3.087 2.906 6.715 6.715 0 0 0-.761 4.078 6.725 6.725 0 0 0 1.983 3.971 6.739 6.739 0 0 0 4.63 1.921 6.764 6.764 0 0 0 2.562-.467 6.799 6.799 0 0 0 3.577-3.286 6.734 6.734 0 0 0 .596-4.196 6.686 6.686 0 0 0-.596-1.804 6.828 6.828 0 0 0-3.052-3.052 6.686 6.686 0 0 0-3.087-.7zm.168 15.986c.11.013.216.036.32.081a1.01 1.01 0 0 1 .595.861c.073 2.631.002 5.265.002 7.897a1.001 1.001 0 0 1-1.789.614 1.025 1.025 0 0 1-.209-.559c-.073-2.63-.002-5.265-.002-7.897a1.09 1.09 0 0 1 .054-.325 1.01 1.01 0 0 1 .595-.612c.105-.039.212-.056.323-.063.056 0 .055 0 .111.003z"/><path d="M58.756 59.795c.034.006.07.01.103.018a.998.998 0 0 1 .288.115c.08.048.095.065.166.124.136.125.135.125.27.251a14.607 14.607 0 0 1 2.145 2.581 14.632 14.632 0 0 1 1.698 3.576 14.693 14.693 0 0 1 .583 6.143c-.012.106-.025.21-.059.311a1.009 1.009 0 0 1-.64.631 1.13 1.13 0 0 1-.307.048H35.918a1.13 1.13 0 0 1-.306-.048 1.007 1.007 0 0 1-.603-.535 1.192 1.192 0 0 1-.084-.298 14.974 14.974 0 0 1 .048-3.993 14.617 14.617 0 0 1 4.632-8.665l.075-.063c.073-.049.09-.064.169-.102.178-.086.381-.117.577-.089.087.013.108.023.191.048l3.848 1.37c.083.034.106.04.183.087a1.004 1.004 0 0 1 .476.741 1.01 1.01 0 0 1-.542 1.006.99.99 0 0 1-.69.079c-.033-.008-.065-.019-.097-.029l-3.269-1.164a12.658 12.658 0 0 0-3.424 6.25 12.898 12.898 0 0 0-.27 3.4v.005h25.257a12.985 12.985 0 0 0-.173-2.913 12.6 12.6 0 0 0-2.83-5.994 13.37 13.37 0 0 0-.656-.712l-.01-.01-3.228 1.361-.095.034c-.087.022-.108.031-.198.04a1 1 0 0 1-.575-1.873c.03-.017.061-.03.092-.045l3.832-1.615c.086-.03.107-.042.198-.06.091-.017.115-.015.207-.018l.103.007z"/><path d="M49.585 59.806a11.955 11.955 0 0 1 3.6.583c.83.268 1.624.628 2.386 1.053l.057.034c.092.064.175.135.245.224a1.005 1.005 0 0 1 .034 1.184c-1.824 2.455-3.807 4.787-5.71 7.18a1.14 1.14 0 0 1-.248.222 1.008 1.008 0 0 1-.96.06 1.062 1.062 0 0 1-.319-.237c-1.953-2.329-3.75-4.784-5.623-7.176a1.09 1.09 0 0 1-.179-.357.997.997 0 0 1 .023-.592c.059-.168.164-.32.3-.434.118-.099.26-.172.393-.246.138-.078.278-.15.42-.22a12.565 12.565 0 0 1 5.581-1.278zm-.227 2.001a10.76 10.76 0 0 0-1.4.116 11.03 11.03 0 0 0-2.587.734l4.05 5.17 4.113-5.17a10.68 10.68 0 0 0-1.929-.626 10.228 10.228 0 0 0-2.247-.224zM38.385 26.672a3.583 3.583 0 0 1 3.135 5.132 3.596 3.596 0 0 1-1.833 1.747 3.587 3.587 0 0 1-3.864-.707 3.596 3.596 0 0 1-1.07-2.047 3.56 3.56 0 0 1 .313-2.097 3.583 3.583 0 0 1 3.135-2.028h.184zm-.159 1a2.648 2.648 0 0 0-1.107.281 2.602 2.602 0 0 0-1.354 1.78 2.576 2.576 0 0 0 .703 2.344 2.586 2.586 0 0 0 2.771.577 2.579 2.579 0 0 0 1.353-1.228 2.593 2.593 0 0 0 .252-1.567 2.6 2.6 0 0 0-1.267-1.846 2.633 2.633 0 0 0-1.351-.34zm-.434 6.646h1v3.116h-1z"/><path d="M42.332 33.991a5.92 5.92 0 0 1 1.859 4.89l-.009.09-.061.53H32.466c-.031-.267-.067-.535-.084-.803a5.923 5.923 0 0 1 1.872-4.705l.275-.253 1.814.645-.336.942-1.237-.44a5.082 5.082 0 0 0-.668.855 4.89 4.89 0 0 0-.729 2.738v.021h9.841c.003-.08.003-.162.003-.244a4.891 4.891 0 0 0-1.344-3.313l-.043-.045-1.219.514-.388-.922 1.819-.767.29.267z"/><path d="M38.448 33.82c.299.011.595.043.887.107a5.22 5.22 0 0 1 1.378.521l.573.32-3.014 3.788-2.953-3.77c.18-.112.359-.226.541-.334.059-.034.119-.066.18-.097a5.22 5.22 0 0 1 1.431-.467 5.52 5.52 0 0 1 .667-.068 5.34 5.34 0 0 1 .31 0zm-.194.997a4.241 4.241 0 0 0-1.408.274l-.013.005 1.445 1.846 1.469-1.846a4.015 4.015 0 0 0-.805-.227 4.309 4.309 0 0 0-.688-.052z"/><path d="M46.23 41.024H30.355V25.15H46.23v15.875zM31.355 26.15v13.875H45.23V26.15H31.355z"/></g></svg>