<svg viewBox="0 0 566 560" xmlns="http://www.w3.org/2000/svg" fill-rule="evenodd" clip-rule="evenodd" stroke-linecap="round" stroke-linejoin="round"><path d="M395.953 283.137c0 60.319-49.627 109.218-110.845 109.218-61.218 0-110.845-48.899-110.845-109.218s49.627-109.218 110.845-109.218c61.218 0 110.845 48.899 110.845 109.218z" fill="none" stroke="#fff" stroke-width="2" stroke-dasharray="1,7.98"/><g opacity=".8"><clipPath id="a"><path d="M141.193 141.32h287.83v283.633h-287.83z"/></clipPath><g clip-path="url(#a)"><path d="M428.023 283.137c0 77.771-63.985 140.817-142.915 140.817-78.929 0-142.915-63.046-142.915-140.817 0-77.771 63.986-140.817 142.915-140.817 78.93 0 142.915 63.046 142.915 140.817z" fill="none" stroke="#fff" stroke-width="2" stroke-dasharray="1,8"/></g></g><g opacity=".6"><clipPath id="b"><path d="M107.721 108.34h354.773v349.594H107.721z"/></clipPath><g clip-path="url(#b)"><path d="M461.495 283.137c0 95.985-78.971 173.797-176.387 173.797-97.415 0-176.386-77.812-176.386-173.797S187.693 109.34 285.108 109.34c97.416 0 176.387 77.812 176.387 173.797z" fill="none" stroke="#fff" stroke-width="2" stroke-dasharray="1,8.02"/></g></g><g opacity=".4"><clipPath id="c"><path d="M74.112 75.224h421.992V491.05H74.112z"/></clipPath><g clip-path="url(#c)"><path d="M495.104 283.137c0 114.275-94.019 206.913-209.996 206.913-115.978 0-209.997-92.638-209.997-206.913S169.13 76.224 285.108 76.224c115.977 0 209.996 92.638 209.996 206.913z" fill="none" stroke="#fff" stroke-width="2" stroke-dasharray="1,7.98"/></g></g><g opacity=".2"><clipPath id="d"><path d="M40.372 41.979h489.472v482.315H40.372z"/></clipPath><g clip-path="url(#d)"><path d="M528.844 283.137c0 132.636-109.125 240.158-243.736 240.158-134.612 0-243.736-107.522-243.736-240.158 0-132.635 109.124-240.158 243.736-240.158 134.611 0 243.736 107.523 243.736 240.158z" fill="none" stroke="#fff" stroke-width="2" stroke-dasharray="1,8"/></g></g><g opacity=".1"><clipPath id="e"><path d="M4.975 7.101h560.266v552.071H4.975z"/></clipPath><g clip-path="url(#e)"><path d="M564.241 283.137c0 151.898-124.972 275.035-279.133 275.035S5.974 435.035 5.974 283.137c0-151.898 124.973-275.035 279.134-275.035s279.133 123.137 279.133 275.035z" fill="none" stroke="#fff" stroke-width="2" stroke-dasharray="1,8.02"/></g></g><path d="M148.557 499.632l1.117 2.79 2.831 1.1-2.831 1.101-1.117 2.789-1.117-2.789-2.831-1.101 2.831-1.1 1.117-2.79zm338.925-334.584l1.117 2.79 2.831 1.1-2.831 1.101-1.117 2.789-1.117-2.789-2.831-1.101 2.831-1.1 1.117-2.79zM238.401 366.921l1.164 2.908 2.95 1.146-2.95 1.147-1.164 2.907-1.164-2.907-2.95-1.147 2.95-1.146 1.164-2.908zM515.179 77.338l1.117 2.79 2.831 1.1-2.831 1.101-1.117 2.789-1.117-2.789-2.831-1.101 2.831-1.1 1.117-2.79zM382.89 35.511l1.872 4.678 4.748 1.845-4.748 1.845-1.872 4.678-1.873-4.678-4.747-1.845 4.747-1.845 1.873-4.678zM28.963 172.408l1.873 4.678 4.747 1.845-4.747 1.845-1.873 4.678-1.872-4.678-4.748-1.845 4.748-1.845 1.872-4.678zm339.864 356.05l1.872 4.678 4.748 1.845-4.748 1.845-1.872 4.678-1.872-4.678-4.748-1.845 4.748-1.845 1.872-4.678zm190.221-270.333l1.872 4.678 4.748 1.845-4.748 1.845-1.872 4.678-1.872-4.678-4.748-1.845 4.748-1.845 1.872-4.678zM28.298 433.508l1.872 4.678 4.748 1.845-4.748 1.845-1.872 4.678-1.872-4.678-4.748-1.845 4.748-1.845 1.872-4.678z" fill="#fff" fill-rule="nonzero"/><g opacity=".8"><clipPath id="f"><path d="M26.893 376.773h4.218v4.156h-4.218z"/></clipPath><g clip-path="url(#f)"><path d="M31.111 378.851c0 1.148-.944 2.078-2.109 2.078-1.164 0-2.109-.93-2.109-2.078 0-1.148.945-2.078 2.109-2.078 1.165 0 2.109.93 2.109 2.078" fill="#fff" fill-rule="nonzero"/></g></g><g opacity=".8"><clipPath id="g"><path d="M550.046 432.16h4.218v4.155h-4.218z"/></clipPath><g clip-path="url(#g)"><path d="M554.264 434.238c0 1.147-.944 2.078-2.109 2.078-1.164 0-2.109-.931-2.109-2.078 0-1.148.945-2.078 2.109-2.078 1.165 0 2.109.93 2.109 2.078" fill="#fff" fill-rule="nonzero"/></g></g><g opacity=".8"><clipPath id="h"><path d="M391.844 456.595h4.217v4.156h-4.217z"/></clipPath><g clip-path="url(#h)"><path d="M396.062 458.673c0 1.148-.945 2.078-2.109 2.078-1.165 0-2.11-.93-2.11-2.078 0-1.148.945-2.078 2.11-2.078 1.164 0 2.108.93 2.108 2.078" fill="#fff" fill-rule="nonzero"/></g></g><g opacity=".8"><clipPath id="i"><path d="M296.058 151.215h4.218v4.156h-4.218z"/></clipPath><g clip-path="url(#i)"><path d="M300.276 153.293c0 1.148-.944 2.078-2.109 2.078s-2.109-.93-2.109-2.078c0-1.148.944-2.078 2.109-2.078s2.109.93 2.109 2.078" fill="#fff" fill-rule="nonzero"/></g></g><g opacity=".8"><clipPath id="j"><path d="M255.451 552.943h4.217v4.156h-4.217z"/></clipPath><g clip-path="url(#j)"><path d="M259.668 555.021c0 1.148-.944 2.078-2.109 2.078-1.164 0-2.109-.93-2.109-2.078 0-1.147.945-2.078 2.109-2.078 1.165 0 2.109.931 2.109 2.078" fill="#fff" fill-rule="nonzero"/></g></g><g opacity=".8"><clipPath id="k"><path d="M243.324 410.73h4.218v4.156h-4.218z"/></clipPath><g clip-path="url(#k)"><path d="M247.542 412.808c0 1.148-.944 2.078-2.109 2.078-1.164 0-2.109-.93-2.109-2.078 0-1.147.945-2.078 2.109-2.078 1.165 0 2.109.931 2.109 2.078" fill="#fff" fill-rule="nonzero"/></g></g><path d="M500.426 119.465l1.873 4.678 4.747 1.845-4.747 1.845-1.873 4.678-1.872-4.678-4.748-1.845 4.748-1.845 1.872-4.678zm-195.053 68.521l1.872 4.678 4.748 1.845-4.748 1.845-1.872 4.678-1.872-4.678-4.748-1.845 4.748-1.845 1.872-4.678zM211.19 446.768l1.872 4.678 4.748 1.845-4.748 1.845-1.872 4.678-1.872-4.678-4.748-1.845 4.748-1.845 1.872-4.678zm268.052 16.182l1.872 4.678 4.748 1.845-4.748 1.845-1.872 4.678-1.872-4.678-4.748-1.845 4.748-1.845 1.872-4.678zM72.669 154.875l1.872 4.678 4.748 1.845-4.748 1.845-1.872 4.678-1.872-4.678-4.748-1.845 4.748-1.845 1.872-4.678zm125.34 364.504l1.872 4.678 4.748 1.845-4.748 1.845-1.872 4.678-1.872-4.678-4.748-1.845 4.748-1.845 1.872-4.678z" fill="#005082" fill-rule="nonzero"/><g opacity=".6"><clipPath id="l"><path d="M449.217 517.79h7.55v7.44h-7.55z"/></clipPath><g clip-path="url(#l)"><path d="M456.767 521.51c0 2.054-1.69 3.72-3.775 3.72s-3.775-1.666-3.775-3.72c0-2.054 1.69-3.72 3.775-3.72s3.775 1.666 3.775 3.72" fill="#005082" fill-rule="nonzero"/></g></g><g opacity=".6"><clipPath id="m"><path d="M95.481 476.299h7.55v7.439h-7.55z"/></clipPath><g clip-path="url(#m)"><path d="M103.031 480.018c0 2.054-1.69 3.72-3.775 3.72s-3.775-1.666-3.775-3.72c0-2.054 1.69-3.72 3.775-3.72s3.775 1.666 3.775 3.72" fill="#005082" fill-rule="nonzero"/></g></g><g opacity=".6"><clipPath id="n"><path d="M177.232 0h7.55v7.44h-7.55z"/></clipPath><g clip-path="url(#n)"><path d="M184.783 3.72c0 2.054-1.69 3.72-3.775 3.72s-3.776-1.666-3.776-3.72c0-2.054 1.691-3.72 3.776-3.72s3.775 1.666 3.775 3.72" fill="#005082" fill-rule="nonzero"/></g></g><g opacity=".6"><clipPath id="o"><path d="M391.117 215.319h7.55v7.439h-7.55z"/></clipPath><g clip-path="url(#o)"><path d="M398.667 219.039c0 2.054-1.69 3.72-3.775 3.72s-3.775-1.666-3.775-3.72c0-2.054 1.69-3.72 3.775-3.72s3.775 1.666 3.775 3.72" fill="#005082" fill-rule="nonzero"/></g></g><g opacity=".6"><clipPath id="p"><path d="M151.155 252.633h7.55v7.439h-7.55z"/></clipPath><g clip-path="url(#p)"><path d="M158.705 256.353c0 2.054-1.69 3.72-3.775 3.72s-3.775-1.666-3.775-3.72c0-2.054 1.69-3.72 3.775-3.72s3.775 1.666 3.775 3.72" fill="#005082" fill-rule="nonzero"/></g></g><g opacity=".6"><clipPath id="q"><path d="M385.046 353.738h7.551v7.439h-7.551z"/></clipPath><g clip-path="url(#q)"><path d="M392.597 357.458c0 2.054-1.69 3.72-3.775 3.72s-3.776-1.666-3.776-3.72c0-2.054 1.691-3.72 3.776-3.72s3.775 1.666 3.775 3.72" fill="#005082" fill-rule="nonzero"/></g></g><g opacity=".6"><clipPath id="r"><path d="M538.183 322.397h7.55v7.44h-7.55z"/></clipPath><g clip-path="url(#r)"><path d="M545.734 326.117c0 2.054-1.691 3.72-3.775 3.72-2.086 0-3.775-1.666-3.775-3.72 0-2.054 1.689-3.72 3.774-3.72s3.775 1.666 3.775 3.72" fill="#005082" fill-rule="nonzero"/></g></g><g opacity=".6"><clipPath id="s"><path d="M338.78 59.811h7.55v7.44h-7.55z"/></clipPath><g clip-path="url(#s)"><path d="M346.33 63.531c0 2.054-1.69 3.72-3.775 3.72s-3.775-1.666-3.775-3.72c0-2.054 1.69-3.72 3.775-3.72s3.775 1.666 3.775 3.72" fill="#005082" fill-rule="nonzero"/></g></g><g opacity=".6"><clipPath id="t"><path d="M260.922 413.433h95.844V507.9h-95.844z"/></clipPath><g clip-path="url(#t)"><path d="M355.766 460.667c0 25.534-21.008 46.233-46.922 46.233-25.915 0-46.923-20.699-46.923-46.233 0-25.534 21.008-46.233 46.923-46.233 25.914 0 46.922 20.699 46.922 46.233z" fill="none" stroke="#fff" stroke-width="2" stroke-miterlimit="10"/></g></g><g opacity=".4"><clipPath id="u"><path d="M251.981 404.624h113.726V516.71H251.981z"/></clipPath><g clip-path="url(#u)"><path d="M364.707 460.667c0 30.4-25.011 55.043-55.863 55.043s-55.863-24.643-55.863-55.043c0-30.399 25.011-55.043 55.863-55.043s55.863 24.644 55.863 55.043z" fill="none" stroke="#fff" stroke-width="2" stroke-miterlimit="10"/></g></g><g opacity=".2"><clipPath id="v"><path d="M243.005 395.78h131.677v129.773H243.005z"/></clipPath><g clip-path="url(#v)"><path d="M373.683 460.667c0 35.284-29.029 63.887-64.839 63.887s-64.839-28.603-64.839-63.887c0-35.283 29.029-63.887 64.839-63.887s64.839 28.604 64.839 63.887z" fill="none" stroke="#fff" stroke-width="2" stroke-miterlimit="10"/></g></g><g opacity=".1"><clipPath id="w"><path d="M233.589 386.502h150.51v148.329h-150.51z"/></clipPath><g clip-path="url(#w)"><path d="M383.099 460.667c0 40.408-33.245 73.165-74.255 73.165s-74.255-32.757-74.255-73.165c0-40.408 33.245-73.165 74.255-73.165s74.255 32.757 74.255 73.165z" fill="none" stroke="#fff" stroke-width="2" stroke-miterlimit="10"/></g></g><path d="M528.381 259.542c0 25.534-21.008 46.233-46.922 46.233-25.915 0-46.922-20.699-46.922-46.233 0-25.534 21.007-46.233 46.922-46.233 25.914 0 46.922 20.699 46.922 46.233z" fill="none" stroke="#fff" stroke-width="2" stroke-miterlimit="10" opacity=".6"/><g opacity=".4"><clipPath id="x"><path d="M424.595 203.499h113.726v112.086H424.595z"/></clipPath><g clip-path="url(#x)"><path d="M537.322 259.542c0 30.399-25.011 55.043-55.864 55.043-30.851 0-55.862-24.644-55.862-55.043s25.011-55.043 55.863-55.043 55.863 24.644 55.863 55.043z" fill="none" stroke="#fff" stroke-width="2" stroke-miterlimit="10"/></g></g><g opacity=".2"><clipPath id="y"><path d="M415.62 194.655h131.677v129.773H415.62z"/></clipPath><g clip-path="url(#y)"><path d="M546.297 259.542c0 35.284-29.029 63.887-64.839 63.887-35.809 0-64.838-28.603-64.838-63.887s29.029-63.887 64.838-63.887c35.81 0 64.839 28.603 64.839 63.887z" fill="none" stroke="#fff" stroke-width="2" stroke-miterlimit="10"/></g></g><g opacity=".1"><clipPath id="z"><path d="M406.204 185.377h150.509v148.329H406.204z"/></clipPath><g clip-path="url(#z)"><path d="M555.713 259.542c0 40.408-33.245 73.165-74.255 73.165s-74.255-32.757-74.255-73.165c0-40.408 33.245-73.165 74.255-73.165s74.255 32.757 74.255 73.165z" fill="none" stroke="#fff" stroke-width="2" stroke-miterlimit="10"/></g></g><g opacity=".6"><clipPath id="A"><path d="M347.485 88.563h95.844v94.466h-95.844z"/></clipPath><g clip-path="url(#A)"><path d="M442.329 135.796c0 25.534-21.008 46.233-46.922 46.233-25.915 0-46.923-20.699-46.923-46.233 0-25.534 21.008-46.233 46.923-46.233 25.914 0 46.922 20.699 46.922 46.233z" fill="none" stroke="#fff" stroke-width="2" stroke-miterlimit="10"/></g></g><g opacity=".4"><clipPath id="B"><path d="M338.544 79.753H452.27v112.086H338.544z"/></clipPath><g clip-path="url(#B)"><path d="M451.27 135.796c0 30.399-25.011 55.043-55.863 55.043s-55.863-24.644-55.863-55.043 25.011-55.043 55.863-55.043 55.863 24.644 55.863 55.043z" fill="none" stroke="#fff" stroke-width="2" stroke-miterlimit="10"/></g></g><g opacity=".2"><clipPath id="C"><path d="M329.568 70.909h131.677v129.774H329.568z"/></clipPath><g clip-path="url(#C)"><path d="M460.246 135.796c0 35.284-29.029 63.887-64.839 63.887-35.809 0-64.838-28.603-64.838-63.887 0-35.283 29.029-63.887 64.838-63.887 35.81 0 64.839 28.604 64.839 63.887z" fill="none" stroke="#fff" stroke-width="2" stroke-miterlimit="10"/></g></g><g opacity=".1"><clipPath id="D"><path d="M320.152 61.631h150.51v148.33h-150.51z"/></clipPath><g clip-path="url(#D)"><path d="M469.662 135.796c0 40.408-33.245 73.165-74.255 73.165s-74.255-32.757-74.255-73.165c0-40.408 33.245-73.165 74.255-73.165s74.255 32.757 74.255 73.165z" fill="none" stroke="#fff" stroke-width="2" stroke-miterlimit="10"/></g></g><g opacity=".6"><clipPath id="E"><path d="M199.219 27.247h95.845v94.466h-95.845z"/></clipPath><g clip-path="url(#E)"><path d="M294.064 74.48c0 25.534-21.008 46.233-46.922 46.233-25.915 0-46.923-20.699-46.923-46.233 0-25.534 21.008-46.233 46.923-46.233 25.914 0 46.922 20.699 46.922 46.233z" fill="none" stroke="#fff" stroke-width="2" stroke-miterlimit="10"/></g></g><g opacity=".4"><clipPath id="F"><path d="M190.279 18.437h113.726v112.086H190.279z"/></clipPath><g clip-path="url(#F)"><path d="M303.005 74.48c0 30.399-25.011 55.043-55.863 55.043s-55.863-24.644-55.863-55.043 25.011-55.043 55.863-55.043 55.863 24.644 55.863 55.043z" fill="none" stroke="#fff" stroke-width="2" stroke-miterlimit="10"/></g></g><g opacity=".2"><clipPath id="G"><path d="M181.303 9.593H312.98v129.774H181.303z"/></clipPath><g clip-path="url(#G)"><path d="M311.98 74.48c0 35.284-29.029 63.887-64.839 63.887-35.809 0-64.838-28.603-64.838-63.887s29.029-63.887 64.838-63.887c35.81 0 64.839 28.603 64.839 63.887z" fill="none" stroke="#fff" stroke-width="2" stroke-miterlimit="10"/></g></g><g opacity=".1"><clipPath id="H"><path d="M171.887.315h150.509v148.33H171.887z"/></clipPath><g clip-path="url(#H)"><path d="M321.397 74.48c0 40.408-33.245 73.165-74.255 73.165s-74.255-32.757-74.255-73.165c0-40.408 33.245-73.165 74.255-73.165s74.255 32.757 74.255 73.165z" fill="none" stroke="#fff" stroke-width="2" stroke-miterlimit="10"/></g></g><g opacity=".6"><clipPath id="I"><path d="M132.229 127.286h95.844v94.467h-95.844z"/></clipPath><g clip-path="url(#I)"><path d="M227.073 174.52c0 25.534-21.008 46.233-46.922 46.233-25.915 0-46.922-20.699-46.922-46.233 0-25.534 21.007-46.233 46.922-46.233 25.914 0 46.922 20.699 46.922 46.233z" fill="none" stroke="#fff" stroke-width="2" stroke-miterlimit="10"/></g></g><g opacity=".4"><clipPath id="J"><path d="M123.288 118.476h113.726v112.086H123.288z"/></clipPath><g clip-path="url(#J)"><path d="M236.014 174.52c0 30.399-25.011 55.043-55.863 55.043s-55.863-24.644-55.863-55.043 25.011-55.043 55.863-55.043 55.863 24.644 55.863 55.043z" fill="none" stroke="#fff" stroke-width="2" stroke-miterlimit="10"/></g></g><g opacity=".2"><clipPath id="K"><path d="M114.312 109.633h131.677v129.773H114.312z"/></clipPath><g clip-path="url(#K)"><path d="M244.99 174.52c0 35.284-29.029 63.887-64.839 63.887-35.809 0-64.838-28.603-64.838-63.887s29.029-63.887 64.838-63.887c35.81 0 64.839 28.603 64.839 63.887z" fill="none" stroke="#fff" stroke-width="2" stroke-miterlimit="10"/></g></g><g opacity=".1"><clipPath id="L"><path d="M104.896 100.355h150.51v148.329h-150.51z"/></clipPath><g clip-path="url(#L)"><path d="M254.406 174.52c0 40.408-33.245 73.165-74.255 73.165s-74.255-32.757-74.255-73.165c0-40.408 33.245-73.165 74.255-73.165s74.255 32.757 74.255 73.165z" fill="none" stroke="#fff" stroke-width="2" stroke-miterlimit="10"/></g></g><g opacity=".6"><clipPath id="M"><path d="M27.333 244.883h93.578v94.467H27.333z"/></clipPath><g clip-path="url(#M)"><path d="M119.911 294.23c0 25.534-18.742 44.12-44.656 44.12-25.914 0-46.922-20.7-46.922-46.234 0-25.534 21.008-46.233 46.922-46.233 25.914 0 44.656 22.813 44.656 48.347z" fill="none" stroke="#fff" stroke-width="2" stroke-miterlimit="10"/></g></g><g opacity=".4"><clipPath id="N"><path d="M18.392 236.074h113.726V348.16H18.392z"/></clipPath><g clip-path="url(#N)"><path d="M131.118 292.117c0 30.399-25.011 55.043-55.863 55.043s-55.863-24.644-55.863-55.043 25.011-55.043 55.863-55.043 55.863 24.644 55.863 55.043z" fill="none" stroke="#fff" stroke-width="2" stroke-miterlimit="10"/></g></g><g opacity=".2"><clipPath id="O"><path d="M9.416 227.23h131.678v129.773H9.416z"/></clipPath><g clip-path="url(#O)"><path d="M140.094 292.117c0 35.284-29.029 63.887-64.839 63.887-35.809 0-64.838-28.603-64.838-63.887s29.029-63.887 64.838-63.887c35.81 0 64.839 28.603 64.839 63.887z" fill="none" stroke="#fff" stroke-width="2" stroke-miterlimit="10"/></g></g><g opacity=".1"><clipPath id="P"><path d="M0 217.952h150.51v148.329H0z"/></clipPath><g clip-path="url(#P)"><path d="M149.51 292.117c0 40.408-33.245 73.165-74.255 73.165S1 332.525 1 292.117c0-40.408 33.245-73.165 74.255-73.165s74.255 32.757 74.255 73.165z" fill="none" stroke="#fff" stroke-width="2" stroke-miterlimit="10"/></g></g><g opacity=".6"><clipPath id="Q"><path d="M97.3 351.26h95.844v94.467H97.3z"/></clipPath><g clip-path="url(#Q)"><path d="M192.145 398.494c0 25.534-21.008 46.233-46.922 46.233-25.915 0-46.922-20.699-46.922-46.233 0-25.534 21.007-46.233 46.922-46.233 25.914 0 46.922 20.699 46.922 46.233z" fill="none" stroke="#fff" stroke-width="2" stroke-miterlimit="10"/></g></g><g opacity=".4"><clipPath id="R"><path d="M88.359 342.451h113.726v112.086H88.359z"/></clipPath><g clip-path="url(#R)"><path d="M201.085 398.494c0 30.399-25.011 55.043-55.863 55.043s-55.863-24.644-55.863-55.043 25.011-55.043 55.863-55.043 55.863 24.644 55.863 55.043z" fill="none" stroke="#fff" stroke-width="2" stroke-miterlimit="10"/></g></g><g opacity=".2"><clipPath id="S"><path d="M79.384 333.607h131.677V463.38H79.384z"/></clipPath><g clip-path="url(#S)"><path d="M210.061 398.494c0 35.284-29.029 63.887-64.839 63.887-35.809 0-64.838-28.603-64.838-63.887 0-35.283 29.029-63.886 64.838-63.886 35.81 0 64.839 28.603 64.839 63.886z" fill="none" stroke="#fff" stroke-width="2" stroke-miterlimit="10"/></g></g><g opacity=".1"><clipPath id="T"><path d="M69.967 324.329h150.51v148.329H69.967z"/></clipPath><g clip-path="url(#T)"><path d="M219.477 398.494c0 40.408-33.245 73.165-74.255 73.165s-74.255-32.757-74.255-73.165c0-40.408 33.245-73.165 74.255-73.165s74.255 32.757 74.255 73.165z" fill="none" stroke="#fff" stroke-width="2" stroke-miterlimit="10"/></g></g><g opacity=".6"><clipPath id="U"><path d="M416.32 356.275h95.844v94.466H416.32z"/></clipPath><g clip-path="url(#U)"><path d="M511.164 403.508c0 25.534-21.008 46.233-46.922 46.233-25.915 0-46.922-20.699-46.922-46.233 0-25.534 21.007-46.233 46.922-46.233 25.914 0 46.922 20.699 46.922 46.233z" fill="none" stroke="#fff" stroke-width="2" stroke-miterlimit="10"/></g></g><g opacity=".4"><clipPath id="V"><path d="M407.379 347.465h113.726v112.086H407.379z"/></clipPath><g clip-path="url(#V)"><path d="M520.105 403.508c0 30.399-25.011 55.043-55.863 55.043-30.853 0-55.863-24.644-55.863-55.043s25.01-55.043 55.863-55.043c30.852 0 55.863 24.644 55.863 55.043z" fill="none" stroke="#fff" stroke-width="2" stroke-miterlimit="10"/></g></g><g opacity=".2"><clipPath id="W"><path d="M398.403 338.621h131.678v129.774H398.403z"/></clipPath><g clip-path="url(#W)"><path d="M529.081 403.508c0 35.284-29.029 63.887-64.839 63.887-35.809 0-64.838-28.603-64.838-63.887s29.029-63.887 64.838-63.887c35.81 0 64.839 28.603 64.839 63.887z" fill="none" stroke="#fff" stroke-width="2" stroke-miterlimit="10"/></g></g><g opacity=".1"><clipPath id="X"><path d="M388.987 329.343h150.51v148.33h-150.51z"/></clipPath><g clip-path="url(#X)"><path d="M538.497 403.508c0 40.408-33.245 73.165-74.255 73.165s-74.255-32.757-74.255-73.165c0-40.408 33.245-73.165 74.255-73.165s74.255 32.757 74.255 73.165z" fill="none" stroke="#fff" stroke-width="2" stroke-miterlimit="10"/></g></g><path d="M520.879 259.542c0 21.452-17.649 38.841-39.42 38.841s-39.42-17.389-39.42-38.841c0-21.451 17.649-38.841 39.42-38.841s39.42 17.39 39.42 38.841" fill="#b3ff30" fill-rule="nonzero"/><clipPath id="Y"><path d="M442.038 259.542c0 21.451 17.65 38.841 39.421 38.841s39.42-17.39 39.42-38.841c0-21.452-17.649-38.842-39.42-38.842s-39.421 17.39-39.421 38.842z"/></clipPath><g clip-path="url(#Y)"><path d="M481.458 240.823l-18.463 9.889v13.856s3.654 8.12 18.463 8.12c14.809 0 18.463-8.12 18.463-8.12v-13.856l-18.463-9.889z" fill="#8c4054" fill-rule="nonzero"/><path d="M465.18 250.732c-.857.204-1.154 1.987-.664 3.983.49 1.995 1.581 3.448 2.438 3.243.856-.204 1.153-1.987.664-3.982-.49-1.996-1.581-3.448-2.438-3.244m32.557 0c-.857-.204-1.948 1.248-2.438 3.244-.49 1.995-.192 3.778.664 3.982.857.205 1.948-1.248 2.438-3.243.49-1.996.192-3.779-.664-3.983m-20.139 15.063h7.72v9.498h-7.72z" fill="#edbba4" fill-rule="nonzero"/><path d="M491.265 273.387c-2.895-1.135-6.236-1.739-9.806-1.739-3.57 0-6.911.604-9.806 1.739.732 2.911 2.963 7.147 9.806 7.147 6.843 0 9.074-4.236 9.806-7.147" fill="#ffc9b0" fill-rule="nonzero"/><path d="M471.652 273.387v.001l.052-.018c-.016.006-.035.01-.052.017m19.612.002c-.733 2.911-2.964 7.145-9.806 7.145-6.841 0-9.072-4.234-9.805-7.145-6.004 2.348-10.057 7.012-10.057 13.523v11.471h39.725v-11.471c0-6.511-4.053-11.175-10.057-13.523m-.052-.019l.052.019.001-.002c-.017-.006-.036-.01-.053-.017" fill="#ff26d0" fill-rule="nonzero"/><path d="M496.154 251.208c0 8.968-6.579 16.239-14.695 16.239s-14.695-7.271-14.695-16.239c0-8.969 6.579-16.239 14.695-16.239s14.695 7.27 14.695 16.239" fill="#ffc9b0" fill-rule="nonzero"/><path d="M481.458 231.292c-13.41 0-18.463 10.974-18.463 17.005v4.943c10.883-1.492 18.463-12.143 18.463-12.143s7.58 10.651 18.463 12.143v-4.943c0-6.031-5.053-17.005-18.463-17.005" fill="#8c4054" fill-rule="nonzero"/><g opacity=".2"><clipPath id="Z"><path d="M461.596 231.292h19.862v67.091h-19.862z"/></clipPath><g clip-path="url(#Z)"><path d="M481.458 231.292c-13.41 0-18.463 10.974-18.463 17.005v16.272s2.681 5.938 12.726 7.655c-1.407.284-2.759.657-4.017 1.146-.016.007-.035.011-.052.017v.002c-6.004 2.349-10.056 7.013-10.056 13.524v11.47h19.862v-67.091z" fill="#fff" fill-rule="nonzero"/></g></g></g><path d="M520.879 259.542c0 21.452-17.649 38.841-39.42 38.841s-39.42-17.389-39.42-38.841c0-21.451 17.649-38.841 39.42-38.841s39.42 17.39 39.42 38.841z" fill="none" stroke="#fff" stroke-width="2" stroke-linecap="butt" stroke-linejoin="miter" stroke-miterlimit="10"/><path d="M219.571 174.52c0 21.451-17.649 38.841-39.42 38.841s-39.42-17.39-39.42-38.841c0-21.452 17.649-38.841 39.42-38.841s39.42 17.389 39.42 38.841" fill="#ff9121" fill-rule="nonzero"/><clipPath id="aa"><path d="M140.731 174.52c0 21.451 17.649 38.841 39.42 38.841s39.42-17.39 39.42-38.841c0-21.452-17.649-38.842-39.42-38.842s-39.42 17.39-39.42 38.842z"/></clipPath><g clip-path="url(#aa)"><path d="M163.763 164.199v3.8l3.797 3.341s-.207-8.975-.406-8.91c-.2.066-3.391 1.769-3.391 1.769m32.776 0v3.8l-3.797 3.341s.207-8.975.406-8.91c.2.066 3.391 1.769 3.391 1.769" fill="#825548" fill-rule="nonzero"/><path d="M163.873 165.71c-.857.204-1.154 1.987-.664 3.983.49 1.995 1.581 3.447 2.438 3.243.856-.204 1.154-1.987.664-3.982-.49-1.996-1.581-3.448-2.438-3.244m32.556 0c-.857-.204-1.948 1.248-2.438 3.244-.489 1.995-.192 3.778.664 3.982.857.204 1.948-1.248 2.438-3.243.49-1.996.193-3.779-.664-3.983m-20.138 15.062h7.72v9.498h-7.72z" fill="#edbba4" fill-rule="nonzero"/><path d="M194.846 166.185c0 8.968-6.579 16.239-14.695 16.239s-14.695-7.271-14.695-16.239c0-8.969 6.579-16.239 14.695-16.239s14.695 7.27 14.695 16.239" fill="#ffc9b0" fill-rule="nonzero"/><path d="M180.151 146.27c-11.951 0-16.455 10.508-16.455 16.282v2.314c9.7-1.428 16.455-10.066 16.455-10.066s6.755 8.638 16.455 10.066v-2.314c0-5.774-4.504-16.282-16.455-16.282" fill="#825548" fill-rule="nonzero"/><path d="M187.897 187.683c-2.382-.686-4.992-1.057-7.746-1.057-2.755 0-5.365.371-7.747 1.057 1.244 2.136 4.242 3.643 7.747 3.643s6.502-1.507 7.746-3.643" fill="#ffc9b0" fill-rule="nonzero"/><path d="M189.957 188.367v-.002l-.052-.017a23.046 23.046 0 0 0-2.057-.681c-1.269 2.148-4.231 3.659-7.697 3.659-3.465 0-6.428-1.511-7.697-3.659-.705.201-1.395.423-2.057.681h.001l-.053.017.001.002c-6.004 2.348-10.057 7.013-10.057 13.523v11.471h39.725V201.89c0-6.51-4.053-11.175-10.057-13.523" fill="#52b6de" fill-rule="nonzero"/><g opacity=".2"><clipPath id="ab"><path d="M160.288 146.27h19.863v67.091h-19.863z"/></clipPath><g clip-path="url(#ab)"><path d="M180.151 146.27c-11.951 0-16.455 10.508-16.455 16.282v2.314c.023-.004.044-.01.067-.013v.912c-.767.333-1.021 2.025-.554 3.928.489 1.995 1.581 3.447 2.437 3.243.366-.087.622-.473.766-1.029 1.65 4.835 5.319 8.562 9.879 9.932v5.043c-1.33.176-2.613.439-3.835.788l-.002-.003c-.705.201-1.395.424-2.057.681-.017.007-.035.011-.052.017v.002c-6.004 2.348-10.057 7.013-10.057 13.524v11.47h19.863V146.27z" fill="#fff" fill-rule="nonzero"/></g></g></g><path d="M219.571 174.52c0 21.451-17.649 38.841-39.42 38.841s-39.42-17.39-39.42-38.841c0-21.452 17.649-38.841 39.42-38.841s39.42 17.389 39.42 38.841z" fill="none" stroke="#fff" stroke-width="2" stroke-linecap="butt" stroke-linejoin="miter" stroke-miterlimit="10"/><path d="M503.662 403.508c0 21.451-17.649 38.841-39.42 38.841s-39.42-17.39-39.42-38.841c0-21.452 17.649-38.841 39.42-38.841s39.42 17.389 39.42 38.841" fill="#29edff" fill-rule="nonzero"/><clipPath id="ac"><path d="M424.822 403.508c0 21.452 17.649 38.842 39.42 38.842 21.772 0 39.42-17.39 39.42-38.842 0-21.451-17.648-38.841-39.42-38.841-21.771 0-39.42 17.39-39.42 38.841z"/></clipPath><g clip-path="url(#ac)"><path d="M447.854 393.215v3.799l3.797 3.341s-.207-8.974-.406-8.909c-.2.066-3.391 1.769-3.391 1.769m32.777 0l-.001 3.799-3.797 3.341s.207-8.974.406-8.909c.2.066 3.391 1.769 3.391 1.769" fill="#7d3c30" fill-rule="nonzero"/><path d="M447.964 394.725c-.857.204-1.154 1.987-.664 3.983.49 1.995 1.581 3.447 2.438 3.243.856-.204 1.153-1.987.664-3.982-.49-1.996-1.581-3.448-2.438-3.244m32.556 0c-.856-.204-1.947 1.248-2.438 3.244-.489 1.995-.192 3.778.664 3.982.857.204 1.948-1.248 2.438-3.243.49-1.996.193-3.779-.663-3.983m-20.139 15.063h7.72v9.498h-7.72z" fill="#edbba4" fill-rule="nonzero"/><path d="M478.937 395.201c0 8.968-6.579 16.239-14.695 16.239s-14.695-7.271-14.695-16.239 6.579-16.239 14.695-16.239 14.695 7.271 14.695 16.239" fill="#ffc9b0" fill-rule="nonzero"/><path d="M464.242 375.285c-11.952 0-16.455 10.508-16.455 16.282v2.314c9.964-1.516 16.455-10.832 16.455-10.832s7.257 9.661 16.455 10.832v-2.314c0-5.774-4.504-16.282-16.455-16.282" fill="#7d3c30" fill-rule="nonzero"/><path d="M474.048 417.382v-.002l-.052-.017a23.046 23.046 0 0 0-2.057-.681l-.002.003c-2.368-.677-4.96-1.043-7.695-1.043-2.735 0-5.326.366-7.694 1.043l-.003-.003c-.705.201-1.395.423-2.057.681h.001l-.053.017.001.001c-6.004 2.349-10.057 7.013-10.057 13.525v11.47h39.725v-11.47c0-6.512-4.053-11.176-10.057-13.524" fill="#138a61" fill-rule="nonzero"/><path d="M452.723 394.131s3.45-1.166 10.214-.213h2.527s4.949-.75 10.248.213c0 0 .581 1.636.171 3.393-.41 1.757-.512 3.574-2.186 3.776-1.674.202-4.754.361-5.595 0 0 0-1.647-1.851-2.057-2.726-.41-.875-1.025-2.928-1.025-2.928h-1.4l-.683 1.211s-.958 3.645-2.555 4.342c-1.597.698-5.234.169-5.814.068-.581-.101-1.538-1.078-1.982-2.929-.444-1.851.137-4.207.137-4.207" fill="#dbfcff" fill-rule="nonzero"/><path d="M475.599 396.353c-.028.942-.338 2.938-.591 3.52-.253.582-.872 1.053-1.997 1.192s-2.616.194-3.798 0c-1.181-.194-1.603-.554-2.25-1.58s-1.468-3.383-.985-4.573c.338-.832 3.965-.996 5.092-.97 2.503.057 3.516.332 4.023.582.506.249.534.887.506 1.829m-14.077 3.132c-.647 1.026-1.069 1.386-2.251 1.58-1.181.194-2.672.139-3.797 0-1.126-.139-1.745-.61-1.998-1.192-.253-.582-.562-2.578-.591-3.52-.028-.942 0-1.58.507-1.829.506-.25 1.52-.525 4.022-.582 1.127-.026 4.755.138 5.092.97.483 1.19-.337 3.547-.984 4.573m14.901-6.042c-.704-.083-4.529-.333-6.442-.333-1.913 0-3.215.208-5.739.283-2.524-.075-3.826-.283-5.739-.283-1.912 0-5.738.25-6.441.333-.704.083-1.14.138-1.14.637s.183 1.885.183 1.885c1.041.499.929 2.162 1.266 3.326.338 1.164.591 1.691 1.772 2.217 1.182.527 3.601.444 4.642.388 1.041-.055 1.969-.332 2.644-1.191.675-.86 1.575-2.828 1.772-3.41.359-1.06.507-1.302 1.041-1.302.535 0 .682.242 1.041 1.302.197.582 1.097 2.55 1.772 3.41.675.859 1.604 1.136 2.645 1.191 1.04.056 3.46.139 4.641-.388 1.182-.526 1.435-1.053 1.772-2.217.338-1.164.225-2.827 1.266-3.326 0 0 .184-1.386.184-1.885 0-.499-.437-.554-1.14-.637" fill="#3b352e" fill-rule="nonzero"/><path d="M452.043 394.545a.445.445 0 0 1-.448.441h-2.389a.444.444 0 0 1-.447-.441c0-.244.2-.441.447-.441h2.389c.246 0 .447.197.447.441m27.684 0a.445.445 0 0 1-.448.441h-2.388a.444.444 0 0 1-.448-.441c0-.244.2-.441.448-.441h2.388c.247 0 .448.197.448.441" fill="#3b352e" fill-rule="nonzero"/><path d="M464.242 415.668l-4.181 5.466-3.886-4.493 3.259-2.563 4.808 1.59zm0 0l4.181 5.466 3.886-4.493-3.259-2.563-4.808 1.59z" fill="#b6f089" fill-rule="nonzero"/><path d="M464.89 381.232s-1.938 7.248-7.279 11.279c0 0 3.305-3.352 1.181-6.693l6.098-4.586z" fill="#7d3c30" fill-rule="nonzero"/><g opacity=".2"><clipPath id="ad"><path d="M444.38 375.286h19.844v67.09H444.38z"/></clipPath><g clip-path="url(#ad)"><path d="M464.225 375.286c-11.938.011-16.438 10.51-16.438 16.281v2.314l.067-.014v.913c-.767.333-1.022 2.025-.554 3.928.49 1.995 1.582 3.447 2.438 3.243.365-.087.621-.473.765-1.028 1.65 4.834 5.319 8.561 9.88 9.931v3.538l-.95-.314-3.257 2.563.108.127c-.612.181-1.218.37-1.796.595l-.052.017v.002c-6.004 2.349-10.057 7.013-10.057 13.524v11.47h19.846v-67.09z" fill="#fff" fill-rule="nonzero"/></g></g></g><path d="M503.662 403.508c0 21.451-17.649 38.841-39.42 38.841s-39.42-17.39-39.42-38.841c0-21.452 17.649-38.841 39.42-38.841s39.42 17.389 39.42 38.841z" fill="none" stroke="#fff" stroke-width="2" stroke-linecap="butt" stroke-linejoin="miter" stroke-miterlimit="10"/><path d="M434.827 135.796c0 21.452-17.649 38.841-39.42 38.841s-39.42-17.389-39.42-38.841c0-21.451 17.649-38.841 39.42-38.841s39.42 17.39 39.42 38.841" fill="#f74f5a" fill-rule="nonzero"/><clipPath id="ae"><path d="M355.987 135.796c0 21.452 17.649 38.842 39.42 38.842s39.42-17.39 39.42-38.842c0-21.451-17.649-38.841-39.42-38.841s-39.42 17.39-39.42 38.841z"/></clipPath><g clip-path="url(#ae)"><path d="M379.019 124.505v4.516l3.797 3.971s-.207-10.667-.406-10.589c-.2.078-3.391 2.102-3.391 2.102m32.777 0v4.516l-3.797 3.971s.207-10.667.406-10.589c.2.078 3.391 2.102 3.391 2.102" fill="#544747" fill-rule="nonzero"/><path d="M379.129 127.362c-.856.204-1.154 1.987-.664 3.983.49 1.995 1.581 3.447 2.438 3.243.856-.204 1.154-1.987.664-3.982-.49-1.996-1.581-3.448-2.438-3.244m32.557 0c-.857-.204-1.948 1.248-2.438 3.244-.49 1.995-.192 3.778.663 3.982.857.204 1.948-1.248 2.438-3.243.49-1.996.193-3.779-.663-3.983m-20.139 15.063h7.72v9.498h-7.72z" fill="#edbba4" fill-rule="nonzero"/><path d="M410.102 127.838c0 8.968-6.579 16.239-14.695 16.239s-14.696-7.271-14.696-16.239c0-8.969 6.58-16.239 14.696-16.239s14.695 7.27 14.695 16.239" fill="#ffc9b0" fill-rule="nonzero"/><path d="M405.213 150.02l.001-.002-.053-.017a23.132 23.132 0 0 0-2.056-.681l-.003.003c-2.368-.677-4.96-1.044-7.695-1.044-2.734 0-5.326.367-7.694 1.044l-.003-.003c-.705.201-1.395.423-2.057.681h.001l-.053.017.001.002c-6.004 2.348-10.057 7.012-10.057 13.523v11.471h39.725v-11.471c0-6.511-4.053-11.175-10.057-13.523" fill="#51576b" fill-rule="nonzero"/><path d="M395.407 107.527c-11.238 0-16.388 6.385-16.388 13.553v5.437c2.953.509 5.231-4.115 5.231-4.115.568 2.554 2.842 4.115 2.842 4.115-.682-3.075 1.705-7.341 1.705-7.341-.114 2.912 1.478 6.385 1.478 6.385.455-2.689 5.132-8.341 5.132-8.341s4.677 5.652 5.132 8.341c0 0 1.591-3.473 1.478-6.385 0 0 2.387 4.266 1.705 7.341 0 0 2.274-1.561 2.842-4.115 0 0 2.278 4.624 5.231 4.115v-5.437c0-7.168-5.15-13.553-16.388-13.553" fill="#544747" fill-rule="nonzero"/><path fill="#626a82" fill-rule="nonzero" d="M390.733 144.646h9.349v4.007h-9.349z"/><path d="M390.087 135.277c-3.155 2.103-4.521-.673-4.521-.673s2.753 6.61 9.841 2.652v-3.092s-2.166-.99-5.32 1.113m10.64 0c-3.154-2.103-5.32-1.113-5.32-1.113v3.092c7.088 3.958 9.842-2.652 9.842-2.652s-1.367 2.776-4.522.673" fill="#544747" fill-rule="nonzero"/><g opacity=".2"><clipPath id="af"><path d="M375.545 107.527h19.862v67.486h-19.862z"/></clipPath><g clip-path="url(#af)"><path d="M395.407 107.527c-11.238 0-16.388 6.385-16.388 13.553v6.337c-.767.333-1.021 2.025-.554 3.928.489 1.995 1.581 3.447 2.437 3.243.366-.087.622-.473.766-1.029 1.65 4.835 5.319 8.562 9.879 9.932v1.155h-.815v4.007h.074a26.808 26.808 0 0 0-3.094.669l-.002-.003c-.705.201-1.395.423-2.057.681l-.052.017v.002c-6.004 2.348-10.056 7.012-10.056 13.524v11.47h19.862v-67.486z" fill="#fff" fill-rule="nonzero"/></g></g></g><path d="M434.827 135.796c0 21.452-17.649 38.841-39.42 38.841s-39.42-17.389-39.42-38.841c0-21.451 17.649-38.841 39.42-38.841s39.42 17.39 39.42 38.841z" fill="none" stroke="#fff" stroke-width="2" stroke-linecap="butt" stroke-linejoin="miter" stroke-miterlimit="10"/><path d="M348.264 460.667c0 21.452-17.649 38.841-39.42 38.841s-39.42-17.389-39.42-38.841c0-21.451 17.649-38.841 39.42-38.841s39.42 17.39 39.42 38.841" fill="#ff6efa" fill-rule="nonzero"/><clipPath id="ag"><path d="M269.424 460.667c0 21.451 17.649 38.841 39.42 38.841s39.42-17.39 39.42-38.841c0-21.452-17.649-38.842-39.42-38.842s-39.42 17.39-39.42 38.842z"/></clipPath><g clip-path="url(#ag)"><path d="M326.697 460.682v-8.016l-17.853-.468-17.854.468v8.016c0 8.992-4.366 10.436-8.188 8.893 0 0 3.185 11.864 26.042 11.864 22.856 0 26.041-11.864 26.041-11.864-3.822 1.543-8.188.099-8.188-8.893" fill="#a84126" fill-rule="nonzero"/><path d="M292.566 452.218c-.856.204-1.154 1.987-.664 3.983.49 1.995 1.581 3.447 2.438 3.243.856-.204 1.154-1.987.664-3.982-.49-1.996-1.581-3.448-2.438-3.244m32.556 0c-.857-.204-1.948 1.248-2.438 3.244-.49 1.995-.192 3.778.664 3.982.857.204 1.948-1.248 2.438-3.243.49-1.996.193-3.779-.664-3.983m-20.138 15.063h7.72v9.498h-7.72z" fill="#edbba4" fill-rule="nonzero"/><path d="M323.539 452.694c0 8.968-6.579 16.239-14.695 16.239s-14.695-7.271-14.695-16.239 6.579-16.239 14.695-16.239 14.695 7.271 14.695 16.239" fill="#ffc9b0" fill-rule="nonzero"/><path d="M318.65 474.875l.001-.002-.053-.017a23.046 23.046 0 0 0-2.057-.681l-.002.003c-2.368-.677-4.96-1.044-7.695-1.044-2.735 0-5.326.367-7.694 1.044l-.003-.003c-.705.201-1.395.423-2.057.681h.001l-.053.017.001.002c-6.004 2.348-10.057 7.012-10.057 13.523v11.471h39.725v-11.471c0-6.511-4.053-11.175-10.057-13.523" fill="#00e0a5" fill-rule="nonzero"/><path d="M308.844 432.964c-14.139 0-17.853 8.053-17.853 15.599v8.011c3.417-1.626 6.127-8.359 6.127-8.359.353 3.345-2.693 7.616-2.693 7.616 5.319-3.53 8.584-8.661 8.584-8.661-.235 4.992-3.77 8.661-3.77 8.661 7.187-5.503 9.605-13.157 9.605-13.157s2.418 7.654 9.605 13.157c0 0-3.535-3.669-3.77-8.661 0 0 3.265 5.131 8.585 8.661 0 0-3.047-4.271-2.694-7.616 0 0 2.71 6.733 6.127 8.359v-8.011c0-7.546-3.714-15.599-17.853-15.599" fill="#a84126" fill-rule="nonzero"/><path d="M308.844 473.135s-1.121 4.93-5.847 5.522c-4.913.616-5.846-3.244-5.846-3.244l6.349-4.287 5.344 2.009zm0 0s1.121 4.93 5.847 5.522c4.913.616 5.846-3.244 5.846-3.244l-6.349-4.287-5.344 2.009z" fill="#1ea600" fill-rule="nonzero"/><g opacity=".2"><clipPath id="ah"><path d="M282.802 432.964h26.042v66.905h-26.042z"/></clipPath><g clip-path="url(#ah)"><path d="M288.982 499.869h19.862v-66.905c-14.139 0-17.853 8.053-17.853 15.599v12.119c0 8.992-4.367 10.436-8.188 8.893 0 0 1.539 5.708 10.109 9.206-2.464 2.475-3.93 5.711-3.93 9.618v11.47z" fill="#fff" fill-rule="nonzero"/></g></g></g><path d="M348.264 460.667c0 21.452-17.649 38.841-39.42 38.841s-39.42-17.389-39.42-38.841c0-21.451 17.649-38.841 39.42-38.841s39.42 17.39 39.42 38.841z" fill="none" stroke="#fff" stroke-width="2" stroke-linecap="butt" stroke-linejoin="miter" stroke-miterlimit="10"/><path d="M286.562 74.48c0 21.451-17.649 38.841-39.42 38.841s-39.42-17.39-39.42-38.841 17.649-38.841 39.42-38.841 39.42 17.39 39.42 38.841" fill="#14c4ff" fill-rule="nonzero"/><clipPath id="ai"><path d="M207.722 74.48c0 21.452 17.649 38.841 39.42 38.841s39.42-17.389 39.42-38.841c0-21.451-17.649-38.841-39.42-38.841s-39.42 17.39-39.42 38.841z"/></clipPath><g clip-path="url(#ai)" fill-rule="nonzero"><path d="M228.589 65.53s-5.358 9.423.708 11.288c0 0-3.819 6.074 2.126 8.254 4.769 1.748 6.595-1.076 6.595-1.076s9.559 3.295 7.386-7.069c-1.97-9.393-16.815-11.397-16.815-11.397m37.106 0s5.358 9.423-.707 11.288c0 0 3.818 6.074-2.127 8.254-4.769 1.748-6.595-1.076-6.595-1.076s-9.559 3.295-7.386-7.069c1.97-9.393 16.815-11.397 16.815-11.397" fill="#7d450b"/><path d="M230.864 66.374c-.857.204-1.154 1.987-.664 3.983.49 1.995 1.581 3.447 2.438 3.243.856-.204 1.153-1.987.664-3.982-.49-1.996-1.582-3.448-2.438-3.244m32.556 0c-.857-.204-1.948 1.248-2.438 3.244-.49 1.995-.192 3.778.664 3.982.857.204 1.948-1.248 2.438-3.243.49-1.996.193-3.779-.664-3.983m-20.138 15.062h7.72v9.498h-7.72z" fill="#edbba4"/><path d="M261.837 66.85c0 8.969-6.579 16.239-14.695 16.239s-14.695-7.27-14.695-16.239c0-8.968 6.579-16.239 14.695-16.239s14.695 7.271 14.695 16.239" fill="#ffc9b0"/><path d="M264.32 62.371s.878-10.782-5.558-11.856c0 0-1.888-6.723-11.62-3.58-9.733-3.143-11.621 3.58-11.621 3.58-6.435 1.074-5.558 11.856-5.558 11.856-2.157-.305-3.219 3.309-1.448 4.479 5.976 3.948 10.922-4.174 10.922-4.174 7.007 1.116 7.705-4.772 7.705-4.772s.698 5.888 7.705 4.772c0 0 4.945 8.122 10.922 4.174 1.77-1.17.709-4.784-1.449-4.479" fill="#7d450b"/><path d="M258.219 94.566v-4.984c-.414-.194-.836-.38-1.271-.551l.001-.001c-.017-.007-.036-.011-.053-.018a23.263 23.263 0 0 0-2.057-.681l-.002.003c-2.368-.677-4.96-1.043-7.695-1.043-2.734 0-5.326.367-7.694 1.043l-.003-.003c-.705.201-1.395.424-2.057.681h.001c-.017.007-.036.011-.053.018l.001.001c-.436.171-.857.357-1.271.551v4.984l11.076 7.517 11.077-7.517z" fill="#ffc9b0"/><path d="M258.219 89.582v4.984l-11.077 7.517-11.076-7.517v-4.984c-5.296 2.487-8.786 6.934-8.786 12.973v11.47h39.725v-11.47c0-5.979-3.417-10.4-8.624-12.901l-.162-.072z" fill="#e8b817"/><path d="M227.28 102.555v11.47h19.862V46.934c-9.732-3.142-11.62 3.581-11.62 3.581-6.436 1.074-5.558 11.856-5.558 11.856-1.961-.277-3.009 2.678-1.856 4.098-1.165 2.428-3.702 8.844 1.189 10.349 0 0-3.818 6.074 2.127 8.253 4.769 1.749 6.595-1.075 6.595-1.075s3.006 1.035 5.263.118v3.432a26.769 26.769 0 0 0-3.834.789l-.003-.004c-.706.202-1.395.424-2.057.681-.017.007-.036.011-.053.018l.002.002c-.437.17-.858.356-1.272.55-5.296 2.487-8.786 6.934-8.786 12.973" fill="#fff" opacity=".2"/></g><path d="M286.562 74.48c0 21.451-17.649 38.841-39.42 38.841s-39.42-17.39-39.42-38.841 17.649-38.841 39.42-38.841 39.42 17.39 39.42 38.841z" fill="none" stroke="#fff" stroke-width="2" stroke-linecap="butt" stroke-linejoin="miter" stroke-miterlimit="10"/><path d="M114.675 292.117c0 21.452-17.649 38.841-39.42 38.841s-39.42-17.389-39.42-38.841c0-21.451 17.649-38.841 39.42-38.841s39.42 17.39 39.42 38.841" fill="#00a4db" fill-rule="nonzero"/><clipPath id="aj"><path d="M35.835 292.116c0 21.452 17.649 38.842 39.42 38.842s39.42-17.39 39.42-38.842c0-21.451-17.649-38.841-39.42-38.841s-39.42 17.39-39.42 38.841z"/></clipPath><g clip-path="url(#aj)"><path d="M57.778 283.335v15.593c0 8.217 7.825 14.878 17.477 14.878 9.652 0 17.477-6.661 17.477-14.878v-15.593H57.778z" fill="#825548" fill-rule="nonzero"/><path d="M58.977 283.354c-.857.204-1.154 1.987-.664 3.983.49 1.995 1.581 3.447 2.438 3.243.856-.204 1.154-1.987.664-3.982-.49-1.996-1.581-3.448-2.438-3.244m32.556 0c-.857-.204-1.948 1.248-2.438 3.244-.49 1.995-.192 3.778.664 3.982.857.204 1.948-1.248 2.438-3.243.49-1.996.193-3.779-.664-3.983m-20.138 15.062h7.72v9.498h-7.72z" fill="#edbba4" fill-rule="nonzero"/><path d="M89.95 283.83c0 8.969-6.579 16.238-14.695 16.238S60.56 292.799 60.56 283.83s6.579-16.239 14.695-16.239 14.695 7.27 14.695 16.239" fill="#ffc9b0" fill-rule="nonzero"/><path d="M75.255 263.914c-12.693 0-17.477 12.389-17.477 19.198v2.728c10.302-1.684 17.477-13.42 17.477-13.42s7.175 11.736 17.477 13.42v-2.728c0-6.809-4.784-19.198-17.477-19.198" fill="#825548" fill-rule="nonzero"/><path d="M85.061 306.011v-.002c-.016-.007-.035-.011-.052-.017a23.046 23.046 0 0 0-2.057-.681l-.002.003c-2.368-.677-4.96-1.043-7.695-1.043-2.735 0-5.326.366-7.694 1.043l-.003-.003c-.705.201-1.395.423-2.057.681h.001c-.017.006-.036.01-.053.017l.001.001c-6.004 2.349-10.057 7.013-10.057 13.525v11.47h39.725v-11.47c0-6.512-4.053-11.176-10.057-13.524" fill="#ffc9b0" fill-rule="nonzero"/><path fill="#b142ff" fill-rule="nonzero" d="M62.366 310.901h25.777v20.104H62.366z"/><path d="M83.889 310.471c0 3.504-3.866 6.345-8.634 6.345-4.769 0-8.634-2.841-8.634-6.345 0-3.504 3.865-6.345 8.634-6.345 4.768 0 8.634 2.841 8.634 6.345" fill="#ffc9b0" fill-rule="nonzero"/><path d="M65.501 305.916l-.052.017v.002a19.827 19.827 0 0 0-3.083 1.524v23.546h4.255v-25.461c-.375.122-.76.231-1.12.372m19.56.019v-.002l-.052-.017c-.36-.141-.745-.25-1.12-.372v25.461h4.255v-23.546a19.783 19.783 0 0 0-3.083-1.524" fill="#b142ff" fill-rule="nonzero"/><g opacity=".2"><clipPath id="ak"><path d="M55.393 263.914h19.862v67.091H55.393z"/></clipPath><g clip-path="url(#ak)"><path d="M57.778 283.112v15.815c0 3.461 1.4 6.638 3.728 9.165-3.765 2.609-6.114 6.49-6.114 11.442v11.471h19.863v-67.091c-12.693 0-17.477 12.389-17.477 19.198" fill="#fff" fill-rule="nonzero"/></g></g></g><path d="M114.675 292.117c0 21.452-17.649 38.841-39.42 38.841s-39.42-17.389-39.42-38.841c0-21.451 17.649-38.841 39.42-38.841s39.42 17.39 39.42 38.841z" fill="none" stroke="#fff" stroke-width="2" stroke-linecap="butt" stroke-linejoin="miter" stroke-miterlimit="10"/><path d="M184.642 398.494c0 21.452-17.649 38.841-39.42 38.841s-39.42-17.389-39.42-38.841c0-21.451 17.649-38.841 39.42-38.841s39.42 17.39 39.42 38.841" fill="#00d9a3" fill-rule="nonzero"/><clipPath id="al"><path d="M105.802 398.494c0 21.451 17.649 38.841 39.42 38.841s39.42-17.39 39.42-38.841c0-21.452-17.649-38.842-39.42-38.842s-39.42 17.39-39.42 38.842z"/></clipPath><g clip-path="url(#al)"><path d="M128.834 388.174v3.799l3.797 3.342s-.207-8.975-.406-8.91c-.2.066-3.391 1.769-3.391 1.769m32.777 0v3.799l-3.797 3.342s.207-8.975.406-8.91c.2.066 3.391 1.769 3.391 1.769" fill="#8f3820" fill-rule="nonzero"/><path d="M128.944 389.684c-.856.204-1.154 1.987-.664 3.983.49 1.995 1.581 3.447 2.438 3.243.856-.204 1.154-1.987.664-3.982-.49-1.996-1.581-3.448-2.438-3.244m32.556 0c-.856-.204-1.947 1.248-2.438 3.244-.489 1.995-.192 3.778.664 3.982.858.204 1.948-1.248 2.438-3.243.49-1.996.194-3.779-.663-3.983m-20.139 15.063h7.72v9.498h-7.72z" fill="#edbba4" fill-rule="nonzero"/><path d="M159.917 390.16c0 8.969-6.579 16.239-14.695 16.239s-14.695-7.27-14.695-16.239c0-8.969 6.579-16.239 14.695-16.239s14.695 7.27 14.695 16.239" fill="#ffc9b0" fill-rule="nonzero"/><path d="M145.222 370.244c-11.951 0-16.455 10.507-16.455 16.282v2.313c9.7-1.428 16.455-10.065 16.455-10.065s6.755 8.637 16.455 10.065v-2.313c0-5.775-4.504-16.282-16.455-16.282" fill="#8f3820" fill-rule="nonzero"/><path d="M155.028 412.341v-.001c-.016-.007-.035-.012-.052-.018a23.375 23.375 0 0 0-2.057-.682c-1.269 2.149-4.231 3.66-7.697 3.66-3.465 0-6.428-1.511-7.697-3.659-.705.201-1.395.423-2.057.681h.001l-.053.017.001.002c-6.004 2.348-10.057 7.012-10.057 13.523v11.471h39.725v-11.471c0-6.511-4.053-11.175-10.057-13.523" fill="#212842" fill-rule="nonzero"/><path d="M152.969 411.657c-2.382-.686-4.992-1.056-7.746-1.056-2.755 0-5.365.37-7.747 1.056 1.244 2.136 4.242 3.644 7.747 3.644s6.502-1.508 7.746-3.644" fill="#ffc9b0" fill-rule="nonzero"/><path d="M145.222 403.441c-3.279 0-4.493-2.604-4.493-2.604 2.307.341 4.493 0 4.493 0s2.186.341 4.493 0c0 0-1.214 2.604-4.493 2.604m14.694-14.602s-1.093 8.63-5.586 10.958c0 0-2.55-3.437-9.108-2.058-6.558-1.379-9.108 2.058-9.108 2.058-4.493-2.328-5.586-10.958-5.586-10.958s-1.62 6.222 0 11.487c2.866 9.318 11.901 13.358 14.694 13.358 2.793 0 11.828-4.04 14.694-13.358 1.619-5.265 0-11.487 0-11.487" fill="#8f3820" fill-rule="nonzero"/><path d="M154.187 412.061c-.42-.143-.833-.296-1.268-.42-1.269 2.148-4.231 3.66-7.697 3.66s-6.428-1.512-7.697-3.66c-.434.124-.848.277-1.268.42v25.274h17.93v-25.274z" fill="#939bb8" fill-rule="nonzero"/><g opacity=".2"><clipPath id="am"><path d="M125.36 370.244h19.862v67.091H125.36z"/></clipPath><g clip-path="url(#am)"><path d="M145.222 370.244c-11.951 0-16.455 10.507-16.455 16.282v2.313c.023-.003.044-.009.067-.013v.913c-.767.332-1.021 2.025-.554 3.928.336 1.371.958 2.471 1.591 2.968.089 1.223.285 2.481.657 3.691 1.615 5.25 5.188 8.824 8.5 10.945a26.11 26.11 0 0 0-1.501.373l-.002-.003c-.435.124-.848.276-1.268.419-.261.09-.535.163-.789.262l-.052.017v.002c-6.004 2.348-10.057 7.012-10.057 13.523v11.471h19.863v-67.091z" fill="#fff" fill-rule="nonzero"/></g></g></g><path d="M184.642 398.494c0 21.452-17.649 38.841-39.42 38.841s-39.42-17.389-39.42-38.841c0-21.451 17.649-38.841 39.42-38.841s39.42 17.39 39.42 38.841z" fill="none" stroke="#fff" stroke-width="2" stroke-linecap="butt" stroke-linejoin="miter" stroke-miterlimit="10"/><path d="M160.136 202.367c0 5.249-4.318 9.504-9.645 9.504s-9.646-4.255-9.646-9.504 4.319-9.504 9.646-9.504c5.327 0 9.645 4.255 9.645 9.504" fill="#ff4549" fill-rule="nonzero"/><path d="M155.497 200.997h-3.648v-3.72c0-.755-.61-1.37-1.359-1.37s-1.358.615-1.358 1.37v3.72h-3.648c-.75 0-1.359.614-1.359 1.37 0 .755.609 1.369 1.359 1.369h3.648v3.721c0 .755.609 1.369 1.358 1.369.749 0 1.359-.614 1.359-1.369v-3.721h3.648c.749 0 1.359-.614 1.359-1.369 0-.756-.61-1.37-1.359-1.37" fill="#fff" fill-rule="nonzero"/><path d="M359.588 470.338c0 5.249-4.318 9.504-9.645 9.504s-9.646-4.255-9.646-9.504 4.319-9.504 9.646-9.504c5.327 0 9.645 4.255 9.645 9.504" fill="#ff4549" fill-rule="nonzero"/><path d="M354.949 468.968h-3.648v-3.721c0-.754-.61-1.369-1.359-1.369s-1.358.615-1.358 1.369v3.721h-3.648c-.75 0-1.359.614-1.359 1.37 0 .755.609 1.369 1.359 1.369h3.648v3.721c0 .755.609 1.369 1.358 1.369.749 0 1.359-.614 1.359-1.369v-3.721h3.648c.749 0 1.358-.614 1.358-1.369 0-.756-.609-1.37-1.358-1.37" fill="#fff" fill-rule="nonzero"/><path d="M530.304 253.743c0 5.249-4.318 9.504-9.645 9.504-5.328 0-9.646-4.255-9.646-9.504 0-5.25 4.318-9.505 9.646-9.505 5.327 0 9.645 4.255 9.645 9.505" fill="#ff4549" fill-rule="nonzero"/><path d="M520.658 247.903l1.541 4.367 4.691.094-3.739 2.793 1.359 4.425-3.852-2.64-3.851 2.64 1.358-4.425-3.739-2.793 4.691-.094 1.541-4.367zM461.4 90.1c0 1.277-1.051 2.313-2.348 2.313h-39.569c-1.297 0-2.348-1.036-2.348-2.313V69.733c0-1.277 1.051-2.313 2.348-2.313h39.569c1.297 0 2.348 1.036 2.348 2.313V90.1z" fill="#fff" fill-rule="nonzero"/><path d="M439.019 88.983l-9.947 13.721V88.003l9.947.98z" fill="#fff" fill-rule="nonzero"/><path d="M429.219 80.434c0 1.302-1.071 2.357-2.393 2.357-1.322 0-2.392-1.055-2.392-2.357 0-1.302 1.07-2.357 2.392-2.357 1.322 0 2.393 1.055 2.393 2.357m8.294 0c0 1.302-1.071 2.357-2.393 2.357-1.321 0-2.392-1.055-2.392-2.357 0-1.302 1.071-2.357 2.392-2.357 1.322 0 2.393 1.055 2.393 2.357m8.294 0c0 1.302-1.071 2.357-2.393 2.357-1.321 0-2.392-1.055-2.392-2.357 0-1.302 1.071-2.357 2.392-2.357 1.322 0 2.393 1.055 2.393 2.357m8.294 0c0 1.302-1.071 2.357-2.393 2.357-1.321 0-2.392-1.055-2.392-2.357 0-1.302 1.071-2.357 2.392-2.357 1.322 0 2.393 1.055 2.393 2.357" fill="#4296c9" fill-rule="nonzero"/><path d="M42.421 229.964c0 1.278 1.051 2.313 2.348 2.313h39.569c1.297 0 2.348-1.035 2.348-2.313v-20.367c0-1.277-1.051-2.313-2.348-2.313H44.769c-1.297 0-2.348 1.036-2.348 2.313v20.367z" fill="#fff" fill-rule="nonzero"/><path d="M64.802 228.847l9.947 13.721v-14.701l-9.947.98z" fill="#fff" fill-rule="nonzero"/><path d="M74.602 220.298c0 1.302 1.071 2.357 2.393 2.357 1.321 0 2.392-1.055 2.392-2.357 0-1.302-1.071-2.357-2.392-2.357-1.322 0-2.393 1.055-2.393 2.357m-8.294 0c0 1.302 1.071 2.357 2.393 2.357 1.321 0 2.392-1.055 2.392-2.357 0-1.302-1.071-2.357-2.392-2.357-1.322 0-2.393 1.055-2.393 2.357m-8.294 0c0 1.302 1.071 2.357 2.393 2.357 1.321 0 2.392-1.055 2.392-2.357 0-1.302-1.071-2.357-2.392-2.357-1.322 0-2.393 1.055-2.393 2.357m-8.294 0c0 1.302 1.071 2.357 2.393 2.357 1.321 0 2.392-1.055 2.392-2.357 0-1.302-1.071-2.357-2.392-2.357-1.322 0-2.393 1.055-2.393 2.357" fill="#4296c9" fill-rule="nonzero"/><path d="M150.488 87.049l1.873 4.678 4.747 1.845-4.747 1.845-1.873 4.678-1.872-4.678-4.748-1.845 4.748-1.845 1.872-4.678zM509.708 399.2c0 4.899-4.031 8.871-9.003 8.871s-9.003-3.972-9.003-8.871c0-4.899 4.031-8.871 9.003-8.871s9.003 3.972 9.003 8.871m32.457 0c0 4.899-4.031 8.871-9.003 8.871s-9.003-3.972-9.003-8.871c0-4.899 4.031-8.871 9.003-8.871s9.003 3.972 9.003 8.871" fill="#fff" fill-rule="nonzero"/><path d="M523.074 388.11c0 6.567-5.404 11.893-12.07 11.893s-12.07-5.326-12.07-11.894c0-6.567 5.404-11.893 12.07-11.893s12.07 5.326 12.07 11.894" fill="#fff" fill-rule="nonzero"/><path d="M535.28 391.985c0 5.461-4.493 9.888-10.036 9.888-5.542 0-10.035-4.427-10.035-9.888s4.493-9.888 10.035-9.888c5.543 0 10.036 4.427 10.036 9.888" fill="#fff" fill-rule="nonzero"/><path fill="#fff" fill-rule="nonzero" d="M500.705 397.796h32.657v10.275h-32.657zM116.618 158.158c0 4.899-4.031 8.871-9.003 8.871s-9.003-3.972-9.003-8.871c0-4.899 4.031-8.871 9.003-8.871s9.003 3.972 9.003 8.871m32.457 0c0 4.899-4.031 8.871-9.003 8.871s-9.003-3.972-9.003-8.871c0-4.899 4.031-8.871 9.003-8.871s9.003 3.972 9.003 8.871"/><path d="M129.985 147.067c0 6.568-5.404 11.893-12.07 11.893s-12.07-5.325-12.07-11.893c0-6.568 5.404-11.893 12.07-11.893s12.07 5.325 12.07 11.893" fill="#fff" fill-rule="nonzero"/><path d="M142.19 150.942c0 5.461-4.493 9.888-10.036 9.888-5.542 0-10.035-4.427-10.035-9.888s4.493-9.888 10.035-9.888c5.543 0 10.036 4.427 10.036 9.888" fill="#fff" fill-rule="nonzero"/><path fill="#fff" fill-rule="nonzero" d="M107.615 156.754h32.657v10.275h-32.657z"/><path d="M98.73 433.318c0 1.549-1.318 2.806-2.945 2.806H65.939c-1.626 0-2.945-1.257-2.945-2.806v-18.031c0-1.549 1.319-2.805 2.945-2.805h29.846c1.627 0 2.945 1.256 2.945 2.805v18.031z" fill="#006bad" fill-rule="nonzero"/><path d="M80.863 424.442l15.684-9.632a2.013 2.013 0 0 0-1.492-.663H66.67c-.594 0-1.123.259-1.491.663l15.684 9.632zm16.191 8.165c.003-.044.014-.087.014-.132v-16.248l-11.422 7.284 11.408 9.096zm-20.974-9.096l-11.422-7.284v16.248c0 .046.011.088.014.132l11.408-9.096z" fill="#fff" fill-rule="nonzero"/><path d="M84.717 424.022l-3.486 1.921a.767.767 0 0 1-.737 0l-3.487-1.921-11.975 9.598c.364.506.96.838 1.638.838h28.384c.678 0 1.274-.333 1.638-.838l-11.975-9.598z" fill="#fff" fill-rule="nonzero"/><path d="M289.606 83.56c-4.087 0-5.606 3.682-5.606 3.682s-1.519-3.682-5.606-3.682-4.788 3.567-4.788 5.408c0 5.064 10.394 11.393 10.394 11.393s10.394-6.329 10.394-11.393c0-1.841-.7-5.408-4.788-5.408" fill="#ff4549" fill-rule="nonzero"/><path d="M361.79 407.444c0 1.049.863 1.899 1.928 1.899h32.494c1.065 0 1.928-.85 1.928-1.899v-16.725c0-1.049-.863-1.899-1.928-1.899h-32.494c-1.065 0-1.928.85-1.928 1.899v16.725z" fill="#0bf" fill-rule="nonzero"/><path d="M380.17 406.527l8.168 11.268v-12.073l-8.168.805z" fill="#0bf" fill-rule="nonzero"/><path d="M376.439 414.775c0 1.049-.863 1.899-1.928 1.899h-32.494c-1.065 0-1.928-.85-1.928-1.899V398.05c0-1.049.863-1.899 1.928-1.899h32.494c1.065 0 1.928.85 1.928 1.899v16.725z" fill="#fff" fill-rule="nonzero"/><path d="M358.06 413.858l-8.168 11.268v-12.073l8.168.805z" fill="#fff" fill-rule="nonzero"/><path d="M160.379 306.142c0 1.219-1.003 2.207-2.24 2.207-1.237 0-2.24-.988-2.24-2.207 0-1.219 1.003-2.207 2.24-2.207 1.237 0 2.24.988 2.24 2.207" fill="#fff" fill-rule="nonzero" opacity=".8"/><path d="M183.15 272.72c0 5.256-4.324 9.516-9.658 9.516s-9.658-4.26-9.658-9.516 4.324-9.516 9.658-9.516 9.658 4.26 9.658 9.516" fill="#fff" fill-rule="nonzero"/><path d="M183.15 276.158v-3.438h-19.316v3.889c0 8.82-6.792 9.622-8.506 8.314 0 0 2.156 6.698 12.937 6.698 7.506 0 14.885-7.244 14.885-15.463" fill="#fff" fill-rule="nonzero"/><path d="M181.921 270.846l6.138 3.24-7.319 2.952 1.181-6.192z" fill="#fff" fill-rule="nonzero"/><path d="M178.16 272.72c0 2.035-1.675 3.685-3.74 3.685-2.066 0-3.74-1.65-3.74-3.685s1.674-3.685 3.74-3.685c2.065 0 3.74 1.65 3.74 3.685" fill="#0062a8" fill-rule="nonzero"/><path d="M168.137 274.223s-4.814 1.317-10.037-2.659c0 0-2.486 8.229 7.025 9.198l3.012-6.539zm338.228-81.457c0 2.913-2.397 5.276-5.354 5.276-2.958 0-5.355-2.363-5.355-5.276 0-2.914 2.397-5.276 5.355-5.276 2.957 0 5.354 2.362 5.354 5.276m24.923-9.952c0 2.914-2.397 5.276-5.354 5.276-2.958 0-5.355-2.362-5.355-5.276 0-2.914 2.397-5.276 5.355-5.276 2.957 0 5.354 2.362 5.354 5.276m0 19.903c0 2.914-2.397 5.276-5.354 5.276-2.958 0-5.355-2.362-5.355-5.276 0-2.914 2.397-5.276 5.355-5.276 2.957 0 5.354 2.362 5.354 5.276" fill="#fff" fill-rule="nonzero"/><path d="M501.397 193.856l-.774-1.88 24.924-9.952.773 1.88-24.923 9.952z" fill="#fff" fill-rule="nonzero"/><path d="M525.547 203.507l-24.923-9.952.773-1.88 24.924 9.952-.774 1.88zM87.48 108.609a.692.692 0 0 1-.61-.36L75.205 88.793a.538.538 0 0 1-.028-.06 13.665 13.665 0 0 1-1.724-6.631c0-7.621 6.293-13.82 14.027-13.82 7.734 0 14.027 6.199 14.027 13.82 0 2.312-.595 4.601-1.721 6.627a.538.538 0 0 1-.031.064L88.09 108.249a.692.692 0 0 1-.61.36" fill="#fff" fill-rule="nonzero"/><path d="M95.939 82.173c0 4.603-3.787 8.334-8.459 8.334-4.671 0-8.458-3.731-8.458-8.334s3.787-8.334 8.458-8.334c4.672 0 8.459 3.731 8.459 8.334" fill="#0062a8" fill-rule="nonzero"/><path d="M411.647 490.623a2.26 2.26 0 0 1-3.162 0l-.001-.001a2.181 2.181 0 0 1 0-3.116l16.804-16.557a2.26 2.26 0 0 1 3.162 0l.001.001a2.18 2.18 0 0 1 0 3.115l-16.804 16.558z" fill="#fff" fill-rule="nonzero"/><path d="M438.532 479.715c-5.241 5.164-13.737 5.164-18.978 0a13.086 13.086 0 0 1 0-18.699c5.241-5.164 13.737-5.164 18.978 0a13.086 13.086 0 0 1 0 18.699" fill="#fff" fill-rule="nonzero"/><path d="M436.371 477.586c-4.047 3.988-10.608 3.988-14.655 0a10.106 10.106 0 0 1 0-14.441c4.047-3.988 10.608-3.988 14.655 0a10.105 10.105 0 0 1 0 14.44" fill="#0062a8" fill-rule="nonzero"/><path d="M433.366 465.016a7.487 7.487 0 0 1 0 10.7" fill="none" stroke="#fff" stroke-width="3" stroke-miterlimit="10"/><path d="M409.473 495.103l-5.535-5.454 8.105-7.986 5.535 5.454-8.105 7.986zm-174.078 7.398c0 2.13-1.753 3.857-3.914 3.857h-29.512c-2.161 0-3.914-1.727-3.914-3.857v-29.078c0-2.13 1.753-3.857 3.914-3.857h29.512c2.161 0 3.914 1.727 3.914 3.857v29.078z" fill="#fff" fill-rule="nonzero"/><path d="M226.067 487.962c0 5.084-4.182 9.205-9.342 9.205-5.159 0-9.342-4.121-9.342-9.205 0-5.083 4.183-9.204 9.342-9.204 5.16 0 9.342 4.121 9.342 9.204" fill="#0062a8" fill-rule="nonzero"/><path d="M216.02 481.838c3.823 0 6.922 3.053 6.922 6.82" fill="none" stroke="#fff" stroke-width="3" stroke-miterlimit="10"/><path d="M229.038 487.962c0 6.7-5.513 12.132-12.313 12.132-6.8 0-12.312-5.432-12.312-12.132 0-6.7 5.512-12.132 12.312-12.132s12.313 5.432 12.313 12.132z" fill="none" stroke="#0062a8" stroke-width="2" stroke-linecap="butt" stroke-linejoin="miter" stroke-miterlimit="10"/><path d="M232.286 474.288c0 .656-.54 1.188-1.206 1.188h-4.57a1.197 1.197 0 0 1-1.205-1.188c0-.656.54-1.188 1.205-1.188h4.57c.666 0 1.206.532 1.206 1.188" fill="#0062a8" fill-rule="nonzero"/><path d="M210.517 466.597c1.437 0 2.602 1.148 2.602 2.564 0 1.416-1.165 2.564-2.602 2.564h-5.585c-1.437 0-2.602-1.148-2.602-2.565 0-1.415 1.165-2.563 2.602-2.563h5.585zm103.158-322.974c-.212 1.005-1.211 1.82-2.231 1.82-1.02 0-1.675-.815-1.464-1.82l5.758-27.303c.212-1.005 1.211-1.82 2.232-1.82 1.02 0 1.675.815 1.463 1.82l-5.758 27.303zm9.387 0c-.212 1.005-1.211 1.82-2.231 1.82-1.021 0-1.676-.815-1.464-1.82l5.758-27.303c.212-1.005 1.211-1.82 2.231-1.82 1.021 0 1.676.815 1.464 1.82l-5.758 27.303z" fill="#fff" fill-rule="nonzero"/><path d="M307.608 125.967c-1.02 0-1.676-.815-1.464-1.82.212-1.006 1.211-1.82 2.232-1.82h24.031c1.02 0 1.676.814 1.464 1.82-.212 1.005-1.211 1.82-2.232 1.82h-24.031zm-2.073 9.831c-1.02 0-1.675-.815-1.463-1.82.212-1.006 1.211-1.82 2.231-1.82h24.031c1.021 0 1.676.814 1.464 1.82-.212 1.005-1.211 1.82-2.231 1.82h-24.032zm13.109-113.541c0-1.145-.807-2.099-1.889-2.355 1.082-.257 1.889-1.211 1.889-2.356 0-1.341-1.104-2.429-2.465-2.429h-8.366c.496-1.355 1.19-3.326 1.784-5.276 1.058-3.476-.144-5.226-2.202-5.226-1.646 0-2.587 1.066-3.41 4.426-.823 3.36-3.704 7.763-5.527 9.037h-5.836v-2.111h-5.257v18.292h5.727v-2.103h4.249c2.528 0 3.175 1.952 4.233 1.952h14.605c1.361 0 2.465-1.088 2.465-2.429 0-1.146-.807-2.099-1.889-2.356 1.082-.256 1.889-1.21 1.889-2.355s-.807-2.099-1.889-2.356c1.082-.256 1.889-1.21 1.889-2.355m85.293 298.987c-3.368 0-6.535 1.381-8.917 3.89a1.893 1.893 0 0 0 0 2.582 1.672 1.672 0 0 0 2.452 0c1.727-1.818 4.023-2.82 6.465-2.82s4.739 1.002 6.466 2.82c.338.357.782.535 1.226.535.443 0 .887-.178 1.226-.535a1.895 1.895 0 0 0 0-2.582c-2.382-2.509-5.549-3.89-8.918-3.89m18.917-6.639c-5.053-5.322-11.771-8.251-18.917-8.251-7.145 0-13.863 2.929-18.916 8.25a1.895 1.895 0 0 0 0 2.582 1.67 1.67 0 0 0 2.452 0c4.398-4.63 10.245-7.18 16.464-7.18 6.22 0 12.067 2.55 16.465 7.18a1.68 1.68 0 0 0 1.226.536 1.68 1.68 0 0 0 1.226-.536 1.895 1.895 0 0 0 0-2.582" fill="#fff" fill-rule="nonzero"/><path d="M403.937 313.512c-5.33 0-10.34 2.186-14.109 6.155a1.895 1.895 0 0 0 0 2.582 1.673 1.673 0 0 0 2.452 0c3.114-3.28 7.254-5.085 11.657-5.085 4.404 0 8.544 1.805 11.657 5.085.339.356.783.534 1.226.534.444 0 .888-.178 1.226-.534a1.893 1.893 0 0 0 0-2.582c-3.768-3.969-8.779-6.155-14.109-6.155m3.267 19.742c0 1.777-1.462 3.218-3.266 3.218s-3.266-1.441-3.266-3.218 1.462-3.218 3.266-3.218 3.266 1.441 3.266 3.218m-173.086-51.745l1.28 3.198 3.245 1.26-3.245 1.262-1.28 3.197-1.28-3.197-3.245-1.262 3.245-1.26 1.28-3.198z" fill="#fff" fill-rule="nonzero"/><path d="M357.416 283.515c0 38.643-31.793 69.97-71.012 69.97-39.22 0-71.013-31.327-71.013-69.97s31.793-69.97 71.013-69.97c39.219 0 71.012 31.327 71.012 69.97z" fill="none" stroke="#fff" stroke-width="4" stroke-miterlimit="10"/><path d="M342.597 240.737c-15.855 8.139-35.249 12.926-56.193 12.926-20.946 0-40.341-4.787-56.197-12.928m.004 85.558c15.855-8.139 35.249-12.926 56.193-12.926 20.942 0 40.335 4.786 56.189 12.924" fill="none" stroke="#fff" stroke-width="4" stroke-miterlimit="10"/><path d="M337.243 283.515c0 38.643-22.761 69.97-50.839 69.97-28.077 0-50.838-31.327-50.838-69.97s22.761-69.97 50.838-69.97c28.078 0 50.839 31.327 50.839 69.97z" fill="none" stroke="#fff" stroke-width="4" stroke-miterlimit="10"/><path d="M309.871 283.515c0 38.643-10.507 69.97-23.467 69.97-12.961 0-23.466-31.327-23.466-69.97s10.505-69.97 23.466-69.97c12.959 0 23.466 31.327 23.466 69.97zm-94.48 0h142.025m-71.012 69.97v-139.94" fill="none" stroke="#fff" stroke-width="4" stroke-miterlimit="10"/><g opacity=".16"><clipPath id="an"><path d="M213.517 211.698h72.887v143.633h-72.887z"/></clipPath><g clip-path="url(#an)"><path d="M286.404 211.698a73.171 73.171 0 0 0-57.371 27.6 1.85 1.85 0 0 0-.488.583c-.01.019-.014.039-.023.058-9.401 12.095-15.005 27.199-15.005 43.575 0 16.381 5.607 31.49 15.013 43.586.008.015.011.03.019.045.11.21.265.377.435.524a73.171 73.171 0 0 0 57.42 27.662V211.698z" fill="#fff" fill-rule="nonzero"/></g></g><path d="M309.034 305.637c-7.48 2.912-16.283 4.592-25.7 4.592-27.14 0-49.174-13.955-49.174-31.143 0-17.189 22.034-31.144 49.174-31.144s49.174 13.955 49.174 31.144c0 7.541-4.241 14.459-11.293 19.85l11.293 11.293-23.474-4.592z" fill="#6ddfc1"/><path d="M276.194 296.635c4.945 1.925 10.763 3.036 16.987 3.036 17.939 0 32.503-9.224 32.503-20.585s-14.564-20.585-32.503-20.585c-17.938 0-32.502 9.224-32.502 20.585 0 4.984 2.803 9.557 7.464 13.12l-7.464 7.465 15.515-3.036z" fill="#fff"/><path d="M281.365 275.048a4.04 4.04 0 0 1 4.038 4.038 4.04 4.04 0 0 1-4.038 4.038 4.04 4.04 0 0 1-4.038-4.038 4.04 4.04 0 0 1 4.038-4.038zm11.816 0a4.04 4.04 0 0 1 4.038 4.038 4.04 4.04 0 0 1-4.038 4.038 4.04 4.04 0 0 1-4.038-4.038 4.04 4.04 0 0 1 4.038-4.038zm11.817 0a4.04 4.04 0 0 1 4.038 4.038 4.04 4.04 0 0 1-4.038 4.038 4.04 4.04 0 0 1-4.038-4.038 4.04 4.04 0 0 1 4.038-4.038z" fill="#4d5273"/></svg>