<svg viewBox="0 0 300 300" xmlns="http://www.w3.org/2000/svg" fill-rule="evenodd" clip-rule="evenodd" stroke-linejoin="round" stroke-miterlimit="1.414"><circle cx="149.795" cy="154.11" r="133.562" fill="#6371c6" transform="translate(.205 -4.11)"/><g fill="#fff"><g fill-rule="nonzero"><path d="M229.07 167.904h-14.744a3.512 3.512 0 0 0-3.51 3.511v32.297a3.51 3.51 0 0 0 3.51 3.512h14.744a3.51 3.51 0 0 0 3.51-3.512v-32.297a3.51 3.51 0 0 0-3.51-3.511zm-7.371 36.252a1.393 1.393 0 1 1 0-2.785 1.393 1.393 0 0 1 0 2.785z"/><path d="M214.326 164.92h6.142v-19.485a2.635 2.635 0 0 0-2.63-2.632H173.6a2.637 2.637 0 0 0-2.633 2.632v57.577a2.635 2.635 0 0 0 2.633 2.631h34.527a6.455 6.455 0 0 1-.295-1.929v-32.297a6.5 6.5 0 0 1 6.493-6.496zm-18.607 39.236a1.393 1.393 0 1 1 0-2.785 1.393 1.393 0 0 1 0 2.785z"/></g><path d="M208.55 92.776c1.94 0 3.509 1.57 3.509 3.51v43.534h-38.46a5.62 5.62 0 0 0-5.615 5.615v42.833h-14.076l1.697 15.163 6.365.978c.411.114.68.641.632 1.138-.048.496-.402.953-.82.953h-44.087c-.42 0-.772-.232-.818-.73-.049-.497.221-.816.63-.93l6.366-1.341 1.697-15.231H70.928a3.51 3.51 0 0 1-3.508-3.51V96.284a3.506 3.506 0 0 1 3.508-3.508H208.55zm-95.422 26.776v2.48a25.583 25.583 0 0 0-11.783 4.738 3.282 3.282 0 0 0-1.339 2.644c0 1.8 1.481 3.281 3.28 3.281a3.28 3.28 0 0 0 1.941-.636 18.948 18.948 0 0 1 11.239-3.693c10.392 0 18.944 8.551 18.944 18.944 0 10.393-8.552 18.944-18.944 18.944a18.941 18.941 0 0 1-10.06-2.892 3.29 3.29 0 0 0-1.643-.439 3.301 3.301 0 0 0-3.286 3.286 3.29 3.29 0 0 0 1.382 2.679 25.315 25.315 0 0 0 17.456 3.64c12.261-1.927 21.439-12.512 21.61-24.923a25.221 25.221 0 0 0-5.221-15.732l2.741-2.741a3.463 3.463 0 0 0 1.029-1.99c.021-.151.032-.303.032-.455a3.308 3.308 0 0 0-3.715-3.266 3.46 3.46 0 0 0-1.997 1.061l-2.716 2.716a25.38 25.38 0 0 0-12.402-5.178v-2.481h2.406a3.402 3.402 0 0 0 3.41-2.945 3.307 3.307 0 0 0-3.274-3.615h-11.459a3.403 3.403 0 0 0-3.417 2.957 3.309 3.309 0 0 0 3.274 3.616h2.512zm-14.207 35.631H83.778a2.635 2.635 0 0 0-2.751 2.62 2.635 2.635 0 0 0 2.751 2.62h15.143a2.635 2.635 0 0 0 2.75-2.62 2.635 2.635 0 0 0-2.75-2.62zm28.326-15.8l-5.785 7.236a5.1 5.1 0 0 1 .052.73c0 2.809-2.312 5.122-5.122 5.122s-5.122-2.313-5.122-5.122c0-2.81 2.312-5.123 5.122-5.123.244 0 .488.018.729.053l7.243-5.805c.366-.292.82-.451 1.288-.451 1.133 0 2.065.932 2.065 2.065 0 .468-.159.923-.451 1.289l-.019.006zm-24.947 6.443H87.157a2.635 2.635 0 0 0-2.75 2.62 2.635 2.635 0 0 0 2.75 2.62H102.3a2.635 2.635 0 0 0 2.751-2.62 2.635 2.635 0 0 0-2.751-2.62zm6.003-6.729a2.636 2.636 0 0 0-2.623-2.623H90.537a2.636 2.636 0 0 0-2.751 2.62 2.636 2.636 0 0 0 2.751 2.62h15.143c1.437 0 2.62-1.18 2.623-2.617zm31.437-44.353a1.393 1.393 0 1 1 0 2.786 1.393 1.393 0 0 1 0-2.786z"/></g></svg>