<svg viewBox="0 0 300 300" xmlns="http://www.w3.org/2000/svg" fill-rule="evenodd" clip-rule="evenodd" stroke-linejoin="round" stroke-miterlimit="1.414"><circle cx="149.795" cy="154.11" r="133.562" fill="#6371c6" transform="translate(.205 -4.11)"/><path d="M199.547 197.097c18.244 0 33.031-14.782 33.031-33.031 0-15.69-10.951-28.82-25.611-32.19.522-2.256.838-4.616.838-7.031 0-17.102-13.865-30.967-30.967-30.967-4.79 0-9.307 1.156-13.355 3.097-8.324-9.482-20.519-15.484-34.128-15.484-25.083 0-45.418 20.335-45.418 45.418 0 .698.033 1.375.064 2.065-9.994 6.664-16.58 18.06-16.58 30.963 0 20.52 16.638 37.16 37.161 37.16h94.965z" fill="#fff" fill-rule="nonzero"/></svg>