<svg viewBox="0 0 300 300" xmlns="http://www.w3.org/2000/svg" fill-rule="evenodd" clip-rule="evenodd" stroke-linejoin="round" stroke-miterlimit="1.414"><circle cx="149.795" cy="154.11" r="133.562" fill="#6371c6" transform="translate(.205 -4.11)"/><path d="M197.639 162.816h-1.448v-5.12c0-5.862-4.769-10.63-10.63-10.63-5.861 0-10.63 4.768-10.63 10.63v5.12h-1.446a2.152 2.152 0 0 0-2.153 2.152v20.407c0 1.19.965 2.153 2.153 2.153h24.154a2.152 2.152 0 0 0 2.152-2.153v-20.407a2.153 2.153 0 0 0-2.152-2.152zm-18.403-5.12a6.333 6.333 0 0 1 6.326-6.326 6.332 6.332 0 0 1 6.324 6.326v5.12h-12.65v-5.12zm16.25 25.527h-19.849V167.12h19.85v16.102zm3.494-41.337c2.681-2.392 4.381-5.859 4.381-9.733 0-7.211-5.846-13.057-13.058-13.057H97.452c-7.21 0-13.058 5.846-13.058 13.057 0 7.21 5.846 13.058 13.058 13.058h69.468a30.254 30.254 0 0 0-7.82 9.312H97.451c-7.21 0-13.058 5.846-13.058 13.057 0 7.212 5.846 13.058 13.058 13.058h44.275v22.243c0 .127.017.25.037.373a6.692 6.692 0 0 0-4.236 4.236 2.135 2.135 0 0 0-.373-.037h-27.13a2.152 2.152 0 1 0 0 4.304h27.13c.128 0 .251-.015.373-.037.892 2.67 3.383 4.61 6.352 4.61 2.969 0 5.458-1.94 6.348-4.61.122.022.245.037.373.037h27.132a2.152 2.152 0 1 0 0-4.304H150.6c-.128 0-.251.015-.373.037a6.691 6.691 0 0 0-4.234-4.236c.022-.122.038-.246.038-.373v-22.243h11.959c4.62 10.658 15.235 18.137 27.572 18.137 16.567 0 30.044-13.477 30.044-30.044 0-11.741-6.786-21.904-16.626-26.845zm-101.478-3.659a6.287 6.287 0 0 1 0-12.573 6.287 6.287 0 1 1 0 12.573zm0 35.426a6.286 6.286 0 1 1 0-12.572 6.287 6.287 0 1 1 0 12.572zm88.06 20.817c-14.194 0-25.741-11.546-25.741-25.74 0-14.193 11.547-25.74 25.74-25.74 14.194 0 25.74 11.547 25.74 25.74 0 14.194-11.546 25.74-25.74 25.74zm-88.11-84.686h92.851c7.21 0 13.058-5.844 13.058-13.057 0-7.212-5.846-13.057-13.058-13.057H97.452c-7.21 0-13.058 5.845-13.058 13.057 0 7.213 5.846 13.057 13.058 13.057zm.05-19.559a6.288 6.288 0 0 1 6.288 6.287 6.288 6.288 0 0 1-12.574 0 6.288 6.288 0 0 1 6.286-6.287z" fill="#fff" fill-rule="nonzero"/></svg>