<svg viewBox="0 0 300 300" xmlns="http://www.w3.org/2000/svg" fill-rule="evenodd" clip-rule="evenodd" stroke-linejoin="round" stroke-miterlimit="1.414"><circle cx="149.795" cy="154.11" r="133.562" fill="#6371c6" transform="translate(.205 -4.11)"/><path d="M146.54 74.181c-32.016 1.133-58.282 22.056-69.678 53.766-1.863 5.184-.564 8.005 1.163 5.977 4.806-5.642 11.394-9.203 18.727-9.203 8.735 0 16.473 5 21.254 12.703 2.492 3.637 3.303 3.871 5.575.09 5.782-9.606 12.935-12.632 22.96-12.806 0 33.66.017 74.786.017 81.45 0 8.184-5.647 16.25-12.616 16.25-6.967 0-12.619-5.652-12.619-13.834h-6.997c0 12.722 8.781 20.631 19.616 20.631 10.836 0 19.623-10.323 19.623-23.047 0-8.36-.053-47.91-.08-81.453 9.66.142 16.935 2.843 22.93 12.809 2.277 3.781 3.082 3.547 5.575-.09 4.784-7.7 12.524-12.703 21.259-12.703 7.326 0 13.92 3.56 18.725 9.203 1.729 2.028 3.026-.793 1.163-5.977-11.391-31.688-37.646-52.603-69.636-53.763v-3.39h-6.98l.018 3.387z" fill="#fff" fill-rule="nonzero"/></svg>