<svg width="1440" height="655" viewBox="0 0 1440 655" xmlns="http://www.w3.org/2000/svg"><title>graph</title><defs><linearGradient x1="96.928%" y1="17.809%" x2="9.579%" y2="100%" id="a"><stop stop-color="#4CC7FF" stop-opacity=".15" offset="0%"/><stop stop-color="#2595FF" stop-opacity=".15" offset="100%"/></linearGradient></defs><g fill="none" fill-rule="evenodd"><path d="M0 583s96.77-113.578 184.879-109.063c88.11 4.516 150.726 71.254 216.34 71.254 65.613 0 136.27-113.351 210.914-113.351 74.644 0 151.62 103.601 207.547 84.277 55.925-19.324 144.699-145.656 167.09-188.176 22.39-42.52 123.668-167.05 253.203-194.8S1422.328 49.424 1440 0v654H0v-71z" fill="url(#a)" transform="translate(0 1)"/><path d="M0 584s96.77-113.578 184.879-109.063c88.11 4.516 150.726 71.254 216.34 71.254 65.613 0 136.27-113.351 210.914-113.351 74.644 0 151.62 103.601 207.547 84.277 55.925-19.324 144.699-145.656 167.09-188.176 22.39-42.52 123.668-167.05 253.203-194.8S1422.328 51.033 1440 1" stroke="#2595FF" stroke-width="3"/><g transform="translate(167 117)" stroke="#2595FF" stroke-width="2"><circle fill="#2A689A" cx="8" cy="357" r="8"/><circle fill="#2E6F9D" cx="237" cy="428" r="8"/><circle fill="#3275A2" cx="440" cy="315" r="8"/><circle fill="#32749A" cx="639" cy="403" r="8"/><circle fill="#347FAA" cx="831" cy="193" r="8"/><circle fill="#34789C" cx="1110" cy="8" r="8"/></g></g></svg>