<svg width="97" height="57" viewBox="0 0 97 57" xmlns="http://www.w3.org/2000/svg"><title>hey</title><path d="M56.32 8.68c3.387 4.853 5.08 11.493 5.08 19.92 0 8.853-1.72 15.6-5.16 20.24-3.44 4.64-8.227 6.96-14.36 6.96-4.587 0-8.373-1.013-11.36-3.04s-5.067-4.88-6.24-8.56l4-2.08c.747 3.147 2.2 5.6 4.36 7.36 2.16 1.76 5.213 2.64 9.16 2.64 5.653 0 9.733-2.267 12.24-6.8 2.507-4.533 3.76-10.533 3.76-18 0-1.333-.16-3.173-.48-5.52h-.24c-.213 2.827-1.093 5.213-2.64 7.16-1.547 1.947-3.493 3.4-5.84 4.36-2.347.96-4.747 1.44-7.2 1.44-5.227 0-9.413-1.507-12.56-4.52-3.147-3.013-4.72-7.08-4.72-12.2 0-5.067 1.6-9.107 4.8-12.12 3.2-3.013 7.493-4.52 12.88-4.52 6.293 0 11.133 2.427 14.52 7.28zm-24.4 0c-2.427 2.347-3.64 5.52-3.64 9.52 0 3.893 1.2 7 3.6 9.32 2.4 2.32 5.68 3.48 9.84 3.48 2.613 0 4.947-.587 7-1.76s3.653-2.733 4.8-4.68c1.147-1.947 1.72-4.067 1.72-6.36 0-3.84-1.24-6.973-3.72-9.4-2.48-2.427-5.693-3.64-9.64-3.64-4.213 0-7.533 1.173-9.96 3.52zm35.94 47.37h-1.5l4.47-11.925h1.5L67.86 56.05zM84.3 55h-1.47v-5.73l.105-2.73h-.015L79.905 55H78.57l-3.015-8.46h-.015l.12 2.73V55h-1.485v-9.9h2.385l1.995 5.73.69 2.355h.03l.705-2.355 1.98-5.73h2.34V55zm9.532-9.435c.706.41 1.248 1 1.628 1.77.38.77.57 1.675.57 2.715 0 1.04-.19 1.945-.57 2.715-.38.77-.922 1.36-1.627 1.77-.706.41-1.533.615-2.483.615-.95 0-1.775-.205-2.475-.615-.7-.41-1.24-1-1.62-1.77-.38-.77-.57-1.675-.57-2.715 0-1.04.19-1.945.57-2.715.38-.77.92-1.36 1.62-1.77.7-.41 1.525-.615 2.475-.615.95 0 1.777.205 2.483.615zM89.16 47.32c-.53.65-.795 1.56-.795 2.73s.265 2.08.795 2.73c.53.65 1.26.975 2.19.975.94 0 1.675-.325 2.205-.975.53-.65.795-1.56.795-2.73s-.265-2.08-.795-2.73c-.53-.65-1.265-.975-2.205-.975-.93 0-1.66.325-2.19.975zM6.417 17.977c-2.714-.23-4.539-1.434-5.474-3.611l1.771-1.288c.215.782.66 1.437 1.334 1.966.675.53 1.464.87 2.369 1.024v-4.784c-1.012-.215-1.86-.452-2.541-.713a4.141 4.141 0 0 1-1.702-1.184c-.453-.53-.679-1.231-.679-2.105 0-1.18.44-2.181 1.322-3.002.882-.82 2.082-1.299 3.6-1.437V.612h1.771v2.254c1.18.092 2.154.383 2.921.874.767.49 1.441 1.211 2.024 2.162L11.5 7.397c-.399-.828-.855-1.449-1.368-1.863-.514-.414-1.162-.667-1.944-.759v4.853c1.012.215 1.86.456 2.541.724a4.15 4.15 0 0 1 1.703 1.22c.452.544.678 1.26.678 2.15 0 1.196-.448 2.173-1.345 2.932-.898.76-2.09 1.2-3.577 1.323v2.231H6.417v-2.231zm0-13.202c-.859.092-1.51.341-1.955.747-.445.407-.667.94-.667 1.599 0 .598.226 1.054.678 1.368.453.315 1.1.572 1.944.771V4.775zm4.416 9.108c0-.613-.226-1.081-.678-1.403-.453-.322-1.108-.59-1.967-.805v4.416c1.763-.169 2.645-.905 2.645-2.208z" fill="#2D3238" fill-rule="evenodd"/></svg>