<svg width="193" height="193" viewBox="0 0 193 193" xmlns="http://www.w3.org/2000/svg" xmlns:xlink="http://www.w3.org/1999/xlink"><title>devices</title><defs><path id="a" d="M114.585 165.714c0 3.315-2.714 6.026-6.031 6.026H6.03c-3.316 0-6.03-2.71-6.03-6.026V6.026C0 2.712 2.714 0 6.03 0h102.524c3.317 0 6.03 2.712 6.03 6.026v159.688z"/><path id="c" d="M0 0h102.523v137.844H0V0z"/><path id="e" d="M0 0h101.015v136.338H0V0z"/><path d="M0 0h102.523v137.844H0V0zm101.015 1.506v134.832H1.508V1.506h99.507z" id="g"/><path id="i" d="M47.232 0h47.232L43.78 137.844H0V0h47.232z"/><path d="M2.865 1.808c.452 0 .753.301.753.753s-.301.753-.753.753c-.453 0-.754-.301-.754-.753s.377-.753.754-.753zm0-1.507c-1.282 0-2.262.98-2.262 2.26 0 1.28.98 2.26 2.262 2.26 1.281 0 2.261-.98 2.261-2.26 0-1.28-.98-2.26-2.261-2.26z" id="k"/><path d="M2.865 1.883c.452 0 .753.301.753.753s-.301.754-.753.754c-.453 0-.754-.302-.754-.754s.377-.753.754-.753zm0-1.506c-1.282 0-2.262.979-2.262 2.26 0 1.28.98 2.26 2.262 2.26 1.281 0 2.261-.98 2.261-2.26 0-1.281-.98-2.26-2.261-2.26z" id="m"/><path d="M2.11 1.356c.302 0 .528.226.528.527a.515.515 0 0 1-.527.527.515.515 0 0 1-.528-.527c0-.301.302-.527.528-.527zm0-.98c-.828 0-1.507.679-1.507 1.507 0 .829.679 1.507 1.508 1.507s1.507-.678 1.507-1.507c0-.828-.678-1.506-1.507-1.506z" id="o"/><path id="q" d="M0 0h50.508v94.91H0V0z"/><path d="M0 0h52.015v95.662H0V0zm50.508.753v93.403h-49V.753h49z" id="s"/><path id="u" d="M23.324 0h23.324L11.434 95.662H0V0h23.324z"/><path id="w" d="M0 116.678V7.23c0-2.486 1.96-4.82 4.448-5.122C9.95 1.431 19.977.377 30.606.377 41.16.377 51.111 1.43 56.69 2.109c2.488.301 4.373 2.636 4.373 5.122v109.447c0 1.657-1.207 3.766-2.79 4.143-4.221 1.054-13.267 2.485-27.666 2.485-14.398 0-23.444-1.43-27.666-2.485-1.658-.377-2.94-2.486-2.94-4.143z"/><path d="M2.262 1.808c.452 0 .753.301.753.753s-.301.753-.753.753c-.453 0-.754-.301-.754-.753s.301-.753.754-.753zm0-1.507C.98.301 0 1.281 0 2.561c0 1.28.98 2.26 2.262 2.26 1.281 0 2.261-.98 2.261-2.26 0-1.28-.98-2.26-2.261-2.26z" id="y"/><path d="M1.508 1.28c.301 0 .527.226.527.528a.515.515 0 0 1-.527.527.515.515 0 0 1-.528-.527c0-.302.226-.527.528-.527zm0-.979C.678.301 0 .98 0 1.808c0 .828.678 1.506 1.508 1.506.829 0 1.507-.678 1.507-1.506C3.015.979 2.337.3 1.508.3z" id="A"/><path id="C" d="M0 0h50.508v94.156H0V0z"/><path d="M0 0h52.015v95.662H0V0zm50.508 1.506v92.65h-49V1.506h49z" id="E"/><path id="G" d="M23.4 0h23.4L11.584 95.662H0V0h23.4z"/></defs><g fill="none" fill-rule="evenodd"><path fill="#FFF" d="M0 0h193v193H0z"/><g transform="translate(55.415 6)"><mask id="b" fill="#fff"><use xlink:href="#a"/></mask><path d="M-3.77-3.766h122.124v179.272H-3.77V-3.766z" fill="#FFF" mask="url(#b)"/></g><path d="M170 171.714c0 3.315-2.714 6.026-6.03 6.026H61.445c-3.317 0-6.03-2.711-6.03-6.026V12.026c0-3.314 2.713-6.026 6.03-6.026H163.97c3.316 0 6.03 2.712 6.03 6.026v159.688z" stroke="#1485E0" stroke-width="4"/><g transform="translate(61.446 21.818)"><mask id="d" fill="#fff"><use xlink:href="#c"/></mask><path d="M-3.77-3.766h110.062V141.61H-3.769V-3.766z" fill="#C4E1F7" mask="url(#d)"/></g><g transform="translate(62.2 22.571)"><mask id="f" fill="#fff"><use xlink:href="#e"/></mask><path d="M-3.77-3.766h108.555v143.87H-3.77V-3.766z" fill="#C4E1F7" mask="url(#f)"/></g><g transform="translate(61.446 21.818)"><mask id="h" fill="#fff"><use xlink:href="#g"/></mask><path d="M-3.77-3.766h110.062V141.61H-3.769V-3.766z" fill="#1485E0" mask="url(#h)"/></g><g transform="translate(61.446 21.818)"><mask id="j" fill="#fff"><use xlink:href="#i"/></mask><path d="M-61.815-10.922h162.68V144.02h-162.68V-10.922z" fill-opacity=".44" fill="#FFF" mask="url(#j)"/></g><path d="M112.557 171.865a4.37 4.37 0 0 0 4.372-4.369 4.37 4.37 0 0 0-4.372-4.369 4.37 4.37 0 0 0-4.372 4.37 4.37 4.37 0 0 0 4.372 4.368z" stroke="#1485E0" stroke-width="2"/><g transform="translate(109.692 10.52)"><mask id="l" fill="#fff"><use xlink:href="#k"/></mask><path d="M-3.166-3.465H8.895V8.587H-3.166V-3.465z" fill="#1485E0" mask="url(#l)"/></g><g transform="translate(50.138 60.234)"><mask id="n" fill="#fff"><use xlink:href="#m"/></mask><path d="M-3.166-3.39H8.895V8.662H-3.166V-3.39z" fill="#1485E0" mask="url(#n)"/></g><g transform="translate(31.292 60.987)"><mask id="p" fill="#fff"><use xlink:href="#o"/></mask><path d="M-3.166-3.39H7.388V7.156H-3.166V-3.39z" fill="#1485E0" mask="url(#p)"/></g><g transform="translate(28.277 68.52)"><mask id="r" fill="#fff"><use xlink:href="#q"/></mask><path d="M-3.77-3.766h58.047V98.675H-3.77V-3.766z" fill="#C4E1F7" mask="url(#r)"/></g><g transform="translate(27.523 68.52)"><mask id="t" fill="#fff"><use xlink:href="#s"/></mask><path d="M-3.77-3.766h59.555V99.429H-3.77V-3.766z" fill="#1485E0" mask="url(#t)"/></g><g transform="translate(27.523 68.52)"><mask id="v" fill="#fff"><use xlink:href="#u"/></mask><path d="M-82.17-38.416H63.173v138.598H-82.169V-38.416z" fill-opacity=".44" fill="#FFF" mask="url(#v)"/></g><g transform="translate(23 56.468)"><mask id="x" fill="#fff"><use xlink:href="#w"/></mask><path d="M-3.77-3.39h68.6v130.463h-68.6V-3.39z" fill="#FFF" mask="url(#x)"/></g><path d="M23 173.145V63.7c0-2.486 1.96-4.821 4.448-5.122 5.503-.678 15.529-1.733 26.158-1.733 10.554 0 20.505 1.055 26.083 1.733 2.488.3 4.373 2.636 4.373 5.122v109.446c0 1.658-1.207 3.767-2.79 4.143-4.221 1.055-13.267 2.486-27.666 2.486-14.398 0-23.444-1.431-27.666-2.486-1.658-.376-2.94-2.485-2.94-4.143z" stroke="#1485E0" stroke-width="4"/><g transform="translate(50.892 60.234)"><mask id="z" fill="#fff"><use xlink:href="#y"/></mask><path d="M-3.77-3.465H8.293V8.587H-3.769V-3.465z" fill="#1485E0" mask="url(#z)"/></g><g transform="translate(32.046 60.987)"><mask id="B" fill="#fff"><use xlink:href="#A"/></mask><path d="M-3.77-3.465H6.786V7.081H-3.77V-3.465z" fill="#1485E0" mask="url(#B)"/></g><g transform="translate(28.277 68.52)"><mask id="D" fill="#fff"><use xlink:href="#C"/></mask><path d="M-3.77-3.766h58.047V97.922H-3.77V-3.766z" fill="#C4E1F7" mask="url(#D)"/></g><g transform="translate(27.523 67.766)"><mask id="F" fill="#fff"><use xlink:href="#E"/></mask><path d="M-3.77-3.766h59.555V99.429H-3.77V-3.766z" fill="#1485E0" mask="url(#F)"/></g><g transform="translate(27.523 67.766)"><mask id="H" fill="#fff"><use xlink:href="#G"/></mask><path d="M-82.17-38.416H63.324v138.598H-82.169V-38.416z" fill-opacity=".44" fill="#FFF" mask="url(#H)"/></g></g></svg>