<svg width="218" height="31" viewBox="0 0 218 31" xmlns="http://www.w3.org/2000/svg"><title>techCrunch</title><path d="M81.931 12.112v13.722h-4.97V12.112h-5.022V7.745h15.014v4.367H81.93zm10.527 3.308c-1.05 0-1.64.723-1.793 2.067h3.844c-.232-1.37-.693-2.067-2.05-2.067m6.097 4.961h-7.89c.153 1.499 1.023 2.17 2.279 2.17 1.178 0 2.153-.258 3.485-.956l1.766 2.973c-1.664.98-3.381 1.55-5.482 1.55-4.048 0-6.276-2.895-6.276-7.056 0-4.675 2.612-7.08 6.148-7.08 3.689 0 5.995 2.456 5.995 7.494 0 .389 0 .673-.025.905m8.579 5.736c-3.945 0-6.302-2.532-6.302-7.105 0-4.16 2.101-7.028 6.404-7.028 2.537 0 3.997 1.188 5.176 3.1l-3.176 2.428c-.64-1.188-1.078-1.757-2.075-1.757-1.18 0-1.769 1.189-1.769 3.334 0 2.146.64 3.255 1.896 3.255.87 0 1.485-.49 2.33-1.757l2.922 2.3c-1.563 2.326-3.024 3.23-5.406 3.23m15.727-.284v-7.7c0-1.757-.589-2.222-1.537-2.222-.974 0-1.563.465-1.563 2.17v7.752h-4.61V8.857l4.61-1.86v6.174c.845-.646 1.793-1.188 3.382-1.188 2.947 0 4.356 1.989 4.356 5.555v8.295h-4.638zm15.676.284c-5.329 0-8.173-3.98-8.173-9.328 0-5.814 3.382-9.327 8.199-9.327 4.407 0 6.149 1.911 7.378 5.323l-4.508 1.782c-.642-1.68-1.256-2.74-2.896-2.74-2.074 0-2.97 2.094-2.97 4.962 0 2.765.869 4.961 3.022 4.961 1.562 0 2.228-.853 3.201-2.558l4.202 2.248c-1.204 2.378-3.203 4.677-7.455 4.677m18.799-8.734c-.589-.646-1.253-1.136-2.151-1.136-1.128 0-1.82.542-1.82 2.195v7.391h-4.61V12.267h4.61v.982c.795-.775 1.692-1.266 2.871-1.266.972 0 1.64.232 2.177.568l-1.077 4.832zm10.964 8.45v-.905c-.82.646-1.793 1.19-3.355 1.19-2.947 0-4.356-1.99-4.356-5.557v-8.294h4.637v7.7c0 1.756.59 2.223 1.537 2.223.948 0 1.537-.467 1.537-2.172v-7.751h4.637v13.566h-4.637zm15.676 0v-7.7c0-1.757-.59-2.222-1.537-2.222-.974 0-1.564.465-1.564 2.17v7.752h-4.61V12.267h4.61v.904c.846-.646 1.793-1.188 3.383-1.188 2.947 0 4.355 1.989 4.355 5.555v8.295h-4.637zm13.625.284c-3.945 0-6.302-2.532-6.302-7.105 0-4.16 2.101-7.028 6.404-7.028 2.538 0 3.998 1.188 5.176 3.1l-3.176 2.428c-.64-1.188-1.077-1.757-2.075-1.757-1.18 0-1.769 1.189-1.769 3.334 0 2.146.64 3.255 1.896 3.255.87 0 1.485-.49 2.33-1.757l2.922 2.3c-1.563 2.326-3.024 3.23-5.406 3.23m15.728-.284v-7.7c0-1.757-.59-2.222-1.537-2.222-.975 0-1.564.465-1.564 2.17v7.752h-4.61V8.857l4.61-1.86v6.174c.845-.646 1.793-1.188 3.382-1.188 2.947 0 4.356 1.989 4.356 5.555v8.295h-4.638zM0 0v10.333h10.246V31H20.49V10.333h10.246V0H0zm40.982 20.667V10.333H30.737V31h30.737V20.667H40.982zm0-10.334h20.492V0H40.982v10.333z" fill="#FFF" fill-rule="evenodd"/></svg>