<svg width="193" height="193" viewBox="0 0 193 193" xmlns="http://www.w3.org/2000/svg" xmlns:xlink="http://www.w3.org/1999/xlink"><title>coffee</title><defs><ellipse id="a" cx="54.144" cy="53.973" rx="53.656" ry="53.728"/><ellipse id="c" cx="54.144" cy="53.973" rx="53.656" ry="53.728"/><ellipse id="e" cx="54.144" cy="53.973" rx="53.656" ry="53.728"/><ellipse id="g" cx="54.144" cy="53.973" rx="53.656" ry="53.728"/></defs><g fill="none" fill-rule="evenodd"><path fill="#FFF" d="M0 0h193v193H0z"/><path d="M89.222 179.654c-1.71.367-3.422.49-5.133.612-.733 0-1.467.122-2.2.122m-22.733-5.508c-22.245-12.116-30.434-40.02-18.334-62.295 12.1-22.275 39.967-30.475 62.211-18.358 22.245 12.116 30.434 40.02 18.334 62.295a46.3 46.3 0 0 1-24.078 21.051" stroke="#1485E0" stroke-width="2"/><path d="M162.067 37.072l-13.811 13.83c-2.812 2.814-7.456 2.814-10.39 0l-6.966-6.977c-2.811-2.815-2.811-7.465 0-10.403l13.811-13.83c2.811-2.814 7.456-2.814 10.389 0l6.967 6.977c2.81 2.815 2.81 7.465 0 10.403z" stroke="#1485E0" stroke-width="4" fill="#FFF"/><ellipse stroke="#1485E0" stroke-width="4" fill="#FFF" cx="98.144" cy="88.107" rx="64.167" ry="64.254"/><g transform="translate(44 34.134)"><mask id="b" fill="#fff"><use xlink:href="#a"/></mask><ellipse stroke="#1485E0" stroke-width="2" fill="#C4E1F7" mask="url(#b)" cx="54.144" cy="53.973" rx="51.944" ry="52.015"/></g><g transform="translate(44 34.134)"><mask id="d" fill="#fff"><use xlink:href="#c"/></mask><g mask="url(#d)" stroke="#1485E0" stroke-width="2" fill="#FFF"><path d="M87.267 24.11c-6.356 11.872 16.5 17.257 8.31 32.31-8.433 15.544-39.721 12.362-45.221 22.643-3.178 5.874.122 13.83 10.877 18.97 20.534 9.913 45.59 1.468 56.711-18.97 11.245-20.806 5.012-45.773-15.155-57.767-.122.122-10.633-6.365-15.522 2.814z"/></g></g><g transform="translate(44 34.134)"><mask id="f" fill="#fff"><use xlink:href="#e"/></mask><ellipse stroke="#1485E0" stroke-width="2.03" mask="url(#f)" cx="55" cy="53.973" rx="52.067" ry="52.137"/></g><g transform="translate(44 34.134)"><mask id="h" fill="#fff"><use xlink:href="#g"/></mask><path d="M21.756 138.299h-145.2V-74.657H99.978L21.756 138.3z" opacity=".44" fill="#FFF" mask="url(#h)"/></g></g></svg>