<svg width="193" height="36" viewBox="0 0 193 36" xmlns="http://www.w3.org/2000/svg" xmlns:xlink="http://www.w3.org/1999/xlink"><title>mashable</title><defs><path id="a" d="M0 36h193V.518H0"/></defs><g fill="none" fill-rule="evenodd"><path d="M83.076.523c2.521 0 5.04.004 7.56-.002.01 4.595.006 9.189.017 13.785.906-1.12 2.009-2.103 3.346-2.677 2.284-1.038 5.027-1.06 7.314-.017 1.686.768 2.992 2.226 3.73 3.91.727 1.626 1.025 3.414 1.08 5.184.003 4.916 0 9.832.001 14.748-2.523 0-5.047.003-7.571-.002-.012-4.509.017-9.02 0-13.53-.055-1.463-.298-3.091-1.423-4.14-1.526-1.33-4.115-1.089-5.417.447-.625.726-1.059 1.649-1.054 2.62-.002 4.868.023 9.735.01 14.602-2.537.006-5.077.005-7.614.001-.005-11.643.006-23.285.021-34.93m77.039-.001c2.519.008 5.038.003 7.556.002.014 10.596.03 21.193.023 31.79-.014 1.053.029 2.107-.021 3.16-2.528-.044-5.059-.007-7.59-.02-.008-11.643.021-23.288.032-34.932" fill="#FFF"/><mask id="b" fill="#fff"><use xlink:href="#a"/></mask><path d="M2.151 2.297c3.368-.016 6.733.001 10.1-.01.946 3.233 1.91 6.458 2.86 9.689a132.986 132.986 0 0 1 3.07 12.266c.084.349.077.74.317 1.03.954-3.989 1.988-7.96 3.187-11.881 1.177-3.703 2.382-7.395 3.552-11.1 3.313-.005 6.627.007 9.939-.005.626 11.053 1.202 22.112 1.829 33.165-2.474.008-4.946.003-7.42.003-.368-8.783-.803-17.567-.846-26.358-.111.29-.2.585-.272.886-1.584 6.204-3.656 12.266-5.548 18.38-.683 2.183-1.367 4.364-2.056 6.544-1.988.002-3.974-.003-5.96.002-1.12-3.924-2.198-7.86-3.3-11.789-1.32-4.634-2.38-9.336-3.324-14.058-.098.876-.102 1.759-.134 2.64-.258 7.923-.67 15.84-1.096 23.756-2.35-.007-4.7.003-7.049-.006C.709 24.4 1.453 13.348 2.151 2.297m68.084 8.833c3.209-.614 6.603-.197 9.598 1.1-.3 1.752-.84 3.455-1.239 5.188-1.527-.725-3.178-1.217-4.87-1.333-.836-.04-1.725.036-2.46.472-.618.371-.97 1.158-.759 1.858.172.634.754 1.024 1.3 1.316 1.797.93 3.848 1.284 5.574 2.367 1.471.85 2.732 2.169 3.222 3.823.631 2.121.387 4.56-.898 6.396-1.056 1.502-2.697 2.503-4.435 3.033-2.465.748-5.095.772-7.633.464-1.754-.249-3.497-.711-5.072-1.534.377-1.59.814-3.166 1.193-4.757.064-.188.061-.42.2-.573 1.983 1.019 4.182 1.66 6.415 1.746.912-.027 1.918-.059 2.672-.639.653-.498.747-1.467.42-2.177-.264-.554-.823-.864-1.345-1.131-1.244-.608-2.608-.907-3.861-1.489-1.727-.775-3.392-1.905-4.35-3.579-1.106-1.956-.898-4.46.144-6.397 1.243-2.28 3.687-3.678 6.184-4.154m109.217 5.283c-1.442.903-2.198 2.584-2.396 4.225 2.972-.006 5.942 0 8.914-.003-.03-1.263-.344-2.585-1.186-3.562-1.283-1.513-3.694-1.658-5.332-.66zm-.767-5.182a13.856 13.856 0 0 1 6.721-.035c2.523.627 4.727 2.357 5.952 4.647 1.636 3.027 1.957 6.643 1.37 9.996a2133.2 2133.2 0 0 0-15.595-.064c.064 1.359.872 2.618 2.013 3.334 1.664 1.08 3.722 1.316 5.662 1.225a20.493 20.493 0 0 0 5.866-1.018c.331 1.704.67 3.407 1.007 5.112-1.997.82-4.135 1.255-6.281 1.424-3.166.282-6.497.11-9.398-1.305-2.09-.994-3.832-2.702-4.838-4.79-1.067-2.18-1.395-4.661-1.256-7.065.191-2.845 1.192-5.677 3.048-7.866 1.468-1.763 3.508-3.027 5.73-3.595zM144.248 16.7c-2.093.387-3.672 2.352-3.768 4.449-.037 1.432-.005 2.864-.01 4.297.011 1.605.916 3.162 2.296 3.982 1.395.854 3.24.8 4.662.037 1.196-.64 1.962-1.86 2.35-3.125.48-1.612.527-3.34.25-4.992-.237-1.268-.742-2.536-1.686-3.442-1.057-1.042-2.648-1.46-4.094-1.206zM132.884.523c2.516 0 5.033.007 7.551-.005.024 4.546.013 9.093.02 13.638.133-.09.27-.182.369-.315 1.454-1.852 3.805-2.802 6.112-2.958 2.33-.21 4.762.377 6.63 1.816 2.143 1.612 3.443 4.137 3.976 6.727.469 2.32.457 4.734.019 7.06-.502 2.571-1.714 5.063-3.692 6.823-1.957 1.772-4.608 2.77-7.25 2.68-2.144.026-4.345-.704-5.883-2.233-.509-.482-.889-1.071-1.3-1.631-.145 1.11-.172 2.233-.336 3.341-2.147-.038-4.295.017-6.44-.027.217-3.432.216-6.87.2-10.306 0-8.205.016-16.407.024-24.61zM48.791 24.66c-.698.245-1.387.584-1.897 1.13-.895.924-1.03 2.44-.437 3.557.418.827 1.35 1.258 2.241 1.329 2.07.209 4.295-1.397 4.392-3.549.044-1.008.013-2.02.014-3.031-1.45.012-2.924.116-4.313.565zm-8.44-11.637c2.28-1.227 4.848-1.85 7.415-2.08 2.81-.23 5.804-.095 8.325 1.298 1.803.982 3.12 2.718 3.73 4.663.477 1.468.64 3.024.62 4.565.006 3.054-.002 6.109.006 9.162.055 1.61.098 3.226.401 4.811-2.263.02-4.53.02-6.792.001-.304-.76-.315-1.631-.522-2.431-1.716 2.013-4.388 3.05-7.007 2.974-2.397.09-4.87-.903-6.359-2.817-2.433-3.05-1.973-7.962.984-10.51 2.274-1.994 5.335-2.755 8.275-3.087a26.798 26.798 0 0 1 3.43-.158c.081-.962-.272-1.999-1.096-2.554-1.194-.843-2.733-.866-4.137-.798-2.044.173-4.08.73-5.865 1.752-.486-1.593-.923-3.2-1.408-4.791zm77.957 11.634c-.904.295-1.79.81-2.296 1.642-.534.922-.543 2.114-.053 3.058.362.664 1.048 1.107 1.783 1.248 1.989.443 4.255-.84 4.762-2.84.217-1.21.088-2.448.113-3.671-1.45.014-2.92.118-4.309.563zm-8.453-11.63c2.914-1.566 6.269-2.166 9.552-2.175 2.547.015 5.248.492 7.283 2.127 1.643 1.294 2.611 3.271 2.992 5.296.237 1.198.282 2.427.273 3.646.003 2.398.003 4.795.003 7.193-.01 2.113.015 4.244.397 6.33-2.29.013-4.582.029-6.872-.008-.126-.814-.293-1.62-.435-2.43-1.685 1.967-4.275 3.018-6.845 2.98-2.265.108-4.621-.698-6.165-2.4-2.78-2.929-2.5-8.087.47-10.786 1.926-1.804 4.546-2.62 7.098-3.05a27.384 27.384 0 0 1 4.773-.336c.054-.959-.281-1.995-1.105-2.553-1.155-.804-2.631-.867-3.99-.809-2.104.143-4.189.731-6.034 1.757-.46-1.596-.91-3.194-1.395-4.783z" fill="#FFF" mask="url(#b)"/></g></svg>