<svg width="193" height="193" viewBox="0 0 193 193" xmlns="http://www.w3.org/2000/svg"><title>credit_cards</title><g fill="none" fill-rule="evenodd"><path fill="#FFF" d="M0 0h193v193H0z"/><path d="M185 131.79c0 3.684-2.906 6.578-6.604 6.578H54.23c-3.698 0-6.604-2.894-6.604-6.579V47.58c0-3.684 2.906-6.579 6.604-6.579h124.165c3.698 0 6.604 2.895 6.604 6.579v84.21z" stroke="#1485E0" stroke-width="4" fill="#C4E1F7"/><path fill="#1485E0" d="M48.948 52.842h134.73v18.421H48.949z"/><path fill="#FFF" d="M58.194 81.789h116.239v13.158H58.193z"/><g stroke-width="2" stroke="#1485E0"><path d="M174.433 106.79h-1.321"/><path d="M170.47 106.79H60.836" stroke-dasharray="2,2"/><path d="M59.515 106.79h-1.321"/></g><g stroke-width="2" stroke="#1485E0"><path d="M174.433 114.684h-1.321"/><path d="M170.47 114.684H60.836" stroke-dasharray="2,2"/><path d="M59.515 114.684h-1.321"/></g><path d="M145.373 159.421c0 3.684-2.906 6.579-6.604 6.579H14.604C10.906 166 8 163.105 8 159.421v-84.21c0-3.685 2.906-6.58 6.604-6.58H138.77c3.698 0 6.604 2.895 6.604 6.58v84.21z" stroke="#1485E0" stroke-width="4" fill="#FFF"/><g transform="translate(49.948 97.579)"><ellipse fill="#C4E1F7" cx="37.57" cy="18.421" rx="15.454" ry="15.395"/><ellipse fill="#1485E0" cx="15.511" cy="18.421" rx="15.454" ry="15.395"/><path d="M37.57 3.026c8.586 0 15.455 6.842 15.455 15.395S46.156 33.816 37.57 33.816 22.116 26.974 22.116 18.42s7-15.395 15.454-15.395zm0-2.631C27.531.395 19.474 8.42 19.474 18.42S27.53 36.447 37.57 36.447s18.096-8.026 18.096-18.026S47.61.395 37.57.395z" fill="#FFF"/></g></g></svg>