<svg width="193" height="193" viewBox="0 0 193 193" xmlns="http://www.w3.org/2000/svg" xmlns:xlink="http://www.w3.org/1999/xlink"><title>calculator</title><defs><path id="a" d="M115.888 162.953H8.112c-4.52 0-8.112-3.605-8.112-8.142V3.606C0 1.628 1.507.116 3.477.116h117.046c1.97 0 3.477 1.512 3.477 3.49V154.81c0 4.42-3.593 8.142-8.112 8.142z"/><path id="c" d="M0 0h119.364v48.851H0V0z"/><path id="e" d="M0 0h100.822v32.567H0V0z"/><path d="M100.822 2.326v30.241H2.318V2.327h98.504zM103.14 0H0v34.894h103.14V0z" id="g"/><path id="i" d="M115.888 162.953H8.112c-4.52 0-8.112-3.605-8.112-8.142V3.606C0 1.628 1.507.116 3.477.116h117.046c1.97 0 3.477 1.512 3.477 3.49V154.81c0 4.42-3.593 8.142-8.112 8.142"/><path id="k" d="M0 0h20.86v16.284H0V0z"/><path d="M20.86 2.326v13.958H2.318V2.326H20.86zM23.178 0H0v18.61h23.178V0z" id="m"/><path id="o" d="M0 0h20.86v16.284H0V0z"/><path d="M20.86 2.326v13.958H2.318V2.326H20.86zM23.178 0H0v18.61h23.178V0z" id="q"/><path id="s" d="M0 0h20.86v16.284H0V0z"/><path d="M20.86 2.326v13.958H2.318V2.326H20.86zM23.178 0H0v18.61h23.178V0z" id="u"/><path id="w" d="M0 0h20.86v16.284H0V0z"/><path d="M20.86 2.326v13.958H2.318V2.326H20.86zM23.178 0H0v18.61h23.178V0z" id="y"/><path id="A" d="M0 0h20.86v16.284H0V0z"/><path d="M20.86 2.326v13.958H2.318V2.326H20.86zM23.178 0H0v18.61h23.178V0z" id="C"/><path id="E" d="M0 0h20.86v16.284H0V0z"/><path d="M20.86 2.326v13.958H2.318V2.326H20.86zM23.178 0H0v18.61h23.178V0z" id="G"/><path id="I" d="M0 0h20.86v16.284H0V0z"/><path d="M20.86 2.326v13.958H2.318V2.326H20.86zM23.178 0H0v18.61h23.178V0z" id="K"/><path id="M" d="M0 0h20.86v16.284H0V0z"/><path d="M20.86 2.326v13.958H2.318V2.326H20.86zM23.178 0H0v18.61h23.178V0z" id="O"/><path id="Q" d="M0 0h20.86v16.284H0V0z"/><path d="M20.86 2.326v13.958H2.318V2.326H20.86zM23.178 0H0v18.61h23.178V0z" id="S"/><path id="U" d="M0 0h20.86v16.284H0V0z"/><path d="M20.86 2.326v13.958H2.318V2.326H20.86zM23.178 0H0v18.61h23.178V0z" id="W"/><path id="Y" d="M0 0h20.86v16.284H0V0z"/><path d="M20.86 2.326v13.958H2.318V2.326H20.86zM23.178 0H0v18.61h23.178V0z" id="aa"/><path id="ac" d="M0 0h20.86v16.284H0V0z"/><path d="M20.86 2.326v13.958H2.318V2.326H20.86zM23.178 0H0v18.61h23.178V0z" id="ae"/><path id="ag" d="M8.112 16.284C3.592 16.284 0 12.678 0 8.258V0h47.514v16.284H8.112z"/><path d="M47.514 2.326v13.958H9.271c-3.824 0-6.953-3.024-6.953-6.863V2.326h45.196zM49.832 0H0v9.421c0 5.118 4.172 9.189 9.271 9.189h40.56V0z" id="ai"/><path id="ak" d="M0 0h20.86v16.284H0V0z"/><path d="M20.86 2.326v13.958H2.318V2.326H20.86zM23.178 0H0v18.61h23.178V0z" id="am"/><path id="ao" d="M0 16.284V0h20.86v8.258c0 4.536-3.593 8.026-8.112 8.026H0z"/><path d="M20.86 2.326v7.095c0 3.839-3.13 6.863-6.953 6.863H2.317V2.326H20.86zM23.178 0H0v18.61h13.907c5.099 0 9.27-4.071 9.27-9.189V0z" id="aq"/><path d="M.58 3.606V2.094l1.042-1.047v2.908l-.463.465-.58-.814zm1.158 1.512v2.908L.695 6.979V5.467l.696-.698.347.349z" id="as"/><path d="M1.043 5.467v1.512L0 8.026V5.118l.464-.466.579.815zM4.403.814L3.362 1.861H1.275L.232.814h4.172zm0 7.444H.117L1.16 7.211h2.086l1.159 1.047zm-.926-4.303l.58.581-.58.582H1.159l-.58-.582.58-.581h2.318zm.116-.35v-1.51l1.043-1.047v2.791l-.464.466-.58-.698z" id="au"/><path d="M4.404.814L3.36 1.861H1.159L.116.814h4.288zm0 7.444H.116l1.043-1.047h2.086l1.159 1.047zM3.36 3.955l.58.581-.58.582H1.043l-.58-.582.58-.581h2.318zm.116-.35v-1.51L4.52 1.047v2.908l-.464.465-.58-.814zM4.52 5.119v2.908L3.477 6.979V5.467l.695-.698.348.349z" id="aw"/><path d="M0 3.955V1.047l1.043 1.047v1.512l-.695.698L0 3.954zm3.477 0l.58.581-.58.582H1.159l-.58-.582.58-.581h2.318zm.116-.35v-1.51l1.043-1.047v2.908l-.464.465-.58-.814zm1.043 1.513v2.908L3.593 6.979V5.467l.695-.698.348.349z" id="ay"/><path d="M0 3.838V.93l1.043 1.047V3.49l-.695.698L0 3.838zM4.404.814L3.36 1.861H1.275L.232.814h4.172zm0 7.444H.116l1.043-1.047h2.086l1.159 1.047zm-.927-4.303l.58.581-.58.582H1.159l-.58-.582.58-.581h2.318zm1.159 1.163v2.908L3.593 6.979V5.467l.695-.698.348.349z" id="aA"/><path d="M0 3.955V1.047l1.043 1.047v1.512l-.695.698L0 3.954zm1.043 1.512v1.512L0 8.026V5.118l.464-.466.579.815zM4.403.814L3.362 1.861H1.275L.232.814h4.172zm0 7.444H.117L1.16 7.211h2.086l1.159 1.047zm-.926-4.303l.58.581-.58.582H1.159l-.58-.582.58-.581h2.318zm1.159 1.163v2.908L3.593 6.979V5.467l.695-.698.348.349z" id="aC"/><path d="M4.404.814L3.36 1.861H1.159L.116.814h4.288zm-.927 2.792V2.094L4.52 1.047v2.908l-.464.465-.58-.814zM4.52 5.118v2.908L3.477 6.979V5.467l.695-.698.348.349z" id="aE"/><path d="M.58 3.955V1.047l1.042 1.047v1.512l-.695.698-.348-.35zm1.042 1.512v1.512L.58 8.026V5.118l.464-.466.58.815zM4.983.814L3.94 1.861H1.854L.811.814h4.172zm0 7.444H.695l1.043-1.047h2.086l1.16 1.047zm-.811-4.652V2.094l1.043-1.047v2.908l-.464.465-.579-.814zm1.043 1.512v2.908L4.172 6.979V5.467l.695-.698.348.349z" id="aG"/><path d="M2.086 2.21l-.58.581H.58L0 2.21l.58-.582h.927l.579.582zm.811-.698l-.58.582-.579-.582v-.93L2.318 0l.58.582v.93zm0 2.443l-.58.581-.579-.581v-.93l.58-.582.58.581v.93zM4.52 2.21l-.58.581h-.927l-.58-.581.58-.582h.927l.58.582z" id="aI"/><path d="M4.52 1.28l-.58.581H.58L0 1.279.58.698h3.36l.58.581zm0 1.86l-.58.582H.58L0 3.14l.58-.581h3.36l.58.581z" id="aK"/><path d="M.232 2.908L0 2.21l.695-.233.696.35.58.93H.926l-.695-.35zm.463 2.21L0 4.885l.232-.814.811-.465h1.043l-.58 1.046-.81.466zM2.897 2.21l-.58 1.047-.579-1.047v-.814l.58-.582.58.582v.814zm0 3.49l-.58.58-.579-.58v-.815l.58-1.047.58.93V5.7zm.927-.582l.812-.233-.232-.698-.811-.465h-1.16l.58 1.047.811.349zm-.116-1.745H2.55l.579-.93.695-.35.812.233-.232.698-.696.349z" id="aM"/><path id="aO" d="M4.52 1.047l-.58.581H.58L0 1.047.58.465h3.36l.58.582z"/><path d="M0 3.955V1.047l1.043 1.047v1.512l-.695.698L0 3.954zm1.043 1.512v1.512L0 8.026V5.118l.464-.466.579.815zM4.403.814L3.362 1.861H1.275L.232.814h4.172zm0 7.444H.117L1.16 7.211h2.086l1.159 1.047zm-.926-4.303l.58.581-.58.582H1.159l-.58-.582.58-.581h2.318zm.116-.35v-1.51l1.043-1.047v2.908l-.464.465-.58-.814zm1.043 1.513v2.908L3.593 6.979V5.467l.695-.698.348.349z" id="aQ"/><path d="M0 3.955V1.047l1.043 1.047v1.512l-.695.698L0 3.954zM4.404.815L3.36 1.86H1.275L.232.814h4.172zm0 7.443H.116l1.043-1.047h2.086l1.159 1.047zm-.927-4.303l.58.581-.58.582H1.159l-.58-.582.58-.581h2.318zm.116-.35v-1.51l1.043-1.047v2.908l-.464.465-.58-.814zm1.043 1.513v2.908L3.593 6.979V5.467l.695-.698.348.349z" id="aS"/><path d="M.232 5.467V2.443L2.434.233v5.699l-.812.814-1.39-1.28zM2.434 8.49v5.7L.232 11.98V8.955l1.39-1.396.812.93z" id="aU"/><path d="M2.318 10.235v3.025L.116 15.47v-5.7l.811-.814 1.39 1.28zM9.039.93L6.837 3.14H2.665L.464.93h8.575zm0 14.888H.58l2.202-2.21h4.172l2.086 2.21zm-1.97-8.49l1.043 1.046L7.07 9.421H2.434L1.39 8.374l1.043-1.046h4.635zm.232-.815V3.49l2.202-2.21v5.7l-.811.814L7.3 6.513z" id="aW"/><path id="aY" d="M.116 3.024V.814h2.202v2.21H.116z"/><path d="M1.043 7.095v-5.7l2.202 2.21V6.63l-1.39 1.396-.812-.931zM9.966.93L7.764 3.14H3.593L1.39.93h8.575zm0 14.888h-8.46l2.202-2.21H7.88l2.086 2.21zm-1.97-8.49L9.04 8.374 7.996 9.421H3.361L2.318 8.374 3.36 7.328h4.635zm2.318 2.326v5.7l-2.202-2.21v-3.025l1.39-1.396.812.93z" id="ba"/><path id="bc" d="M89.322.349H.348V41.29h73.97L89.321.349z"/><path d="M2.202 5.234L.348 8.491 0 7.095l1.275-2.094.811-.232.116.465zm-.116-1.628l1.275-2.21 1.39-.35-1.854 3.258-.463.116-.348-.814z" id="be"/></defs><g fill="none" fill-rule="evenodd"><path fill="#FFF" d="M0 0h193v193H0z"/><g transform="translate(37 16)"><mask id="b" fill="#fff"><use xlink:href="#a"/></mask><path d="M-5.794-5.7h135.588v174.47H-5.794V-5.7z" fill="#C4E1F7" mask="url(#b)"/></g><g transform="translate(39.318 18.326)"><mask id="d" fill="#fff"><use xlink:href="#c"/></mask><path d="M-5.794-5.816h130.953v60.483H-5.794V-5.816z" fill="#FFF" mask="url(#d)"/></g><g transform="translate(48.589 26.468)"><mask id="f" fill="#fff"><use xlink:href="#e"/></mask><path d="M-5.794-5.816h112.41v44.199H-5.793V-5.816z" fill="#C4E1F7" mask="url(#f)"/></g><g transform="translate(47.43 25.305)"><mask id="h" fill="#fff"><use xlink:href="#g"/></mask><path d="M-5.794-5.816h114.729V40.71H-5.795V-5.816z" fill="#1485E0" mask="url(#h)"/></g><g transform="translate(37 16)"><mask id="j" fill="#fff"><use xlink:href="#i"/></mask><path d="M1.159 52.34h120.523" stroke="#1485E0" stroke-width="2" mask="url(#j)"/></g><g transform="translate(48.589 77.645)"><mask id="l" fill="#fff"><use xlink:href="#k"/></mask><path d="M-5.794-5.816h32.448V22.1H-5.794V-5.816z" fill="#FFF" mask="url(#l)"/></g><g transform="translate(47.43 76.482)"><mask id="n" fill="#fff"><use xlink:href="#m"/></mask><path d="M-5.794-5.816h34.766v30.242H-5.794V-5.816z" fill="#1485E0" mask="url(#n)"/></g><g transform="translate(75.243 77.645)"><mask id="p" fill="#fff"><use xlink:href="#o"/></mask><path d="M-5.794-5.816h32.448V22.1H-5.794V-5.816z" fill="#FFF" mask="url(#p)"/></g><g transform="translate(74.084 76.482)"><mask id="r" fill="#fff"><use xlink:href="#q"/></mask><path d="M-5.794-5.816h34.766v30.242H-5.794V-5.816z" fill="#1485E0" mask="url(#r)"/></g><g transform="translate(101.897 77.645)"><mask id="t" fill="#fff"><use xlink:href="#s"/></mask><path d="M-5.794-5.816h32.448V22.1H-5.794V-5.816z" fill="#FFF" mask="url(#t)"/></g><g transform="translate(100.738 76.482)"><mask id="v" fill="#fff"><use xlink:href="#u"/></mask><path d="M-5.794-5.816h34.766v30.242H-5.794V-5.816z" fill="#1485E0" mask="url(#v)"/></g><g transform="translate(128.551 77.645)"><mask id="x" fill="#fff"><use xlink:href="#w"/></mask><path d="M-5.794-5.816h32.448V22.1H-5.794V-5.816z" fill="#FFF" mask="url(#x)"/></g><g transform="translate(127.393 76.482)"><mask id="z" fill="#fff"><use xlink:href="#y"/></mask><path d="M-5.794-5.816h34.766v30.242H-5.794V-5.816z" fill="#1485E0" mask="url(#z)"/></g><g transform="translate(48.589 100.908)"><mask id="B" fill="#fff"><use xlink:href="#A"/></mask><path d="M-5.794-5.816h32.448V22.1H-5.794V-5.816z" fill="#FFF" mask="url(#B)"/></g><g transform="translate(47.43 99.745)"><mask id="D" fill="#fff"><use xlink:href="#C"/></mask><path d="M-5.794-5.816h34.766v30.242H-5.794V-5.816z" fill="#1485E0" mask="url(#D)"/></g><g transform="translate(75.243 100.908)"><mask id="F" fill="#fff"><use xlink:href="#E"/></mask><path d="M-5.794-5.816h32.448V22.1H-5.794V-5.816z" fill="#FFF" mask="url(#F)"/></g><g transform="translate(74.084 99.745)"><mask id="H" fill="#fff"><use xlink:href="#G"/></mask><path d="M-5.794-5.816h34.766v30.242H-5.794V-5.816z" fill="#1485E0" mask="url(#H)"/></g><g transform="translate(101.897 100.908)"><mask id="J" fill="#fff"><use xlink:href="#I"/></mask><path d="M-5.794-5.816h32.448V22.1H-5.794V-5.816z" fill="#FFF" mask="url(#J)"/></g><g transform="translate(100.738 99.745)"><mask id="L" fill="#fff"><use xlink:href="#K"/></mask><path d="M-5.794-5.816h34.766v30.242H-5.794V-5.816z" fill="#1485E0" mask="url(#L)"/></g><g transform="translate(128.551 100.908)"><mask id="N" fill="#fff"><use xlink:href="#M"/></mask><path d="M-5.794-5.816h32.448V22.1H-5.794V-5.816z" fill="#FFF" mask="url(#N)"/></g><g transform="translate(127.393 99.745)"><mask id="P" fill="#fff"><use xlink:href="#O"/></mask><path d="M-5.794-5.816h34.766v30.242H-5.794V-5.816z" fill="#1485E0" mask="url(#P)"/></g><g transform="translate(48.589 124.17)"><mask id="R" fill="#fff"><use xlink:href="#Q"/></mask><path d="M-5.794-5.816h32.448V22.1H-5.794V-5.816z" fill="#FFF" mask="url(#R)"/></g><g transform="translate(47.43 123.007)"><mask id="T" fill="#fff"><use xlink:href="#S"/></mask><path d="M-5.794-5.816h34.766v30.242H-5.794V-5.816z" fill="#1485E0" mask="url(#T)"/></g><g transform="translate(75.243 124.17)"><mask id="V" fill="#fff"><use xlink:href="#U"/></mask><path d="M-5.794-5.816h32.448V22.1H-5.794V-5.816z" fill="#FFF" mask="url(#V)"/></g><g transform="translate(74.084 123.007)"><mask id="X" fill="#fff"><use xlink:href="#W"/></mask><path d="M-5.794-5.816h34.766v30.242H-5.794V-5.816z" fill="#1485E0" mask="url(#X)"/></g><g transform="translate(101.897 124.17)"><mask id="Z" fill="#fff"><use xlink:href="#Y"/></mask><path d="M-5.794-5.816h32.448V22.1H-5.794V-5.816z" fill="#FFF" mask="url(#Z)"/></g><g transform="translate(100.738 123.007)"><mask id="ab" fill="#fff"><use xlink:href="#aa"/></mask><path d="M-5.794-5.816h34.766v30.242H-5.794V-5.816z" fill="#1485E0" mask="url(#ab)"/></g><g transform="translate(128.551 124.17)"><mask id="ad" fill="#fff"><use xlink:href="#ac"/></mask><path d="M-5.794-5.816h32.448V22.1H-5.794V-5.816z" fill="#FFF" mask="url(#ad)"/></g><g transform="translate(127.393 123.007)"><mask id="af" fill="#fff"><use xlink:href="#ae"/></mask><path d="M-5.794-5.816h34.766v30.242H-5.794V-5.816z" fill="#1485E0" mask="url(#af)"/></g><g transform="translate(48.589 147.433)"><mask id="ah" fill="#fff"><use xlink:href="#ag"/></mask><path d="M-5.794-5.816h59.102V22.1H-5.794V-5.816z" fill="#FFF" mask="url(#ah)"/></g><g transform="translate(47.43 146.27)"><mask id="aj" fill="#fff"><use xlink:href="#ai"/></mask><path d="M-5.794-5.816h61.42v30.242h-61.42V-5.816z" fill="#1485E0" mask="url(#aj)"/></g><g transform="translate(101.897 147.433)"><mask id="al" fill="#fff"><use xlink:href="#ak"/></mask><path d="M-5.794-5.816h32.448V22.1H-5.794V-5.816z" fill="#FFF" mask="url(#al)"/></g><g transform="translate(100.738 146.27)"><mask id="an" fill="#fff"><use xlink:href="#am"/></mask><path d="M-5.794-5.816h34.766v30.242H-5.794V-5.816z" fill="#1485E0" mask="url(#an)"/></g><g transform="translate(128.551 147.433)"><mask id="ap" fill="#fff"><use xlink:href="#ao"/></mask><path d="M-5.794-5.816h32.448V22.1H-5.794V-5.816z" fill="#FFF" mask="url(#ap)"/></g><g transform="translate(127.393 146.27)"><mask id="ar" fill="#fff"><use xlink:href="#aq"/></mask><path d="M-5.794-5.816h34.766v30.242H-5.794V-5.816z" fill="#1485E0" mask="url(#ar)"/></g><g transform="translate(57.86 81.135)"><mask id="at" fill="#fff"><use xlink:href="#as"/></mask><path d="M-5.215-4.769H7.533v18.61H-5.215v-18.61z" fill="#1485E0" mask="url(#at)"/></g><g transform="translate(83.355 81.135)"><mask id="av" fill="#fff"><use xlink:href="#au"/></mask><path d="M-5.794-5.001H10.43v19.075H-5.794V-5.001z" fill="#1485E0" mask="url(#av)"/></g><g transform="translate(110.01 81.135)"><mask id="ax" fill="#fff"><use xlink:href="#aw"/></mask><path d="M-5.679-5.001h15.993v19.075H-5.679V-5.001z" fill="#1485E0" mask="url(#ax)"/></g><g transform="translate(56.7 104.397)"><mask id="az" fill="#fff"><use xlink:href="#ay"/></mask><path d="M-5.794-4.769H10.43v18.61H-5.794v-18.61z" fill="#1485E0" mask="url(#az)"/></g><g transform="translate(83.355 104.397)"><mask id="aB" fill="#fff"><use xlink:href="#aA"/></mask><path d="M-5.794-5.001H10.43v19.075H-5.794V-5.001z" fill="#1485E0" mask="url(#aB)"/></g><g transform="translate(110.01 104.397)"><mask id="aD" fill="#fff"><use xlink:href="#aC"/></mask><path d="M-5.794-5.001H10.43v19.075H-5.794V-5.001z" fill="#1485E0" mask="url(#aD)"/></g><g transform="translate(56.7 127.66)"><mask id="aF" fill="#fff"><use xlink:href="#aE"/></mask><path d="M-5.679-5.001h15.993V13.84H-5.679V-5z" fill="#1485E0" mask="url(#aF)"/></g><g transform="translate(69.449 150.922)"><mask id="aH" fill="#fff"><use xlink:href="#aG"/></mask><path d="M-5.215-5.001h16.224v19.075H-5.215V-5.001z" fill="#1485E0" mask="url(#aH)"/></g><g transform="translate(110.01 153.248)"><mask id="aJ" fill="#fff"><use xlink:href="#aI"/></mask><path d="M-5.794-5.816h16.108v16.168H-5.794V-5.816z" fill="#1485E0" mask="url(#aJ)"/></g><g transform="translate(136.664 153.248)"><mask id="aL" fill="#fff"><use xlink:href="#aK"/></mask><path d="M-5.794-5.118h16.108V9.538H-5.794V-5.118z" fill="#1485E0" mask="url(#aL)"/></g><g transform="translate(136.664 105.56)"><mask id="aN" fill="#fff"><use xlink:href="#aM"/></mask><path d="M-5.794-5.001H10.43v17.097H-5.794V-5z" fill="#1485E0" mask="url(#aN)"/></g><g transform="translate(136.664 84.624)"><mask id="aP" fill="#fff"><use xlink:href="#aO"/></mask><path d="M-5.794-5.35h16.108V7.444H-5.794V-5.35z" fill="#1485E0" mask="url(#aP)"/></g><g transform="translate(83.355 127.66)"><mask id="aR" fill="#fff"><use xlink:href="#aQ"/></mask><path d="M-5.794-5.001H10.43v19.075H-5.794V-5.001z" fill="#1485E0" mask="url(#aR)"/></g><g transform="translate(110.01 127.66)"><mask id="aT" fill="#fff"><use xlink:href="#aS"/></mask><path d="M-5.794-5.001H10.43v19.075H-5.794V-5.001z" fill="#1485E0" mask="url(#aT)"/></g><g transform="translate(104.215 35.773)"><mask id="aV" fill="#fff"><use xlink:href="#aU"/></mask><path d="M-5.563-5.583H8.228v25.589h-13.79V-5.583z" fill="#1485E0" mask="url(#aV)"/></g><g transform="translate(110.01 34.61)"><mask id="aX" fill="#fff"><use xlink:href="#aW"/></mask><path d="M-5.679-4.885h20.976v26.519H-5.679v-26.52z" fill="#1485E0" mask="url(#aX)"/></g><g transform="translate(121.598 47.404)"><mask id="aZ" fill="#fff"><use xlink:href="#aY"/></mask><path d="M-5.679-5.001H8.112v13.84h-13.79V-5z" fill="#1485E0" mask="url(#aZ)"/></g><g transform="translate(125.075 34.61)"><mask id="bb" fill="#fff"><use xlink:href="#ba"/></mask><path d="M-4.751-4.885h20.86v26.519h-20.86v-26.52z" fill="#1485E0" mask="url(#bb)"/></g><g transform="translate(43.953 21.816)"><mask id="bd" fill="#fff"><use xlink:href="#bc"/></mask><path d="M-97.346-90.607h223.664v214.014H-97.346V-90.607z" fill-opacity=".44" fill="#FFF" mask="url(#bd)"/></g><g transform="translate(136.664 127.66)"><mask id="bf" fill="#fff"><use xlink:href="#be"/></mask><path d="M-5.794-4.769h16.34v19.075h-16.34V-4.769z" fill="#1485E0" mask="url(#bf)"/></g><path d="M152.888 178.953H45.112c-4.52 0-8.112-3.605-8.112-8.142V19.606c0-1.978 1.507-3.49 3.477-3.49h117.046c1.97 0 3.477 1.512 3.477 3.49V170.81c0 4.42-3.593 8.142-8.112 8.142z" stroke="#1485E0" stroke-width="3.986"/></g></svg>