<svg width="95" height="43" viewBox="0 0 95 43" xmlns="http://www.w3.org/2000/svg"><title>tnw</title><defs><linearGradient x1="8.801%" y1="26.504%" x2="38.99%" y2="40.619%" id="a"><stop stop-color="#DEDEDE" offset="0%"/><stop stop-color="#FFF" offset="75%"/></linearGradient><linearGradient x1="-4.9%" y1="41.386%" x2="87.084%" y2="60.335%" id="b"><stop stop-color="#DEDEDE" offset="0%"/><stop stop-color="#FFF" offset="75%"/></linearGradient><linearGradient x1="10.153%" y1="54.079%" x2="106.954%" y2="38.049%" id="c"><stop stop-color="#FFF" offset="0%"/><stop stop-color="#FFF" offset="70%"/><stop stop-color="#DEDEDE" offset="100%"/></linearGradient></defs><g fill="none" fill-rule="evenodd"><path d="M84.832.001L80.184 13.89 77.32 2.568C76.67 0 75.835 0 75.36 0c0 0-1.043 0-2.085.302L71.03 10.388l4.336 19.563h8.656L94.966.001H84.832z" fill="url(#a)"/><path d="M62.98 13.925L59.424 2.592C58.664.17 57.574 0 56.914 0c0 0-1.241 0-2.556.302v17.6l4.644 12.05h1.358l4.544-.303-1.924-15.724z" fill="url(#b)"/><path d="M75.36.002L67.5.004c-.587 0-2.14-.002-2.57 2.564l-4.57 27.383h7.165L73.42 2.568C73.972.001 75.184.002 75.36.002z" fill="#FFF"/><path d="M27.758.302s-1.267-.3-2.533-.3H0l3.127 8.556h7.742v21.393h8.444V8.558h8.445V.302z" fill="url(#c)"/><path d="M48.869 0c-1.4 0-2.533 1.15-2.533 2.568v10.798L37.228 1.697A4.29 4.29 0 0 0 33.865.006L25.225 0s2.11 0 2.11 2.568v27.383h8.445V13.634L47.272 28.36a4.192 4.192 0 0 0 3.315 1.591h4.193V2.568c0-1.517.954-2.568 2.133-2.568H48.87zM5.126 42.787V37.36h-1.95v-1.222H8.53v1.222H6.57v5.427H5.126zm6.206 0v-6.649h1.446v2.579h2.58v-2.579h1.445v6.65h-1.445v-2.84h-2.58v2.84h-1.446zm8.752 0v-6.649h4.468v1.222H21.53v1.429h2.19v1.159h-2.19V41.6h3.183v1.186h-4.628zm11.863 0v-6.649h1.446l2.748 4.241h.018v-4.24h1.33v6.648h-1.33l-2.864-4.277h-.018v4.277h-1.33zm8.823 0v-6.649h4.468v1.222h-3.023v1.429h2.19v1.159h-2.19V41.6h3.183v1.186H40.77zm7.155 0l2.101-3.513-1.915-3.136h1.65l1.17 1.995 1.108-1.995h1.49l-1.871 3.145 2.128 3.504H52.18l-1.392-2.327-1.348 2.327h-1.516zm10.223 0V37.36h-1.95v-1.222h5.355v1.222h-1.96v5.427h-1.445zm11.784 0l-1.747-6.649h1.454l.692 3.028c.16.61.266 1.096.32 1.456h.017c.047-.335.148-.818.301-1.447l.665-3.037h1.33l.71 3.055c.177.76.28 1.237.31 1.429h.018c.035-.258.133-.728.293-1.41l.664-3.074h1.33l-1.71 6.65h-1.233l-1.038-4.628h-.017l-1.109 4.627h-1.25zm9.15 0v-6.649h4.469v1.222h-3.024v1.429h2.19v1.159h-2.19V41.6h3.184v1.186h-4.629zm7.546 0v-6.649h2.624c1.56 0 2.341.548 2.341 1.645 0 .443-.117.79-.35 1.042a1.614 1.614 0 0 1-.9.485v.018c.952.174 1.427.716 1.427 1.626 0 .624-.227 1.085-.682 1.384-.455.3-1.023.45-1.702.45h-2.758zm1.418-3.908h1.064c.733 0 1.1-.267 1.1-.8 0-.54-.36-.809-1.082-.809h-1.082v1.609zm0 2.794h1.162c.768 0 1.153-.297 1.153-.89 0-.58-.405-.871-1.215-.871h-1.1v1.761z" fill="#FFF"/></g></svg>