<svg width="193" height="193" viewBox="0 0 193 193" xmlns="http://www.w3.org/2000/svg" xmlns:xlink="http://www.w3.org/1999/xlink"><title>clock</title><defs><ellipse id="a" cx="49.587" cy="49.286" rx="48.538" ry="48.629"/><ellipse id="c" cx="49.587" cy="49.286" rx="48.538" ry="48.629"/><ellipse id="e" cx="49.587" cy="49.286" rx="48.538" ry="48.629"/><ellipse id="g" cx="49.587" cy="49.286" rx="48.538" ry="48.629"/><ellipse id="i" cx="49.587" cy="49.286" rx="48.538" ry="48.629"/><ellipse id="k" cx="49.587" cy="49.286" rx="48.538" ry="48.629"/><ellipse id="m" cx="49.587" cy="49.286" rx="48.538" ry="48.629"/><ellipse id="o" cx="48.587" cy="49.286" rx="48.538" ry="48.629"/></defs><g fill="none" fill-rule="evenodd"><path fill="#FFF" d="M0 0h193v193H0z"/><ellipse stroke="#1485E0" stroke-width="2" cx="90.394" cy="28.943" rx="26.237" ry="26.286"/><path stroke="#1485E0" stroke-width="2" fill="#FFF" d="M85.409 53.257h10.495v15.771H85.409z"/><ellipse stroke="#1485E0" stroke-width="4.182" fill="#C4E1F7" cx="90.394" cy="124.886" rx="60.344" ry="60.457"/><g transform="translate(40.806 75.6)"><mask id="b" fill="#fff"><use xlink:href="#a"/></mask><ellipse stroke="#1485E0" stroke-width="2" fill="#FFF" mask="url(#b)" cx="49.587" cy="49.286" rx="47.226" ry="47.314"/></g><g transform="translate(40.806 75.6)"><mask id="d" fill="#fff"><use xlink:href="#c"/></mask><ellipse stroke="#FFF" fill="#FFF" mask="url(#d)" cx="49.587" cy="49.286" rx="34.108" ry="34.171"/></g><g transform="translate(40.806 75.6)"><mask id="f" fill="#fff"><use xlink:href="#e"/></mask><path d="M49.587 49.286l-20.99-21.029" stroke="#1485E0" stroke-width="2" mask="url(#f)"/></g><g transform="translate(40.806 75.6)"><mask id="h" fill="#fff"><use xlink:href="#g"/></mask><path d="M49.85 49.943h30.172" stroke="#1485E0" stroke-width="2" mask="url(#h)"/></g><g transform="translate(40.806 75.6)"><mask id="j" fill="#fff"><use xlink:href="#i"/></mask><path d="M65.329 34.829L49.587 49.286" stroke="#1485E0" stroke-width="2" mask="url(#j)"/></g><g transform="translate(40.806 75.6)"><mask id="l" fill="#fff"><use xlink:href="#k"/></mask><ellipse stroke="#1485E0" stroke-width="2" fill="#FFF" mask="url(#l)" cx="49.587" cy="49.286" rx="3.935" ry="3.943"/></g><g transform="translate(40.806 75.6)"><mask id="n" fill="#fff"><use xlink:href="#m"/></mask><g mask="url(#n)" stroke="#1485E0"><path d="M49.587 17.743V5.914m-3.935 5.52l-.525-5.257m-3.411 5.783l-1.05-5.126m-2.754 6.177l-1.706-4.994m-2.098 6.44l-2.1-4.731m-1.442 6.571l-2.624-4.6m-.656 6.703l-3.148-4.206m0 6.703l-3.411-3.811m.656 6.703l-3.936-3.549m1.443 6.703l-4.329-3.154m2.099 6.44L12.2 27.6m2.755 6.177L10.1 31.674m3.412 5.783L8.527 35.88m3.935 5.52l-5.116-1.183m4.46 5.126l-5.247-.526m11.544 4.469H6.297m5.509 3.943l-5.247.525m5.903 3.417l-5.116 1.183m6.166 2.76l-4.985 1.577m6.428 2.103L10.1 66.897m6.56 1.446L12.2 70.97m6.69.659l-4.329 3.154m6.822 0l-3.936 3.548m6.691-.657l-3.411 3.812m6.559-1.315l-3.148 4.206m6.428-2.103l-2.624 4.6m6.166-2.76l-2.1 4.732m5.904-3.286l-1.706 4.994m5.51-3.943l-1.05 5.126m4.986-4.6l-.525 5.257m4.46-11.565v11.828m4.067-5.52l.524 5.257m3.412-5.783l1.049 5.126m2.755-6.177l1.574 4.994m2.099-6.44l2.23 4.732m1.312-6.572l2.623 4.6m.788-6.703l3.017 4.206m0-6.703l3.541 3.812m-.655-6.703l3.935 3.548m-1.443-6.702l4.198 3.154m-1.968-6.44l4.46 2.628m-2.755-6.177l4.854 2.103m-3.41-5.783l4.984 1.577m-3.935-5.52l5.116 1.183m-4.46-5.125l5.247.525m-11.675-4.468h11.806m-5.378-3.943l5.247-.526M86.843 41.4l5.116-1.183m-6.165-2.76l4.984-1.577m-6.428-2.103l4.854-2.103m-6.559-1.445l4.46-2.629m-6.69-.657l4.198-3.154m-6.69 0l3.935-3.549m-6.821.657l3.541-3.811M72.02 18.4l3.017-4.206m-6.428 2.103l2.623-4.6m-6.165 2.76l2.23-4.731m-5.903 3.285l1.574-4.994M57.59 11.96l1.049-5.126m-4.985 4.6l.524-5.257"/></g></g><g transform="translate(41.806 75.6)"><mask id="p" fill="#fff"><use xlink:href="#o"/></mask><path d="M7.92 161.657h-155.845V-67.029H91.877L7.92 161.657z" opacity=".44" fill="#FFF" mask="url(#p)"/></g><g stroke="#1485E0"><path d="M102.725 36.171H79.637c-3.018 0-5.904.526-5.904 3.68v14.72h34.108v-14.72c-.131-3.154-2.1-3.68-5.116-3.68z" stroke-width="4" fill="#FFF"/><path d="M78.587 42.086h28.86m-28.86 5.257h28.86" stroke-width="2" stroke-dasharray="2,2"/></g></g></svg>