<svg width="211" height="32" viewBox="0 0 211 32" xmlns="http://www.w3.org/2000/svg"><title>fastCompany</title><g fill="#FFF" fill-rule="evenodd"><path d="M100.16 9.025c0 4.187-.423 17.171-.423 17.171 0 2.513.843 3.63 3.231 3.63v1.117h-9.41v-1.117c2.389 0 3.652-1.117 3.652-3.63l.843-21.22c-.702-1.675-1.404-2.233-3.23-2.373v-.977h7.162l7.582 19.823 7.723-19.823h6.46v.977c-1.825 0-2.809.838-2.809 2.792l.843 20.521c0 3.072.561 3.91 3.089 3.91v1.117H114.06v-1.117c2.107 0 3.09-.698 2.95-3.91 0 0-.422-14.378-.562-16.89l-5.196 14.24a52.964 52.964 0 0 0-1.966 6.14l-1.684.14c-.422-1.534-1.545-4.326-1.545-4.326s-4.354-12.146-5.898-16.195m-8.846 22.058c-.563-.14-1.124-.14-1.686-.14-1.123 0-3.088.558-5.476.558-9.128 0-15.868-5.445-15.868-15.496 0-8.516 6.32-15.077 16.009-15.077 2.247 0 4.774.418 6.88 1.256.421-.42.562-.698.983-1.117h.842c-.14 1.536-.702 6.562-.702 6.562h-.843c-.561-2.932-2.106-4.886-7.02-4.886-5.898 0-11.234 4.606-11.234 13.122 0 9.633 5.476 13.822 11.514 13.822 3.933 0 6.32-2.235 7.865-5.026l.982.419-2.246 6.003M64.773 7.07h-.983c-.14-2.653-.984-3.49-3.089-3.49H56.63v21.918c0 3.63.702 4.328 3.089 4.328v1.117H49.186v-1.117c2.387 0 3.09-.698 3.09-4.468V3.58h-4.073c-2.668 0-3.09.699-3.792 3.49h-.982l.702-6.282.702.14c.28.698.843.698 2.528.698h13.62c2.528 0 3.09 0 3.652-.838h.843l-.703 6.282"/><path d="M35.003 31.64c-1.965 0-3.51-.278-4.633-.697-1.123-.279-1.966-.698-2.387-.977-.561.558-.983 1.257-.983 1.257l-.843-.28.702-6.561.983.14c.562 3.07 2.668 5.304 7.022 5.304 3.37 0 5.616-2.792 5.616-5.863 0-2.514-.982-3.77-4.353-6.282-1.124-.698-2.106-1.257-2.949-1.955-3.09-1.954-5.054-4.188-5.054-7.818 0-4.189 3.51-6.98 8.144-6.98 2.668 0 4.352.837 4.914 1.116l.983-1.116.703.139-.703 6.003-.983-.139c0-2.792-1.684-4.049-4.493-4.049-2.668 0-4.634 1.397-4.634 4.049 0 2.373 1.825 3.909 3.932 5.305 1.123.698 1.966 1.256 2.808 1.814 4.915 3.49 6.038 5.725 6.038 9.075 0 4.887-3.792 8.516-9.83 8.516M18.996 7.07h-1.123c0-2.513-1.124-3.49-3.371-3.49H8.184v11.03h4.072c2.106 0 2.527-1.117 2.808-2.931h.983v7.817h-.983c-.28-2.094-.702-2.93-2.949-2.93H8.184v9.351c0 3.49.843 3.91 3.088 3.91v1.117H.601v-1.117c2.668 0 3.089-.698 3.089-3.91V5.395c0-1.954-.842-2.792-3.09-2.792v-.977h14.604c2.528 0 3.09-.14 3.51-.978h.984l-.702 6.422M170.51 8.745v16.753c0 3.63.842 4.328 3.09 4.328v1.117h-16.57v-1.117c1.263 0 2.387-.42 2.387-1.256 0-.558-.14-1.536-.422-2.514l-1.264-4.048h-9.267c-.14.558-1.826 5.166-1.826 6.422 0 1.117 1.265 1.396 2.106 1.396v1.117h-7.722v-1.117c1.403 0 2.527-.14 3.51-3.072L151.693 4c-.421-.978-.984-1.256-1.966-1.396v-.977h6.318l7.583 23.872c.702 2.514 1.404 3.77 2.528 4.328 1.685-.558 2.105-1.117 2.105-4.328V5.395c-1.263-1.676-1.403-2.792-3.79-2.792v-.977h7.16l11.796 19.963V6.373c0-3.072-.702-3.77-3.089-3.77v-.977h15.728v.977c-.984 0-1.827.418-1.827 1.396 0 .698.282 1.396.562 2.234l4.494 9.632 4.354-9.354c.7-1.256.841-1.954.841-2.652 0-.838-.561-1.256-1.825-1.256v-.977h7.442v.977c-1.825 0-2.949 1.676-3.79 3.63l-5.758 11.726v7.679c0 3.35.842 4.188 3.09 4.188v1.117h-10.673v-1.117c2.247 0 3.09-.838 3.09-4.188v-6.561l-6.179-12.984c-1.124-2.513-1.545-3.072-2.247-3.49-1.404.558-1.825 1.536-1.825 3.77v21.499s.14 1.675.28 3.629l-1.825.14-13.762-22.896zM152.956 7.35l-3.931 12.704h8.144L152.957 7.35z"/><path d="M135.545 20.053h-2.106v6.003c0 3.072.842 3.77 3.23 3.77v1.117h-10.813v-1.117c2.247 0 3.089-.838 3.089-3.91V6.233c0-3.072-.842-3.63-3.089-3.63v-.977H134c7.864 0 12.497 2.373 12.497 8.794 0 6.702-5.616 9.633-10.952 9.633zM134.141 3.58h-.702v14.38h1.264c4.633 0 7.02-2.095 7.02-7.4s-2.105-6.98-7.582-6.98zM86.539 25.358c-5.337 0-8.988-3.769-8.988-9.213 0-5.165 3.791-9.214 8.988-9.214 5.054 0 8.846 3.909 8.846 9.214 0 5.165-3.933 9.213-8.846 9.213zm0-16.752c-3.652 0-4.915 3.49-4.915 7.539 0 3.77 1.123 7.539 4.915 7.539 3.65 0 4.774-3.77 4.774-7.68 0-3.768-1.404-7.398-4.774-7.398zM24.754 23.684v-.978c1.403 0 1.684-.419 1.684-.837 0-.56-.14-.978-.281-1.396 0 0-.28-1.118-.562-1.956H20.12l-.562 1.816c-.14.418-.28.838-.28 1.396 0 .558.562.977 1.405.977v.978h-5.478v-.978c1.404 0 1.967-.419 2.528-1.955l4.213-12.564c-.14-.558-.562-.978-1.404-.978v-.976h4.493c3.651 10.61 4.634 13.402 4.634 13.402.702 2.373 1.404 3.07 2.528 3.07v.979h-7.442zm-1.967-13.542l-2.105 6.84h4.352l-2.247-6.84z"/></g></svg>