<svg width="167" height="39" viewBox="0 0 167 39" xmlns="http://www.w3.org/2000/svg"><title>recode</title><path d="M17.988 9.816l.072 22.706 3.945-.036.905-.725-.072-14.618s.027-1.086 2.05-2.225c2.625-1.478 4.208-1.446 4.208-1.446s1.978 2.366 2.066-.624c.092-3.152-.092-3.052-1.696-3.168-.971-.065-2.765.069-4.793 1.475-.621.431-1.835.257-1.835.257V9.925l-4.85-.11zm33.159 28.411l4.862.051L68.703 1.55h-5.016l-12.54 36.677zm19.299-26.835l-4.103 12.6s-.26 3.057 2.165 5.306c2.662 2.468 3.984 2.976 5.215 3.012 1.23.037 4.7.356 5.812-.426a61.445 61.445 0 0 0 1.896-1.43l-1.667-3.417s-2.024 1.604-4.739.842c-2.714-.761-3.293-3.627-3.293-3.627s-.688-4.715.108-6.275c.797-1.56 1.86-2.764 2.838-3.236.977-.471 2.059-.665 2.962-.044 1.021.7 1.507 1.432 1.507 1.432l2.166-3.95s-.012.696-1.889-.958c-1.137-1.001-7.246-1.964-8.978.171zM93.519 9.78s-3.185-.871-6.949 3.41c-3.764 4.28-3.72 13.549.652 17.337 4.19 3.633 9.223 3.122 13.028.218 3.916-2.99 3.62-14.8.652-18.136-2.968-3.337-7.383-2.83-7.383-2.83zm2.758 5.97s-2.389-2.684-5.067-.145c-2.678 2.539-1.396 9.667-.58 10.446 1.225 1.168 3.77 2.966 5.864.363 1.81-2.249 1.81-8.85-.217-10.664zm59.201-5.97l11.509 11.389-11.437 11.027-.072-7.037 4.343-3.917-4.27-4.426-.073-7.037zm-142.484.036L1.39 21.323 12.647 32.64l.072-6.96-4.402-4.272 4.662-4.8.015-6.792zm37.161 12.855s.745-2.548 1.22-4.075c.648-2.087.429-3.23-.714-5.167-1.338-2.267-4.408-3.36-5.493-3.504-1.086-.146-4.67-.073-5.827.507-1.158.58-4.56 3.591-5.14 7.073-.578 3.483.297 9.232 1.125 10.593 1.121 1.843 3.47 3.808 6.076 4.171 2.606.363 2.163.12 5.138-.036.575-.03.758-1.273 1.435-2.693.645-1.283 1.25-3.046 1.25-3.046s-1.936 1.46-3.297 1.896c-.624.2-3.185.36-4.126-.33-.941-.688-2.078-2.335-2.356-3.081-.47-1.264-.359-2.323-.359-2.323l11.068.015zm-11.14-3.243h9.048s.108-2.938-1.194-4.135c-1.303-1.197-1.665-1.233-2.715-1.378-1.05-.146-2.388.108-2.895.544-.507.435-1.05.507-1.629 1.487-.579.98-.615 3.482-.615 3.482zm82.299-18.354l5.862.145.218 31.847-6.008.073-.072-2.322s-.797 3.845-8.47 2.032c-7.672-1.814-6.152-16.258-3.329-20.175 2.823-3.917 9.482-2.321 10.134-1.886.651.435 1.594 1.523 1.594 1.523l.07-11.237zm-7.311 15.815s-.727.783-.829 2.79c-.116 2.288-.036 5.373 1.408 7.076 2.461 2.902 5.481.178 6.008-.798.724-1.342 1.028-7.987-.68-9.54-2.854-2.577-4.224-1.287-5.907.472zm23.175 5.371l13.262.026s.874-5.044-2.93-9.715c-2.01-2.47-5.447-3.126-8.217-2.732-3.438.489-4.816 2.111-5.85 3.596-1.178 1.691-2.34 12.286.99 15.522 4.003 3.89 6.836 4.527 11.823 2.658 2.133-.799 3.533-2.916 3.533-2.916l-2.592-2.466s-1.722 2.19-5.052 2.19c-3.625-.239-5.455-3.975-4.967-6.162zm-.297-3.268h8.966s.08-5-4.484-5.001c-5.212-.003-4.482 5-4.482 5z" stroke="#FFF" fill="#FFF" fill-rule="evenodd"/></svg>