<?xml version="1.0" encoding="UTF-8" standalone="no"?>
<!DOCTYPE svg PUBLIC "-//W3C//DTD SVG 1.1//EN" "http://www.w3.org/Graphics/SVG/1.1/DTD/svg11.dtd">
<svg width="100%" height="100%" viewBox="0 0 2231 1531" version="1.1" xmlns="http://www.w3.org/2000/svg" xmlns:xlink="http://www.w3.org/1999/xlink" xml:space="preserve" xmlns:serif="http://www.serif.com/" style="fill-rule:evenodd;clip-rule:evenodd;stroke-linejoin:round;stroke-miterlimit:1.41421;">
    <g transform="matrix(1,0,0,1,-512.442,-312.583)">
        <g>
            <g>
                <g transform="matrix(0.859324,0,0,0.859324,261.171,259.289)">
                    <path d="M433.386,1843.16L1262.38,1838.59L1483.35,1838.52L1556.56,1838.5L1777.95,1838.43L2789.41,1838.13C2789.41,1838.13 3020.76,1523.34 2773.64,1224.35C2517.42,914.36 2392.83,1166.82 2314.07,730.469C2115.82,-367.889 155.788,271.38 669.89,1206.04C855.001,1542.58 305.514,1363.71 433.386,1843.16Z" style="fill:rgb(235,243,250);fill-rule:nonzero;"/>
                </g>
                <path d="M822.264,780.116C822.264,780.116 832.041,793.508 830.993,808.783C830.215,820.121 820.108,831.592 819.429,832.045L835.379,840.552C835.379,840.552 847.209,819.55 843.222,802.004C842,796.627 836.344,788.025 832.189,784.192C827.611,779.969 822.264,780.116 822.264,780.116Z" style="fill:rgb(107,183,191);fill-rule:nonzero;"/>
                <path d="M789.653,781.534L779.551,759.203C779.551,759.203 826.695,760.797 842.315,799.21C842.315,799.21 809.326,775.685 789.653,781.534Z" style="fill:rgb(134,209,205);fill-rule:nonzero;"/>
                <path d="M2518.36,959.686C2518.36,959.686 2500.52,949.972 2493.69,932.507C2488.62,919.544 2493.81,901.551 2494.32,900.694L2472.21,899.621C2472.21,899.621 2470.1,929.07 2483.69,946.414C2487.86,951.729 2498.63,958.295 2505.23,960.366C2512.51,962.647 2518.36,959.686 2518.36,959.686Z" style="fill:rgb(107,183,191);fill-rule:nonzero;"/>
                <path d="M2553.73,941.05L2576.6,960.494C2576.6,960.494 2523.56,983.398 2486.16,949.034C2486.16,949.034 2535,957.822 2553.73,941.05Z" style="fill:rgb(134,209,205);fill-rule:nonzero;"/>
                <path d="M545.286,1335C545.286,1335 531.521,1324.6 527.97,1309.07C525.333,1297.55 531.947,1283.09 532.488,1282.43L514.044,1278.76C514.044,1278.76 508.582,1303.23 517.831,1319.5C520.666,1324.49 528.886,1331.36 534.176,1333.92C540.005,1336.75 545.286,1335 545.286,1335Z" style="fill:rgb(107,183,191);fill-rule:nonzero;"/>
                <path d="M577.333,1323.77L594.11,1342.97C594.11,1342.97 546.685,1355.57 519.575,1322.01C519.575,1322.01 559.502,1335.52 577.333,1323.77Z" style="fill:rgb(134,209,205);fill-rule:nonzero;"/>
                <path d="M2610.04,1230.42C2610.04,1230.42 2608.84,1212.38 2642.69,1203.66C2657.87,1199.75 2691.66,1206.7 2670.24,1239.94C2647.96,1274.52 2628.09,1262.04 2628.09,1262.04C2628.09,1262.04 2674.56,1225.67 2655.97,1209.03C2635.45,1190.68 2627.56,1227.05 2627.56,1227.05C2627.56,1227.05 2619.29,1226.61 2610.04,1230.42Z" style="fill:rgb(241,163,79);fill-rule:nonzero;"/>
                <path d="M2622.06,1264.12C2622.06,1264.12 2609.39,1257.26 2614.41,1242.05L2632.61,1245.21C2632.61,1245.21 2625.61,1261.68 2642.73,1263.67C2642.73,1263.67 2626.26,1267.59 2622.06,1264.12Z" style="fill:rgb(219,119,20);fill-rule:nonzero;"/>
                <path d="M1139.53,404.239C1139.53,404.239 1166.44,365.481 1207.72,392.927L1232.85,368.89C1232.85,368.89 1209.37,351.061 1155.2,383.035C1119.76,403.956 1139.53,404.239 1139.53,404.239Z" style="fill:rgb(86,133,216);fill-rule:nonzero;"/>
                <path d="M1112.97,442.235C1112.97,442.235 1107.65,397.745 1182.12,369.989C1182.12,369.989 1155.2,383.035 1146.9,427.381L1112.97,442.235Z" style="fill:rgb(115,154,240);fill-rule:nonzero;"/>
                <path d="M2465.56,1493.7C2465.56,1493.7 2432.43,1492.03 2433.5,1457.2L2409.82,1451.12C2409.82,1451.12 2407.89,1471.75 2447.08,1492.22C2472.73,1505.61 2465.56,1493.7 2465.56,1493.7Z" style="fill:rgb(86,133,216);fill-rule:nonzero;"/>
                <path d="M2498.1,1495.46C2498.1,1495.46 2473.52,1515.15 2429.3,1481C2429.3,1481 2447.08,1492.22 2476.64,1480.72L2498.1,1495.46Z" style="fill:rgb(115,154,240);fill-rule:nonzero;"/>
                <path d="M1989.82,395.684C1989.82,395.684 1956.69,394.005 1957.76,359.179L1934.08,353.096C1934.08,353.096 1932.15,373.732 1971.34,394.2C1996.99,407.592 1989.82,395.684 1989.82,395.684Z" style="fill:rgb(86,133,216);fill-rule:nonzero;"/>
                <path d="M2022.36,397.437C2022.36,397.437 1997.78,417.128 1953.56,382.974C1953.56,382.974 1971.34,394.2 2000.9,382.698L2022.36,397.437Z" style="fill:rgb(115,154,240);fill-rule:nonzero;"/>
                <path d="M2144.07,625.041C2144.07,625.041 2164.15,612.357 2166.27,597.032C2166.27,597.032 2185.82,598.088 2190.05,604.43C2190.05,604.43 2181.06,629.797 2170.49,634.553C2170.49,634.553 2146.71,636.139 2144.07,625.041Z" style="fill:rgb(249,151,70);fill-rule:nonzero;"/>
                <path d="M1458.32,1096.66C1458.32,1096.66 1482.67,1081.28 1485.23,1062.7C1485.23,1062.7 1508.94,1063.98 1514.06,1071.67C1514.06,1071.67 1503.17,1102.43 1490.35,1108.19C1490.35,1108.19 1461.52,1110.11 1458.32,1096.66Z" style="fill:rgb(151,189,255);fill-rule:nonzero;"/>
                <path d="M2154.68,1665.89C2154.68,1665.89 2138.18,1655.47 2136.44,1642.88C2136.44,1642.88 2120.37,1643.74 2116.9,1648.96C2116.9,1648.96 2124.28,1669.8 2132.97,1673.71C2132.97,1673.71 2152.51,1675.02 2154.68,1665.89Z" style="fill:rgb(249,151,70);fill-rule:nonzero;"/>
                <path d="M1970.19,743.157C1970.19,743.157 1984.67,756.369 1997.33,754.701C1997.33,754.701 2000.77,770.497 1996.65,775.249C1996.65,775.249 1974.49,773.643 1968.39,766.27C1968.39,766.27 1961.93,747.686 1970.19,743.157Z" style="fill:rgb(134,209,205);fill-rule:nonzero;"/>
            </g>
            <g transform="matrix(1,0,0,1,359.61,7.12089)">
                <path d="M1191.65,897.685L1119.24,947.651L1096.55,895.827C1096.55,895.827 1103.98,875.873 1104.41,844.736C1104.58,831.644 1103.54,816.571 1100.15,800.172L1167.72,824.205C1167.72,824.205 1166.98,830.255 1167.11,839.023C1167.27,848.497 1168.45,861.14 1172.69,872.739C1176.33,882.696 1182.22,891.884 1191.65,897.685Z" style="fill:rgb(255,178,125);fill-rule:nonzero;"/>
                <path d="M1201.3,892.574C1201.3,892.574 1314.52,810.622 1322.16,798.547C1329.79,786.473 1370.85,675.788 1370.85,675.788L1395.27,681.338C1395.27,681.338 1376.61,817.196 1363.48,842.691C1350.35,868.187 1216.58,968.625 1216.58,968.625L1201.3,892.574Z" style="fill:rgb(255,178,125);fill-rule:nonzero;"/>
                <path d="M1316.51,1779.3C1316.51,1779.3 1324.68,1795.24 1342.78,1799.18C1354.18,1801.67 1363.94,1807.6 1370.01,1815.92C1375.14,1822.95 1370.18,1832.83 1361.47,1832.83L1269.62,1832.83C1261.8,1832.83 1255.69,1826.09 1256.47,1818.3C1257.16,1811.5 1257.87,1803.57 1258.18,1797.5C1258.86,1784.23 1272.15,1773.55 1272.15,1773.55L1316.51,1779.3Z" style="fill:rgb(44,58,100);fill-rule:nonzero;"/>
                <path d="M1318.72,1782.31C1318.72,1782.31 1296.69,1795.33 1259.4,1787.47C1259.4,1787.47 1196.01,1625.37 1192.26,1549.09C1192.09,1546.03 1192.04,1543.11 1192.09,1540.34C1193.36,1468.59 1127.12,1281.77 1144.99,1243.49C1162.86,1205.2 1307.23,1260.7 1307.23,1260.7L1310.1,1390.88L1318.72,1782.31Z" style="fill:rgb(53,72,139);fill-rule:nonzero;"/>
                <path d="M1310.1,1390.88L1192.26,1549.09C1192.09,1546.03 1192.04,1543.11 1192.09,1540.34C1193.36,1468.59 1127.12,1281.77 1144.99,1243.49C1162.86,1205.2 1307.23,1260.7 1307.23,1260.7L1310.1,1390.88Z" style="fill:rgb(44,58,100);fill-rule:nonzero;"/>
                <path d="M1079.98,1779.22C1079.98,1779.22 1088.15,1795.16 1106.25,1799.1C1117.65,1801.58 1127.41,1807.52 1133.48,1815.83C1138.61,1822.86 1133.65,1832.75 1124.94,1832.75L1033.09,1832.75C1025.27,1832.75 1019.16,1826 1019.94,1818.22C1020.63,1811.41 1021.34,1803.49 1021.66,1797.41C1022.33,1784.15 1035.62,1773.47 1035.62,1773.47L1079.98,1779.22Z" style="fill:rgb(44,58,100);fill-rule:nonzero;"/>
                <path d="M1222.78,1263.78C1222.78,1263.78 1095.19,1739.94 1091.28,1786.54C1091.28,1786.54 1066.39,1799.31 1025.99,1776.76C1025.99,1776.76 1015.94,1567.07 1025.99,1505.02C1042.33,1404.21 1044.82,1261.75 1104.49,1221.99C1164.17,1182.23 1222.78,1263.78 1222.78,1263.78Z" style="fill:rgb(53,72,139);fill-rule:nonzero;"/>
                <path d="M1172.69,872.739C1136.58,876.537 1104.41,844.736 1104.41,844.736L1167.11,839.023C1167.27,848.497 1168.45,861.14 1172.69,872.739Z" style="fill:rgb(234,156,104);fill-rule:nonzero;"/>
                <path d="M1192.04,835.703C1192.04,835.703 1130.06,877.725 1087.43,831.677C1041.41,781.982 1054.31,729.475 1076.5,718.449C1120.74,696.461 1153.81,704.666 1168.48,720.457C1183.16,736.247 1226.36,812.854 1192.04,835.703Z" style="fill:rgb(255,178,125);fill-rule:nonzero;"/>
                <path d="M1104.4,845.206C1104.4,845.206 1090.03,825.703 1086.58,812.815C1086.58,812.815 1060.77,796.343 1069.18,787.071C1077.59,777.798 1087.92,789.279 1089.37,785.803C1090.83,782.328 1078.86,736.357 1091.97,733.339C1105.08,730.321 1156.82,728.398 1171.09,703.572C1185.35,678.746 1111.52,627.24 1036.75,683.399C961.987,739.559 1010.11,825.856 1104.4,845.206Z" style="fill:rgb(44,58,100);fill-rule:nonzero;"/>
                <path d="M1008.13,734.646C1008.13,734.646 1000.33,724.62 1001.57,715.066C1001.57,715.066 1005.7,726.176 1011.84,729.61C1017.98,733.043 1008.13,734.646 1008.13,734.646Z" style="fill:rgb(44,58,100);fill-rule:nonzero;"/>
                <path d="M1007.09,726.083C1007.09,726.083 996.275,728.558 994.173,738.285C994.173,738.285 999.761,730.755 1009.02,733.408L1007.09,726.083Z" style="fill:rgb(44,58,100);fill-rule:nonzero;"/>
                <path d="M1148.05,810.811C1148.05,810.811 1157.71,821.324 1178.32,813.368C1178.32,813.368 1192.24,804.562 1186.67,791.772C1186.67,791.772 1165.53,790.919 1148.05,810.811Z" style="fill:white;fill-rule:nonzero;"/>
                <path d="M1370.57,677.551C1370.57,677.551 1372.15,666.884 1369.61,657.514C1367.07,648.143 1367.54,620.218 1371.83,621.988C1376.12,623.758 1377.24,636.684 1382.29,636.2C1387.34,635.716 1393.45,624.776 1399.63,627.908C1405.81,631.04 1414.14,625.208 1410.14,644.796C1406.13,664.385 1394.99,683.102 1394.99,683.102L1370.57,677.551Z" style="fill:rgb(255,178,125);fill-rule:nonzero;"/>
                <path d="M1066.97,983.279C1066.97,983.279 999.765,1080.62 966.177,1111.51C966.177,1111.51 924.446,1232.58 920.958,1240.6C917.472,1248.62 891.754,1235.63 891.754,1235.63C891.754,1235.63 903.252,1119.49 920.045,1084.35C936.838,1049.2 988.443,931.513 1028.96,925.083C1069.48,918.654 1066.97,983.279 1066.97,983.279Z" style="fill:rgb(255,178,125);fill-rule:nonzero;"/>
                <path d="M920.419,1240.82C920.419,1240.82 918.436,1252.79 921.117,1263.37C923.799,1273.96 918.378,1299.98 913.587,1297.91C908.796,1295.84 912.144,1286.66 906.456,1287.11C900.769,1287.56 888.238,1317.05 881.347,1313.41C874.456,1309.77 870.427,1298.87 875.298,1276.91C880.168,1254.96 893.06,1234.12 893.06,1234.12L920.419,1240.82Z" style="fill:rgb(255,178,125);fill-rule:nonzero;"/>
                <path d="M1292.6,1275.92C1271.62,1284.71 1248.83,1291.38 1226.01,1296.41L1226,1296.41C1225.99,1296.42 1225.97,1296.42 1225.93,1296.44C1158.21,1311.42 1090.4,1312.17 1069.73,1312.01C1065.59,1311.97 1063.35,1311.91 1063.35,1311.91C1053.48,1310.87 1045.86,1303.18 1044.61,1293.67C1044.44,1292.45 1044.4,1291.19 1044.45,1289.91C1044.45,1289.91 1040.37,1177.58 1039.13,1152.08C1037.14,1111.2 1029.91,1049 1029.91,1049L1014.57,1064.62C1014.57,1064.62 990.976,1065.34 969.412,1050.55C950.089,1037.28 946.676,1016.06 946.676,1016.06C946.676,1016.06 995.517,938.522 1026.24,916.801C1048.22,901.264 1096.55,895.831 1096.55,895.831C1109.95,906.367 1135.61,921.075 1161.23,914.232C1180.48,909.072 1181.79,897.854 1179.97,886.726L1265.5,842.92C1265.5,842.92 1301.92,869.46 1300.24,919.643C1300.24,919.643 1269.1,942.171 1265.24,957.572C1255.46,996.547 1317.4,1227.97 1317.4,1227.97C1321.67,1247.83 1311.32,1268.07 1292.6,1275.92Z" style="fill:rgb(249,151,70);fill-rule:nonzero;"/>
                <path d="M1226,1296.41C1225.99,1296.42 1225.97,1296.42 1225.93,1296.44C1158.21,1311.42 1090.4,1312.17 1069.73,1312.01C1065.59,1311.97 1063.35,1311.91 1063.35,1311.91C1053.48,1310.87 1045.86,1303.18 1044.61,1293.67C1044.44,1292.45 1044.4,1291.19 1044.45,1289.91C1044.45,1289.91 1040.37,1177.58 1039.13,1152.08C1037.14,1111.2 1029.91,1049 1029.91,1049C1029.91,1049 1081.56,1222.56 1109.6,1262.71C1137.41,1302.56 1224.63,1296.52 1226,1296.41Z" style="fill:rgb(237,125,43);fill-rule:nonzero;"/>
                <path d="M1833.8,723.867L1738.32,791.56C1733.35,784.555 1731.69,776.196 1733.03,768.347C1734.38,760.492 1738.7,753.159 1745.71,748.187C1751.89,743.81 1753.34,735.25 1748.96,729.077L1718.67,686.35L1741.02,670.501L1771.31,713.227C1773.5,716.314 1776.74,718.225 1780.2,718.814C1783.66,719.404 1787.34,718.671 1790.43,716.482C1797.44,711.516 1805.79,709.857 1813.64,711.193C1821.49,712.53 1828.83,716.863 1833.8,723.867Z" style="fill:rgb(237,125,43);fill-rule:nonzero;"/>
                <path d="M1833.8,723.867L1770.33,768.867C1752.37,777.873 1745.27,766.567 1746.61,758.718C1747.96,750.863 1752.28,743.53 1759.29,738.558C1765.47,734.182 1766.92,725.621 1762.54,719.448L1732.25,676.722L1741.02,670.501L1771.31,713.227C1773.5,716.314 1776.74,718.225 1780.2,718.814C1783.66,719.404 1787.34,718.671 1790.43,716.482C1797.44,711.516 1805.79,709.857 1813.64,711.193C1821.49,712.53 1828.83,716.863 1833.8,723.867Z" style="fill:rgb(249,151,70);fill-rule:nonzero;"/>
                <path d="M1682.87,338.777L1744.25,453.849C1775.74,498.263 1776.8,551.854 1759.9,595.41C1759.89,595.416 1759.9,595.424 1759.89,595.43C1754.14,610.27 1746.3,623.938 1736.87,635.685C1729.08,645.388 1729.49,660.642 1737.97,672.615L1739.74,675.118C1744.99,682.531 1749.39,688.746 1749.39,688.746L1733.12,700.282C1733.12,700.282 1728.66,694.008 1723.37,686.551C1714.03,673.41 1698.41,667.109 1685.4,671.408C1629.83,689.779 1557.79,674.414 1516.1,615.604L1429.77,518.221L1682.87,338.777Z" style="fill:rgb(249,151,70);fill-rule:nonzero;"/>
                <path d="M1584.69,665.787C1552.23,644.449 1525.72,653.11 1497.66,662.279C1475.21,669.61 1452.01,677.192 1425.7,669.552C1396.52,661.078 1373.9,635.944 1369.42,607.009C1366.02,585.001 1373.96,565.786 1391.2,554.232C1415.69,537.846 1447.64,541.686 1483.58,565.338C1509.32,582.279 1528.13,603.323 1528.92,604.21L1516.09,615.603C1515.4,614.823 1446.24,538.044 1400.73,568.489C1385.02,578.985 1385,595.488 1386.38,604.387C1389.8,626.51 1407.94,646.533 1430.48,653.08C1451.71,659.245 1471.44,652.799 1492.33,645.974C1521.59,636.416 1554.75,625.581 1594.11,651.453L1584.69,665.787Z" style="fill:rgb(237,125,43);fill-rule:nonzero;"/>
                <path d="M1768.9,535.187C1759.51,497.488 1776.46,475.34 1794.4,451.893C1808.74,433.144 1823.58,413.756 1825.08,386.401C1826.74,356.058 1810.51,326.398 1784.68,312.597C1765.04,302.1 1744.28,303.236 1727.68,315.673C1704.1,333.365 1697.16,364.78 1707.58,406.523C1715.05,436.422 1728.68,461.137 1729.25,462.174L1744.25,453.844C1743.74,452.933 1694.18,362.261 1737.97,329.392C1753.08,318.042 1768.66,323.48 1776.6,327.725C1796.34,338.276 1809.23,362.02 1807.95,385.462C1806.74,407.535 1794.13,424.018 1780.78,441.47C1762.07,465.916 1740.87,493.623 1752.26,539.332L1768.9,535.187Z" style="fill:rgb(249,151,70);fill-rule:nonzero;"/>
                <path d="M1759.89,595.43C1754.14,610.27 1746.3,623.938 1736.87,635.685C1729.08,645.388 1729.49,660.642 1737.97,672.615L1739.74,675.118C1740.19,681.815 1741.96,687.5 1745.62,691.418L1733.12,700.282C1733.12,700.282 1728.66,694.008 1723.37,686.551C1714.03,673.41 1698.41,667.109 1685.4,671.408C1629.83,689.779 1557.79,674.414 1516.1,615.604L1429.77,518.221L1471.62,488.556C1471.62,488.556 1621.99,748.259 1759.89,595.43Z" style="fill:rgb(237,125,43);fill-rule:nonzero;"/>
                <path d="M1763.21,683.005L1721.53,712.558C1715.87,716.57 1707.96,715.223 1703.94,709.564C1699.93,703.906 1701.28,695.993 1706.94,691.981L1748.62,662.428C1754.28,658.417 1762.19,659.764 1766.21,665.422C1770.22,671.081 1768.87,678.994 1763.21,683.005Z" style="fill:rgb(249,151,70);fill-rule:nonzero;"/>
            </g>
        </g>
    </g>
</svg>
