<svg viewBox="0 0 478 104" xmlns="http://www.w3.org/2000/svg" fill-rule="evenodd" clip-rule="evenodd" stroke-linecap="round" stroke-linejoin="round" stroke-miterlimit="1.5"><path d="M182.44 18.274v19.307c0 10.014 8.129 18.143 18.143 18.143h44.661c10.014 0 18.144-8.13 18.144-18.143V18.274" fill="none" stroke="#fff" stroke-width="10.324"/><path d="M200.583 85.562h44.661c10.014 0 18.144-8.13 18.144-18.144V37m23.119 29.254c0-10.013 8.13-18.143 18.144-18.143h44.662c10.013 0 18.143 8.13 18.143 18.143" fill="none" stroke="#fff" stroke-width="10.324"/><path d="M304.65 18.273h44.663c10.013 0 18.143 8.13 18.143 18.144v25.75M472.63 35.609v13.643c0 10.014-8.13 18.144-18.144 18.144h-44.662c-10.013 0-18.143-8.13-18.143-18.144V35.61m-.001-.002c0-10.014 8.13-18.144 18.144-18.144h44.662c10.014 0 18.144 8.13 18.144 18.144m-186.123 31.81c0 10.014 8.13 18.144 18.144 18.144h44.662c10.013 0 18.143-8.13 18.143-18.144m24.224 17.335V54.334" fill="none" stroke="#fff" stroke-width="10.324"/><path d="M123.846 95.43c-12.373 4.817-26.933 7.596-42.51 7.596C36.446 103.026 0 79.944 0 51.513 0 23.082 36.446 0 81.336 0s81.336 23.082 81.336 51.513c0 12.473-7.014 23.917-18.679 32.833l18.68 18.68-38.827-7.597z" fill="#6ddfc1"/><path d="M69.53 80.54c8.178 3.184 17.801 5.021 28.097 5.021 29.67 0 53.76-15.257 53.76-34.048 0-18.792-24.09-34.049-53.76-34.049-29.671 0-53.76 15.257-53.76 34.049 0 8.244 4.635 15.808 12.345 21.701L43.866 85.561 69.53 80.54z" fill="#fff"/><path d="M78.08 44.834a6.682 6.682 0 0 1 6.679 6.68 6.681 6.681 0 0 1-6.679 6.678 6.682 6.682 0 0 1-6.68-6.679 6.683 6.683 0 0 1 6.68-6.68zm19.545 0a6.682 6.682 0 0 1 6.679 6.68 6.681 6.681 0 0 1-6.679 6.678 6.682 6.682 0 0 1-6.68-6.679 6.683 6.683 0 0 1 6.68-6.68zm19.545 0a6.682 6.682 0 0 1 6.679 6.68 6.681 6.681 0 0 1-6.679 6.678 6.682 6.682 0 0 1-6.68-6.679 6.683 6.683 0 0 1 6.68-6.68z" fill="#4d5273"/></svg>