<svg viewBox="0 0 512 512" xmlns="http://www.w3.org/2000/svg" fill-rule="evenodd" clip-rule="evenodd" stroke-linejoin="round" stroke-miterlimit="1.414"><path d="M481 98.5c0-37.255-30.246-67.5-67.5-67.5h-315C61.246 31 31 61.245 31 98.5v315c0 37.254 30.246 67.5 67.5 67.5h315c37.254 0 67.5-30.246 67.5-67.5v-315z" fill="#4d5273"/><path d="M383.293 388.435c-37.314 14.528-81.22 22.908-128.193 22.908-135.37 0-245.275-69.606-245.275-155.342 0-85.736 109.905-155.342 245.275-155.342 135.372 0 245.277 69.606 245.277 155.342 0 37.614-21.153 72.123-56.329 99.01l56.329 56.332-117.084-22.908z" fill="#6ddfc1"/><path d="M219.495 343.535c24.663 9.603 53.684 15.142 84.732 15.142 89.475 0 162.118-46.008 162.118-102.676 0-56.669-72.643-102.677-162.118-102.677-89.477 0-162.12 46.008-162.12 102.677 0 24.862 13.98 47.67 37.23 65.443l-37.23 37.233 77.388-15.142z" fill="#fff"/><path d="M245.281 235.86c11.117 0 20.14 9.026 20.14 20.142 0 11.117-9.023 20.14-20.14 20.14-11.116 0-20.142-9.023-20.142-20.14 0-11.116 9.026-20.143 20.142-20.143zm58.94 0c11.117 0 20.14 9.026 20.14 20.142 0 11.117-9.023 20.14-20.14 20.14-11.116 0-20.143-9.023-20.143-20.14 0-11.116 9.027-20.143 20.143-20.143zm58.94 0c11.117 0 20.14 9.026 20.14 20.142 0 11.117-9.023 20.14-20.14 20.14s-20.143-9.023-20.143-20.14c0-11.116 9.026-20.143 20.143-20.143z" fill="#4d5273"/></svg>